<?xml version="1.0" standalone="no"?>
<!DOCTYPE svg PUBLIC "-//W3C//DTD SVG 1.1//EN" "http://www.w3.org/Graphics/SVG/1.1/DTD/svg11.dtd" >
<svg xmlns="http://www.w3.org/2000/svg" xmlns:xlink="http://www.w3.org/1999/xlink" version="1.1">
<metadata>
Created by FontForge 20170731 at Wed Mar 16 15:43:38 2022
 By Aleksey,,,
</metadata>
<defs>
<font id="ReptileMedium" horiz-adv-x="0" >
  <font-face 
    font-family="Reptile Medium"
    font-weight="500"
    font-stretch="normal"
    units-per-em="2048"
    panose-1="0 0 0 0 0 0 0 0 0 0"
    ascent="1638"
    descent="-410"
    x-height="1046"
    cap-height="1433"
    bbox="-141 -481 1943 1632"
    underline-thickness="102"
    underline-position="-307"
    unicode-range="U+000A-F004"
  />
<missing-glyph horiz-adv-x="1079" 
d="M102 1434h875v-1434h-875v1434zM160 1393l379 -633l381 633h-760zM514 717l-369 614v-1231zM541 674l-379 -631h758zM565 717l371 -621v1239z" />
    <glyph glyph-name=".notdef" horiz-adv-x="1079" 
d="M102 1434h875v-1434h-875v1434zM160 1393l379 -633l381 633h-760zM514 717l-369 614v-1231zM541 674l-379 -631h758zM565 717l371 -621v1239z" />
    <glyph glyph-name=".null" 
 />
    <glyph glyph-name=".null" 
 />
    <glyph glyph-name="nonmarkingreturn" horiz-adv-x="682" 
 />
    <glyph glyph-name="controlLF" unicode="&#xa;" 
 />
    <glyph glyph-name="controlCR" unicode="&#xd;" 
 />
    <glyph glyph-name="space" unicode=" " horiz-adv-x="444" 
 />
    <glyph glyph-name="exclam" unicode="!" horiz-adv-x="458" 
d="M190 383q-52 626 -70 822l-24 174l228 54h18q-39 -637 -39 -913q0 -62 17 -96l1 -12zM239 -20q-49 0 -84 34.5t-35 83.5t35 84t84 35t83.5 -35t34.5 -84t-34.5 -83.5t-83.5 -34.5z" />
    <glyph glyph-name="numbersign" unicode="#" horiz-adv-x="1171" 
d="M1109 982v-65h-228q-10 -76 -54 -400h197v-65h-205q-36 -274 -39 -299q-6 -57 -5 -89.5t5 -45.5l3 -12v-8h-151q-1 9 0 12q40 166 83 442h-323q-27 -203 -38 -299q-6 -57 -5.5 -89.5t3.5 -45.5l4 -12l1 -9h-152q-1 9 0 12q40 164 83 443h-225v65h235q31 209 55 400h-205
v65h213l30 268q11 90 4 159v15l146 13v-12q-37 -146 -51 -244q-18 -137 -27 -199h324l31 268q11 86 3 160v14l146 13l1 -11q-37 -144 -51 -245q-18 -137 -27 -199h219zM725 517q25 167 54 400h-325q-9 -69 -27 -204.5t-26 -195.5h324z" />
    <glyph glyph-name="dollar" unicode="$" horiz-adv-x="1286" 
d="M756 810q59 -23 94.5 -37.5t88 -40t84 -47t68.5 -54.5t57 -67t34 -79.5t14 -97.5q0 -125 -77 -219t-207 -142.5t-292 -48.5h-40l-18 -175h-47l19 179q-262 17 -432 111l3 396l25 -1q38 -104 80 -181.5t80.5 -124t84 -77t84 -43.5t85.5 -19l62 606l-68 26q-55 21 -86 34
t-83.5 37.5t-83.5 45.5t-69.5 53t-59.5 65t-36 77t-15 93q0 164 150 271t391 107q33 0 49 -2l19 177h47l-19 -179q212 -19 379 -100l2 -358h-20q-38 110 -79.5 185.5t-89 118t-92.5 62.5t-105 31l-63 -551zM281 1166q0 -40 13 -75.5t40.5 -64.5t56 -51.5t74 -44.5
t79.5 -36.5t86 -34.5l60 539q-42 4 -63 4q-162 0 -254 -64t-92 -172zM635 36q175 0 281.5 69t106.5 191q0 39 -12.5 74.5t-31.5 62.5t-51 53.5t-59.5 44.5t-70.5 39t-71 32.5t-72 28.5l-4 2l-60 -595q14 -2 44 -2z" />
    <glyph glyph-name="percent" unicode="%" horiz-adv-x="1544" 
d="M396 749q-144 0 -234 92.5t-90 249.5q0 161 89.5 257.5t236.5 96.5q142 0 232.5 -93t90.5 -249q0 -161 -89.5 -257.5t-235.5 -96.5zM399 797q71 0 111 79.5t40 216.5q0 140 -41.5 222t-113.5 82t-112 -79t-40 -217q0 -140 41.5 -222t114.5 -82zM749 764q78 124 173 291.5
t152 272.5l56 106h180v-21q-328 -451 -496 -727q-106 -175 -206 -346.5t-146 -255.5l-47 -83l-172 -1v12q317 452 506 752zM1142 -11q-141 0 -230.5 93t-89.5 249q0 161 89.5 258t234.5 97q143 0 233 -93t90 -250q0 -161 -90 -257.5t-237 -96.5zM1146 37q72 0 112 79.5
t40 217.5q0 141 -41 222.5t-114 81.5q-71 0 -111.5 -80t-40.5 -217q0 -140 41.5 -222t113.5 -82z" />
    <glyph glyph-name="ampersand" unicode="&#x26;" horiz-adv-x="1421" 
d="M1080 319l317 -301v-18h-298l-141 153q-174 -176 -409 -176q-211 0 -341 103.5t-130 278.5q0 134 79.5 240t227.5 167q-80 83 -119 160t-39 177q0 153 109 253.5t267 100.5q150 0 258 -89.5t108 -221.5q0 -65 -38 -124.5t-98.5 -102.5t-120.5 -72.5t-119 -47.5l444 -439
q29 65 38 120.5t-2 147.5q-9 55 -27 97t-43.5 78t-28.5 42l213 79h8q-10 -179 -14 -238q-14 -194 -101 -367zM359 1178q0 -41 12.5 -82t29 -72t47 -69.5t51.5 -60.5t58 -59q52 24 97.5 52t89.5 65.5t69.5 84t25.5 95.5q0 132 -68.5 215t-177.5 83q-75 0 -130 -39t-79.5 -95
t-24.5 -118zM583 53q184 0 335 143l-495 533q-89 -56 -131.5 -139.5t-42.5 -175.5q0 -166 98 -263.5t236 -97.5z" />
    <glyph glyph-name="parenleft" unicode="(" horiz-adv-x="520" 
d="M451 -317q-156 182 -254.5 419.5t-98.5 504.5q0 269 100.5 516t250.5 408l41 -9q-107 -183 -173 -421t-66 -494t66 -494t173 -421z" />
    <glyph glyph-name="parenright" unicode=")" horiz-adv-x="520" 
d="M420 607q0 -267 -98.5 -504.5t-254.5 -419.5l-38 9q107 183 172.5 420.5t65.5 494.5t-65.5 494.5t-172.5 420.5l40 9q150 -161 250.5 -408t100.5 -516z" />
    <glyph glyph-name="asterisk" unicode="*" horiz-adv-x="884" 
d="M816 1192q-124 -27 -305 -122q155 -80 305 -123l-80 -140q-88 94 -260 204q4 -219 47 -327h-162q37 114 47 325q-152 -98 -260 -202l-80 140q134 32 306 123q-193 105 -306 122l80 140q84 -91 259 -203q-9 173 -46 326h162q-39 -132 -47 -327q187 113 260 204z" />
    <glyph glyph-name="plus" unicode="+" horiz-adv-x="1028" 
d="M916 789v-143q-142 18 -346 21q1 -184 16 -363h-144q21 174 22 363q-199 -3 -351 -21v143q163 -15 351 -16q-3 202 -21 357h143q-15 -166 -16 -357q175 1 346 16z" />
    <glyph glyph-name="comma" unicode="," horiz-adv-x="331" 
d="M163 217q59 0 95 -47.5t26 -127.5q-18 -147 -166 -320l-21 12q64 109 62 175q-1 41 -53 85q-31 26 -46 48.5t-15 55.5q0 49 34.5 84t83.5 35z" />
    <glyph glyph-name="hyphen" unicode="-" horiz-adv-x="657" 
d="M39 641q279 -19 578 0v-143q-116 12 -293 13t-285 -13v143z" />
    <glyph glyph-name="period" unicode="." horiz-adv-x="462" 
d="M231 -20q-49 0 -83.5 34.5t-34.5 83.5t34.5 84t83.5 35t83.5 -35t34.5 -84t-34.5 -83.5t-83.5 -34.5z" />
    <glyph glyph-name="slash" unicode="/" horiz-adv-x="645" 
d="M458 1466h152q-356 -1169 -468 -1665h-167v12q253 685 427 1403z" />
    <glyph glyph-name="zero" unicode="0" horiz-adv-x="1320" 
d="M657 -23q-251 0 -407 193.5t-156 534.5q0 347 153.5 549.5t413.5 202.5q251 0 408 -194t157 -534q0 -347 -154.5 -549.5t-414.5 -202.5zM665 29q117 0 198 88t119.5 239t38.5 354q0 208 -41 363t-124.5 243.5t-200.5 88.5t-198.5 -87.5t-119.5 -238t-38 -352.5
q0 -208 41 -364t124.5 -245t200.5 -89z" />
    <glyph glyph-name="one" unicode="1" horiz-adv-x="669" 
d="M495 328q0 -138 22 -220.5t65 -82.5v-25h-376v26q54 0 81 73t27 202l21 894l-19 11q-7 -4 -20 -10.5t-47.5 -29.5t-63.5 -48t-60.5 -64.5t-47.5 -80.5h-27l-1 217q255 43 424 244h22v-1106z" />
    <glyph glyph-name="two" unicode="2" horiz-adv-x="1042" 
d="M314 103q105 0 176 3.5t136.5 14.5t108 29.5t81.5 49.5t66.5 73t52.5 102h22l-48 -374h-776l-42 52q334 374 496.5 618t162.5 404q0 143 -68 235t-164 92q-39 0 -81.5 -20.5t-86 -62.5t-79.5 -119t-55 -179l-10 -1l-149 112q163 325 477 325q180 0 297.5 -102.5
t117.5 -281.5q0 -70 -38 -158.5t-95 -174.5t-151.5 -198.5t-180 -204t-207.5 -216.5l1 -19z" />
    <glyph glyph-name="three" unicode="3" horiz-adv-x="1038" 
d="M449 -23q-63 0 -123 7.5t-100.5 18.5t-72.5 22.5t-47 18.5l-15 8l-3 291l33 1q23 -97 81.5 -167t123 -100t126.5 -30q66 0 119.5 32.5t85.5 83.5t48.5 109t16.5 114q0 140 -81 232.5t-223 102.5l-74 8l-8 22l69 21q112 36 198 145t88 206q2 119 -54 200.5t-141 81.5
q-203 0 -287 -338l-14 1l-115 131q174 258 449 258q156 0 260 -79t104 -214q0 -115 -89 -211t-212 -137v-16q71 -13 134.5 -44t112.5 -78.5t78 -113.5t29 -142q0 -202 -136.5 -323.5t-360.5 -121.5z" />
    <glyph glyph-name="four" unicode="4" horiz-adv-x="1165" 
d="M847 541l269 17v-167h-269v-168q0 -88 8.5 -133t30.5 -73v-16h-260v16q39 49 39 193v180h-610l-16 23q62 76 254 326t353 463l160 212h41v-873zM242 549v-14l423 1v554h-14z" />
    <glyph glyph-name="five" unicode="5" horiz-adv-x="1093" 
d="M580 908q84 0 160.5 -34.5t135.5 -96.5t94 -156.5t35 -206.5q0 -208 -151.5 -336.5t-394.5 -128.5q-188 0 -357 89l26 311l32 1q20 -88 59.5 -155t88.5 -104.5t100 -56t101 -18.5q143 0 219 110.5t76 280.5q0 171 -79.5 272.5t-203.5 101.5q-65 0 -128 -13.5t-107.5 -33
t-79.5 -39t-52 -33.5l-17 -13l-35 30l92 722l671 4l59 -233l-14 -10q-64 52 -118.5 81.5t-125 44t-133 18t-179.5 3.5l-50 -1l-46 -480l6 -7q79 45 149 66t167 21z" />
    <glyph glyph-name="six" unicode="6" horiz-adv-x="1132" 
d="M620 916q194 0 310.5 -135t116.5 -337q0 -208 -135.5 -337.5t-343.5 -129.5q-223 0 -351.5 150t-128.5 415q0 142 39.5 271.5t105 227.5t149.5 178.5t175 131.5t178.5 78.5t162.5 27.5l37 -195l-13 -2q-156 9 -274 -20t-199 -96t-132 -160t-83 -223l20 -1
q50 67 153 111.5t213 44.5zM577 29q81 0 143.5 54t93.5 138.5t31 182.5q0 187 -75.5 292.5t-202.5 105.5q-115 0 -202 -104t-87 -283q0 -168 88.5 -277t210.5 -109z" />
    <glyph glyph-name="seven" unicode="7" horiz-adv-x="1015" 
d="M995 1434v-8q-18 -37 -49 -101.5t-113.5 -249t-150 -353t-134 -373t-90.5 -348.5h-284l-1 20q195 424 378.5 772t308.5 532v15l-205 -4q-81 0 -137 -3t-121.5 -13t-116.5 -28.5t-106 -51t-107 -78.5h-22l107 272h843z" />
    <glyph glyph-name="eight" unicode="8" horiz-adv-x="1134" 
d="M704 782q165 -72 252 -167t87 -236q0 -170 -140 -286t-350 -116q-121 0 -225 39.5t-171 119.5t-67 186q0 141 86 238.5t243 150.5q-266 137 -266 368q0 158 119 268t310 110q166 0 284 -89.5t118 -225.5q0 -53 -15.5 -99t-39.5 -80.5t-63.5 -69t-75 -58t-86.5 -53.5z
M568 29q133 0 223 84t90 208q0 109 -75.5 183t-212.5 131l-93 40q-8 -4 -22.5 -12t-50.5 -38t-63.5 -65t-50 -94t-22.5 -124q0 -144 74.5 -228.5t202.5 -84.5zM291 1135q0 -44 20.5 -85t51.5 -72.5t79 -64t89 -55t97 -48.5q176 89 176 315q0 137 -64.5 208.5t-169.5 71.5
q-122 0 -200.5 -78t-78.5 -192z" />
    <glyph glyph-name="nine" unicode="9" horiz-adv-x="1134" 
d="M511 518q-194 0 -310.5 135.5t-116.5 337.5q0 208 136 337t344 129q222 0 350.5 -149.5t128.5 -415.5q0 -150 -33 -281t-91 -230t-135.5 -177t-168.5 -127t-187.5 -74.5t-194.5 -25.5l-37 195l28 5q151 -22 276 7t208.5 98t132 169.5t56.5 222.5l-20 1q-50 -67 -153 -112
t-213 -45zM554 1405q-121 0 -194 -111t-73 -264q0 -187 75 -292t202 -105q115 0 202 103.5t87 282.5q0 168 -88.5 277t-210.5 109z" />
    <glyph glyph-name="colon" unicode=":" horiz-adv-x="368" 
d="M184 752q-49 0 -83.5 35t-34.5 84t34.5 83.5t83.5 34.5t83.5 -34.5t34.5 -83.5t-34.5 -84t-83.5 -35zM184 217q49 0 83.5 -35t34.5 -84t-34.5 -83.5t-83.5 -34.5t-83.5 34.5t-34.5 83.5t34.5 84t83.5 35z" />
    <glyph glyph-name="semicolon" unicode=";" horiz-adv-x="372" 
d="M185 752q-49 0 -83.5 35t-34.5 84t34.5 83.5t83.5 34.5t83.5 -34.5t34.5 -83.5t-34.5 -84t-83.5 -35zM184 217q59 0 94.5 -47.5t25.5 -127.5q-18 -147 -166 -320l-21 12q64 109 62 175q-1 41 -53 85q-30 26 -45 48.5t-15 55.5q0 49 34.5 84t83.5 35z" />
    <glyph glyph-name="less" unicode="&#x3c;" horiz-adv-x="821" 
d="M735 888q-104 -28 -252.5 -72t-244.5 -74l-97 -30v-9q354 -112 594 -176l7 -9v-199h-11q-156 86 -686 331v114q479 218 686 332h11v-199z" />
    <glyph glyph-name="equal" unicode="=" horiz-adv-x="1009" 
d="M55 617q433 -19 898 0v-143q-180 12 -455.5 13t-442.5 -13v143zM55 961q180 -12 455.5 -13t442.5 13v-143q-433 19 -898 0v143z" />
    <glyph glyph-name="greater" unicode="&#x3e;" horiz-adv-x="821" 
d="M678 712q-359 112 -593 176l-7 9v199h10q207 -114 686 -332v-114q-530 -245 -686 -331h-10v199l7 9q107 28 255 72t243 74l95 30v9z" />
    <glyph glyph-name="question" unicode="?" horiz-adv-x="946" 
d="M492 1457q170 0 279.5 -87.5t109.5 -231.5q0 -65 -22 -124t-57 -105.5t-77.5 -90t-85.5 -85.5t-78 -83.5t-57 -92t-22 -103.5h-81q0 78 28 150t68 129t80 113.5t68 127.5t28 147q0 49 -5 87.5t-18.5 76t-35.5 62.5t-59 40.5t-87 15.5q-47 0 -93 -24t-81.5 -61t-65.5 -83
t-49 -89t-27 -80h-13l-98 161q179 230 451 230zM442 -20q-49 0 -84 34.5t-35 83.5t35 84t84 35t83.5 -35t34.5 -84t-34.5 -83.5t-83.5 -34.5z" />
    <glyph glyph-name="at" unicode="@" horiz-adv-x="1763" 
d="M1306 1038l-98 -472q-16 -82 -16 -130q0 -62 26 -88t84 -26q40 0 69.5 14.5t48.5 46t30.5 67t17.5 93t7.5 108t1.5 125.5q0 183 -64.5 326t-189 225t-291.5 82q-190 0 -336.5 -101.5t-226 -281.5t-79.5 -409q0 -161 53.5 -305t137.5 -240.5t186.5 -152.5t201.5 -56
q339 0 609 357l22 -1l8 -243q-132 -78 -301.5 -120t-323.5 -42q-230 0 -411.5 101t-282.5 282t-101 410q0 176 66.5 334t180 271t271.5 179t334 66q209 0 378.5 -89t264.5 -244t95 -346q0 -138 -49 -253t-142.5 -184t-213.5 -69q-182 0 -203 136q-129 -155 -281 -155
q-112 0 -188 75t-76 216q0 130 56 244t161 186t236 72q74 0 140 -27t101 -77l75 96h12zM1068 611l61 297q-17 41 -56.5 64.5t-92.5 23.5q-89 0 -156 -61.5t-99.5 -160t-32.5 -216.5q0 -224 152 -224q44 0 102.5 40.5t106.5 109.5q5 70 15 127z" />
    <glyph glyph-name="A" unicode="A" horiz-adv-x="1396" 
d="M799 1433l590 -1435h-297q-1 15 -1 20q0 79 -18 172.5t-43.5 170.5t-51 142t-43.5 102l-18 37q-176 8 -367.5 -57t-305.5 -198q-16 -43 -31 -90q-58 -175 -47 -299h-158l548 1397q-35 13 -75 13v25h318zM315 547q117 55 270.5 102.5t299.5 73.5l-250 647h-15
q-182 -463 -312 -811z" />
    <glyph glyph-name="A" unicode="&#xc5;" horiz-adv-x="1396" 
d="M799 1433l590 -1435h-297q-1 15 -1 20q0 79 -18 172.5t-43.5 170.5t-51 142t-43.5 102l-18 37q-176 8 -367.5 -57t-305.5 -198q-16 -43 -31 -90q-58 -175 -47 -299h-158l548 1397q-35 13 -75 13v25h318zM315 547q117 55 270.5 102.5t299.5 73.5l-250 647h-15
q-182 -463 -312 -811z" />
    <glyph glyph-name="A" unicode="&#xc4;" horiz-adv-x="1396" 
d="M799 1433l590 -1435h-297q-1 15 -1 20q0 79 -18 172.5t-43.5 170.5t-51 142t-43.5 102l-18 37q-176 8 -367.5 -57t-305.5 -198q-16 -43 -31 -90q-58 -175 -47 -299h-158l548 1397q-35 13 -75 13v25h318zM315 547q117 55 270.5 102.5t299.5 73.5l-250 647h-15
q-182 -463 -312 -811z" />
    <glyph glyph-name="A" unicode="&#xc3;" horiz-adv-x="1396" 
d="M799 1433l590 -1435h-297q-1 15 -1 20q0 79 -18 172.5t-43.5 170.5t-51 142t-43.5 102l-18 37q-176 8 -367.5 -57t-305.5 -198q-16 -43 -31 -90q-58 -175 -47 -299h-158l548 1397q-35 13 -75 13v25h318zM315 547q117 55 270.5 102.5t299.5 73.5l-250 647h-15
q-182 -463 -312 -811z" />
    <glyph glyph-name="A" unicode="&#xc2;" horiz-adv-x="1396" 
d="M799 1433l590 -1435h-297q-1 15 -1 20q0 79 -18 172.5t-43.5 170.5t-51 142t-43.5 102l-18 37q-176 8 -367.5 -57t-305.5 -198q-16 -43 -31 -90q-58 -175 -47 -299h-158l548 1397q-35 13 -75 13v25h318zM315 547q117 55 270.5 102.5t299.5 73.5l-250 647h-15
q-182 -463 -312 -811z" />
    <glyph glyph-name="A" unicode="&#xc1;" horiz-adv-x="1396" 
d="M799 1433l590 -1435h-297q-1 15 -1 20q0 79 -18 172.5t-43.5 170.5t-51 142t-43.5 102l-18 37q-176 8 -367.5 -57t-305.5 -198q-16 -43 -31 -90q-58 -175 -47 -299h-158l548 1397q-35 13 -75 13v25h318zM315 547q117 55 270.5 102.5t299.5 73.5l-250 647h-15
q-182 -463 -312 -811z" />
    <glyph glyph-name="A" unicode="&#xc0;" horiz-adv-x="1396" 
d="M799 1433l590 -1435h-297q-1 15 -1 20q0 79 -18 172.5t-43.5 170.5t-51 142t-43.5 102l-18 37q-176 8 -367.5 -57t-305.5 -198q-16 -43 -31 -90q-58 -175 -47 -299h-158l548 1397q-35 13 -75 13v25h318zM315 547q117 55 270.5 102.5t299.5 73.5l-250 647h-15
q-182 -463 -312 -811z" />
    <glyph glyph-name="B" unicode="B" horiz-adv-x="1306" 
d="M813 735q125 -8 220 -46t154 -113.5t59 -181.5q0 -183 -156 -288.5t-438 -105.5l-558 -2v14q60 42 60 313q0 651 -3 858v175q0 45 -74 50h-22v25h608q243 0 370 -88t127 -246q0 -92 -50.5 -167.5t-127 -120.5t-169.5 -63v-13zM324 1385v-624h320q141 0 222 88.5t81 227.5
q0 140 -83.5 224t-249.5 84h-290zM593 49q223 0 328 78.5t105 238.5t-93 252t-256 95q-207 5 -353 -22v-642h269z" />
    <glyph glyph-name="C" unicode="C" horiz-adv-x="1421" 
d="M1336 412h20l-58 -344q-218 -91 -473 -91q-223 0 -396 89t-269.5 255t-96.5 384q0 169 55.5 310.5t153 238t231.5 150t289 53.5q167 0 290.5 -26t244.5 -95l22 -399l-22 -1q-25 108 -67 191.5t-106 148t-157.5 98.5t-212.5 34q-224 0 -362 -182t-138 -472
q0 -160 43.5 -295t118.5 -227.5t178.5 -144t221.5 -51.5q166 0 299 99.5t191 276.5z" />
    <glyph glyph-name="C" unicode="&#xc7;" horiz-adv-x="1421" 
d="M1336 412h20l-58 -344q-218 -91 -473 -91q-223 0 -396 89t-269.5 255t-96.5 384q0 169 55.5 310.5t153 238t231.5 150t289 53.5q167 0 290.5 -26t244.5 -95l22 -399l-22 -1q-25 108 -67 191.5t-106 148t-157.5 98.5t-212.5 34q-224 0 -362 -182t-138 -472
q0 -160 43.5 -295t118.5 -227.5t178.5 -144t221.5 -51.5q166 0 299 99.5t191 276.5z" />
    <glyph glyph-name="D" unicode="D" horiz-adv-x="1490" 
d="M655 1433q171 0 311 -46t240 -133t154.5 -220t54.5 -301q0 -345 -213 -539t-580 -194h-529v15q60 42 60 313v1030q0 45 -74 50h-22v25h598zM655 49q259 0 399.5 173t140.5 501q0 304 -151 483t-406 179h-284v-1318q77 -18 301 -18z" />
    <glyph glyph-name="E" unicode="E" horiz-adv-x="1214" 
d="M1125 495l26 1l-65 -496h-993v15q60 42 60 313v1030q0 45 -74 50h-22v26h997l73 -451h-22q-44 125 -84.5 198.5t-99.5 121.5t-133.5 65t-189.5 17h-244v-614h226q322 0 413 39h4v-135h-4q-110 47 -413 47h-226v-673h263q80 3 137 12.5t107 30.5t84.5 51.5t66.5 81.5
t58 114t55 156z" />
    <glyph glyph-name="E" unicode="&#xcb;" horiz-adv-x="1214" 
d="M1125 495l26 1l-65 -496h-993v15q60 42 60 313v1030q0 45 -74 50h-22v26h997l73 -451h-22q-44 125 -84.5 198.5t-99.5 121.5t-133.5 65t-189.5 17h-244v-614h226q322 0 413 39h4v-135h-4q-110 47 -413 47h-226v-673h263q80 3 137 12.5t107 30.5t84.5 51.5t66.5 81.5
t58 114t55 156z" />
    <glyph glyph-name="E" unicode="&#xca;" horiz-adv-x="1214" 
d="M1125 495l26 1l-65 -496h-993v15q60 42 60 313v1030q0 45 -74 50h-22v26h997l73 -451h-22q-44 125 -84.5 198.5t-99.5 121.5t-133.5 65t-189.5 17h-244v-614h226q322 0 413 39h4v-135h-4q-110 47 -413 47h-226v-673h263q80 3 137 12.5t107 30.5t84.5 51.5t66.5 81.5
t58 114t55 156z" />
    <glyph glyph-name="E" unicode="&#xc9;" horiz-adv-x="1214" 
d="M1125 495l26 1l-65 -496h-993v15q60 42 60 313v1030q0 45 -74 50h-22v26h997l73 -451h-22q-44 125 -84.5 198.5t-99.5 121.5t-133.5 65t-189.5 17h-244v-614h226q322 0 413 39h4v-135h-4q-110 47 -413 47h-226v-673h263q80 3 137 12.5t107 30.5t84.5 51.5t66.5 81.5
t58 114t55 156z" />
    <glyph glyph-name="E" unicode="&#xc8;" horiz-adv-x="1214" 
d="M1125 495l26 1l-65 -496h-993v15q60 42 60 313v1030q0 45 -74 50h-22v26h997l73 -451h-22q-44 125 -84.5 198.5t-99.5 121.5t-133.5 65t-189.5 17h-244v-614h226q322 0 413 39h4v-135h-4q-110 47 -413 47h-226v-673h263q80 3 137 12.5t107 30.5t84.5 51.5t66.5 81.5
t58 114t55 156z" />
    <glyph glyph-name="F" unicode="F" horiz-adv-x="1173" 
d="M598 1385h-244v-658h226q319 0 413 40h4v-136h-4q-113 48 -413 48h-226v-389q3 -235 60 -275v-15h-321v15q60 42 60 313v1030q0 45 -74 50h-22v25h1007l73 -450h-22q-44 124 -86 198.5t-103 122t-136.5 64.5t-191.5 17z" />
    <glyph glyph-name="G" unicode="G" horiz-adv-x="1490" 
d="M1411 695q14 -11 14 -15q0 -126 -22 -232t-70 -194t-120.5 -149t-176.5 -94.5t-235 -33.5q-346 0 -542 193t-196 537q0 224 99.5 396t270.5 263t385 91q164 0 281.5 -29.5t227.5 -91.5l22 -400l-22 -1q-94 247 -226 360t-301 113q-237 0 -376.5 -184t-139.5 -503
q0 -316 143 -506t392 -190q124 0 222 77t150 203t52 276q0 65 -69 65q-57 0 -159.5 -40t-171.5 -96h-10l-89 174v11h667z" />
    <glyph glyph-name="H" unicode="H" horiz-adv-x="1458" 
d="M1381 1419q-60 -42 -60 -313v-778q0 -271 60 -313v-15h-320v15q54 38 59 266v429q-50 13 -380.5 13t-385.5 -13v-382q0 -271 60 -313v-15h-321v15q60 42 60 313v1030q0 45 -74 50h-22v25h354v-14q-48 -34 -57 -201v-435q53 -11 384 -11t382 11v585q-9 35 -72 40h-22v25
h355v-14z" />
    <glyph glyph-name="I" unicode="I" horiz-adv-x="499" 
d="M414 1419q-60 -42 -60 -313v-778q0 -271 60 -313v-15h-321v15q60 42 60 313v1030q0 45 -74 50h-22v25h357v-14z" />
    <glyph glyph-name="I" unicode="&#xcf;" horiz-adv-x="499" 
d="M414 1419q-60 -42 -60 -313v-778q0 -271 60 -313v-15h-321v15q60 42 60 313v1030q0 45 -74 50h-22v25h357v-14z" />
    <glyph glyph-name="I" unicode="&#xce;" horiz-adv-x="499" 
d="M414 1419q-60 -42 -60 -313v-778q0 -271 60 -313v-15h-321v15q60 42 60 313v1030q0 45 -74 50h-22v25h357v-14z" />
    <glyph glyph-name="I" unicode="&#xcd;" horiz-adv-x="499" 
d="M414 1419q-60 -42 -60 -313v-778q0 -271 60 -313v-15h-321v15q60 42 60 313v1030q0 45 -74 50h-22v25h357v-14z" />
    <glyph glyph-name="I" unicode="&#xcc;" horiz-adv-x="499" 
d="M414 1419q-60 -42 -60 -313v-778q0 -271 60 -313v-15h-321v15q60 42 60 313v1030q0 45 -74 50h-22v25h357v-14z" />
    <glyph glyph-name="J" unicode="J" horiz-adv-x="485" 
d="M58 1433h355v-14q-60 -42 -60 -313v-657q0 -79 -7.5 -147.5t-19.5 -124t-33.5 -104t-44 -86.5t-56.5 -73t-65.5 -61t-76.5 -53.5t-84.5 -48t-93.5 -46.5l-13 24q78 48 131 101.5t85 110t49 136t22.5 158t5.5 198.5v937q-10 34 -72 38h-22v25z" />
    <glyph glyph-name="K" unicode="K" horiz-adv-x="1380" 
d="M354 328q0 -271 60 -313v-15h-321v15q60 42 60 313v1032q-2 43 -74 48h-22v25h357v-14q-60 -42 -60 -313v-778zM539 758l836 -758h-340q-273 398 -636 711v11q218 201 274 253q174 164 262 272t98 186h273v-10q-81 -67 -364 -311.5t-404 -345.5z" />
    <glyph glyph-name="L" unicode="L" horiz-adv-x="1173" 
d="M1102 470h25l-71 -470h-962v15q60 42 60 313v1030h-1q0 45 -74 50h-22v25h357v-14q-58 -41 -60 -297v-1073h250q100 3 167.5 22t126.5 67.5t105 126t99 205.5z" />
    <glyph glyph-name="M" unicode="M" horiz-adv-x="1619" 
d="M1450 1435l79 -1434h-213l-53 1343h-11l-469 -1252h-31l-503 1219h-12l-13 -708q-3 -210 7.5 -330.5t39.5 -271.5l-195 1q28 124 43 252.5t25 347.5l15 748q0 54 -60 54h-23v31h284l444 -1088h15l411 1088h220z" />
    <glyph glyph-name="N" unicode="N" horiz-adv-x="1456" 
d="M1358 1435q-42 -323 -42 -627q0 -66 0.5 -124t1.5 -113.5t2 -93t3.5 -90.5t3.5 -75.5t4.5 -77.5t4.5 -68.5t5.5 -76.5t5.5 -74v-16h-233l-873 1334h-17q-3 -522 5 -707q10 -221 25.5 -341.5t61.5 -283.5h-205q23 166 31 287.5t11 339.5l-8 716q0 52 -65 60h-19v30h335
l823 -1266l19 2q-6 478 -7 638q-1 351 -84 627h211z" />
    <glyph glyph-name="N" unicode="&#xd1;" horiz-adv-x="1456" 
d="M1358 1435q-42 -323 -42 -627q0 -66 0.5 -124t1.5 -113.5t2 -93t3.5 -90.5t3.5 -75.5t4.5 -77.5t4.5 -68.5t5.5 -76.5t5.5 -74v-16h-233l-873 1334h-17q-3 -522 5 -707q10 -221 25.5 -341.5t61.5 -283.5h-205q23 166 31 287.5t11 339.5l-8 716q0 52 -65 60h-19v30h335
l823 -1266l19 2q-6 478 -7 638q-1 351 -84 627h211z" />
    <glyph glyph-name="O" unicode="O" horiz-adv-x="1613" 
d="M819 1457q153 0 287 -50.5t233 -142t156 -229.5t57 -304q0 -169 -58.5 -311.5t-160 -239t-241 -150t-298.5 -53.5q-154 0 -287.5 50.5t-232.5 142t-156 229.5t-57 304q0 169 58.5 311.5t160 239t241 150t298.5 53.5zM816 32q147 0 268 83t193.5 239t72.5 355
q0 152 -42.5 282t-115.5 219.5t-173.5 140t-214.5 50.5q-110 0 -208.5 -49t-172 -136t-117 -215t-43.5 -277q0 -152 43.5 -282t118 -219.5t176 -140t215.5 -50.5z" />
    <glyph glyph-name="O" unicode="&#xd8;" horiz-adv-x="1613" 
d="M819 1457q153 0 287 -50.5t233 -142t156 -229.5t57 -304q0 -169 -58.5 -311.5t-160 -239t-241 -150t-298.5 -53.5q-154 0 -287.5 50.5t-232.5 142t-156 229.5t-57 304q0 169 58.5 311.5t160 239t241 150t298.5 53.5zM816 32q147 0 268 83t193.5 239t72.5 355
q0 152 -42.5 282t-115.5 219.5t-173.5 140t-214.5 50.5q-110 0 -208.5 -49t-172 -136t-117 -215t-43.5 -277q0 -152 43.5 -282t118 -219.5t176 -140t215.5 -50.5z" />
    <glyph glyph-name="O" unicode="&#xd6;" horiz-adv-x="1613" 
d="M819 1457q153 0 287 -50.5t233 -142t156 -229.5t57 -304q0 -169 -58.5 -311.5t-160 -239t-241 -150t-298.5 -53.5q-154 0 -287.5 50.5t-232.5 142t-156 229.5t-57 304q0 169 58.5 311.5t160 239t241 150t298.5 53.5zM816 32q147 0 268 83t193.5 239t72.5 355
q0 152 -42.5 282t-115.5 219.5t-173.5 140t-214.5 50.5q-110 0 -208.5 -49t-172 -136t-117 -215t-43.5 -277q0 -152 43.5 -282t118 -219.5t176 -140t215.5 -50.5z" />
    <glyph glyph-name="O" unicode="&#xd5;" horiz-adv-x="1613" 
d="M819 1457q153 0 287 -50.5t233 -142t156 -229.5t57 -304q0 -169 -58.5 -311.5t-160 -239t-241 -150t-298.5 -53.5q-154 0 -287.5 50.5t-232.5 142t-156 229.5t-57 304q0 169 58.5 311.5t160 239t241 150t298.5 53.5zM816 32q147 0 268 83t193.5 239t72.5 355
q0 152 -42.5 282t-115.5 219.5t-173.5 140t-214.5 50.5q-110 0 -208.5 -49t-172 -136t-117 -215t-43.5 -277q0 -152 43.5 -282t118 -219.5t176 -140t215.5 -50.5z" />
    <glyph glyph-name="O" unicode="&#xd4;" horiz-adv-x="1613" 
d="M819 1457q153 0 287 -50.5t233 -142t156 -229.5t57 -304q0 -169 -58.5 -311.5t-160 -239t-241 -150t-298.5 -53.5q-154 0 -287.5 50.5t-232.5 142t-156 229.5t-57 304q0 169 58.5 311.5t160 239t241 150t298.5 53.5zM816 32q147 0 268 83t193.5 239t72.5 355
q0 152 -42.5 282t-115.5 219.5t-173.5 140t-214.5 50.5q-110 0 -208.5 -49t-172 -136t-117 -215t-43.5 -277q0 -152 43.5 -282t118 -219.5t176 -140t215.5 -50.5z" />
    <glyph glyph-name="O" unicode="&#xd3;" horiz-adv-x="1613" 
d="M819 1457q153 0 287 -50.5t233 -142t156 -229.5t57 -304q0 -169 -58.5 -311.5t-160 -239t-241 -150t-298.5 -53.5q-154 0 -287.5 50.5t-232.5 142t-156 229.5t-57 304q0 169 58.5 311.5t160 239t241 150t298.5 53.5zM816 32q147 0 268 83t193.5 239t72.5 355
q0 152 -42.5 282t-115.5 219.5t-173.5 140t-214.5 50.5q-110 0 -208.5 -49t-172 -136t-117 -215t-43.5 -277q0 -152 43.5 -282t118 -219.5t176 -140t215.5 -50.5z" />
    <glyph glyph-name="O" unicode="&#xd2;" horiz-adv-x="1613" 
d="M819 1457q153 0 287 -50.5t233 -142t156 -229.5t57 -304q0 -169 -58.5 -311.5t-160 -239t-241 -150t-298.5 -53.5q-154 0 -287.5 50.5t-232.5 142t-156 229.5t-57 304q0 169 58.5 311.5t160 239t241 150t298.5 53.5zM816 32q147 0 268 83t193.5 239t72.5 355
q0 152 -42.5 282t-115.5 219.5t-173.5 140t-214.5 50.5q-110 0 -208.5 -49t-172 -136t-117 -215t-43.5 -277q0 -152 43.5 -282t118 -219.5t176 -140t215.5 -50.5z" />
    <glyph glyph-name="P" unicode="P" horiz-adv-x="1263" 
d="M670 1433q274 0 414.5 -101t140.5 -292q0 -202 -149.5 -321.5t-405.5 -119.5q-55 0 -171 4t-145 8v-347q6 -211 59 -249v-15h-319v15q56 39 59 271v1072q0 45 -74 50h-22v25h613zM637 645q186 0 281 95t95 276q0 175 -92.5 271t-280.5 96h-286v-724q23 -5 125.5 -9.5
t157.5 -4.5z" />
    <glyph glyph-name="Q" unicode="Q" horiz-adv-x="1646" 
d="M982 -131q119 -63 210 -89.5t186 -17t194 62.5v-291q-228 7 -367.5 67t-246.5 175q-92 98 -203 93q-80 -3 -148 -68.5t-117 -161.5l-118 112q94 74 214 130t227 82l-2 14q-205 1 -369.5 87t-262 252.5t-97.5 386.5q0 169 58.5 311.5t160 239t241 150t298.5 53.5
q153 0 287 -50.5t232.5 -142t155.5 -229.5t57 -304q0 -262 -133 -449t-355 -262q-226 -73 -275 -101v-11q89 6 173 -39zM284 724q0 -152 43.5 -282.5t118 -219.5t176 -139.5t214.5 -50.5q97 0 183.5 40.5t149.5 108.5t109.5 155t69.5 183t23 190q0 306 -156 499t-391 193
q-108 0 -206.5 -49t-172.5 -136t-117.5 -215t-43.5 -277z" />
    <glyph glyph-name="R" unicode="R" horiz-adv-x="1382" 
d="M880 664q-3 -12 0 -14q67 -48 180 -210.5t193 -301.5l80 -138h-335q-1 155 -48.5 290.5t-160.5 316.5q-9 14 -34 19t-108 5h-293v-305v2q0 -271 60 -313v-15h-320v15q56 40 59 283v1060q0 45 -74 50h-22v25h610q580 0 580 -362q0 -145 -109.5 -257t-257.5 -150zM696 679
q157 0 253 109.5t96 268.5t-97 243.5t-289 84.5h-305v-694q29 -5 157.5 -8.5t184.5 -3.5z" />
    <glyph glyph-name="S" unicode="S" horiz-adv-x="1304" 
d="M783 811q60 -23 95.5 -37t90.5 -39.5t88 -47.5t72 -55t60.5 -67t36.5 -79t15 -96q0 -183 -156.5 -298t-421.5 -115q-163 0 -327 62t-252 165l28 460h33q49 -285 193.5 -454.5t344.5 -169.5q154 0 265.5 84.5t112.5 204.5q0 41 -24 79.5t-59 67.5t-91 59t-103 49.5
t-111 43.5l-122 44q-52 19 -87 33t-86.5 38t-86.5 45.5t-74 54t-62.5 66t-39 77.5t-15.5 93q0 165 155.5 271.5t407.5 106.5q150 0 259 -18t208 -59l32 -404l-15 -1q-70 200 -210.5 316.5t-296.5 116.5q-168 0 -264.5 -64.5t-96.5 -169.5q0 -49 22.5 -91.5t53.5 -71.5
t88.5 -60t101 -49t116.5 -45z" />
    <glyph glyph-name="T" unicode="T" horiz-adv-x="1304" 
d="M1247 1433l30 -419l-16 -1q-35 89 -60 144.5t-55.5 102.5t-57.5 71t-68.5 40.5t-87 21.5t-113.5 5h-72v-1070q0 -271 60 -313v-15h-321v15q60 42 60 313v1057h-72q-63 0 -107 -5t-85 -21t-70 -40t-60 -67.5t-58 -99t-61 -138.5h-17l60 419h1171z" />
    <glyph glyph-name="U" unicode="U" horiz-adv-x="1392" 
d="M1101 1433h221q-58 -216 -58 -626v-311q0 -253 -144.5 -386t-425.5 -133q-263 0 -413 134.5t-150 380.5v866q0 45 -57 50h-17v25h275v-937q0 -225 107 -337t303 -112q422 0 422 440v320q0 416 -63 626z" />
    <glyph glyph-name="U" unicode="&#xdc;" horiz-adv-x="1392" 
d="M1101 1433h221q-58 -216 -58 -626v-311q0 -253 -144.5 -386t-425.5 -133q-263 0 -413 134.5t-150 380.5v866q0 45 -57 50h-17v25h275v-937q0 -225 107 -337t303 -112q422 0 422 440v320q0 416 -63 626z" />
    <glyph glyph-name="U" unicode="&#xdb;" horiz-adv-x="1392" 
d="M1101 1433h221q-58 -216 -58 -626v-311q0 -253 -144.5 -386t-425.5 -133q-263 0 -413 134.5t-150 380.5v866q0 45 -57 50h-17v25h275v-937q0 -225 107 -337t303 -112q422 0 422 440v320q0 416 -63 626z" />
    <glyph glyph-name="U" unicode="&#xda;" horiz-adv-x="1392" 
d="M1101 1433h221q-58 -216 -58 -626v-311q0 -253 -144.5 -386t-425.5 -133q-263 0 -413 134.5t-150 380.5v866q0 45 -57 50h-17v25h275v-937q0 -225 107 -337t303 -112q422 0 422 440v320q0 416 -63 626z" />
    <glyph glyph-name="U" unicode="&#xd9;" horiz-adv-x="1392" 
d="M1101 1433h221q-58 -216 -58 -626v-311q0 -253 -144.5 -386t-425.5 -133q-263 0 -413 134.5t-150 380.5v866q0 45 -57 50h-17v25h275v-937q0 -225 107 -337t303 -112q422 0 422 440v320q0 416 -63 626z" />
    <glyph glyph-name="V" unicode="V" horiz-adv-x="1333" 
d="M1109 1434h226q-92 -180 -291 -628l-357 -806h-39l-648 1434h261l443 -1152h19q172 404 230 544q63 153 98.5 275t44 184t13.5 149z" />
    <glyph glyph-name="W" unicode="W" horiz-adv-x="1945" 
d="M1691 1433h252q-152 -354 -253 -628l-290 -807h-23l-427 1085h-15l-359 -1085h-38l-513 1435h222l347 -1098l11 1l376 1097h19l425 -1098l9 1l173 481q51 139 75 252.5t23.5 197.5t-14.5 166z" />
    <glyph glyph-name="X" unicode="X" horiz-adv-x="1298" 
d="M1290 1434l-554 -684l546 -752h-277l-382 616q-242 -315 -269 -616h-321l539 694l-523 742h252l382 -628l100 127q104 152 155 266.5t46 234.5h306z" />
    <glyph glyph-name="Y" unicode="Y" horiz-adv-x="1251" 
d="M712 288q3 -232 59 -273v-15h-320v15q60 42 60 313v-6v333l-519 778h230l448 -695q66 90 104 149q118 181 167.5 309.5t48.5 236.5h272l-550 -789v-356z" />
    <glyph glyph-name="Y" unicode="&#x178;" horiz-adv-x="1251" 
d="M712 288q3 -232 59 -273v-15h-320v15q60 42 60 313v-6v333l-519 778h230l448 -695q66 90 104 149q118 181 167.5 309.5t48.5 236.5h272l-550 -789v-356z" />
    <glyph glyph-name="Y" unicode="&#xdd;" horiz-adv-x="1251" 
d="M712 288q3 -232 59 -273v-15h-320v15q60 42 60 313v-6v333l-519 778h230l448 -695q66 90 104 149q118 181 167.5 309.5t48.5 236.5h272l-550 -789v-356z" />
    <glyph glyph-name="Z" unicode="Z" horiz-adv-x="1249" 
d="M1179 540h24l-87 -540h-1073v21l858 1362h-132q-108 0 -189.5 -12.5t-154.5 -43t-130.5 -83t-108.5 -131t-97 -189.5h-19l103 509h991v-18l-849 -1364h168q79 0 144.5 7t120.5 24t99 37.5t83.5 54.5t70 67.5t62.5 85t57.5 98.5t58.5 115z" />
    <glyph glyph-name="bracketleft" unicode="[" horiz-adv-x="462" 
d="M565 1540v-49h-331q20 -227 20 -884t-20 -884h331v-49h-495v15q31 51 34 277v1282q-2 121 -9 183t-25 94v15h495z" />
    <glyph glyph-name="bracketright" unicode="]" horiz-adv-x="464" 
d="M-102 1491v49h495v-15q-18 -32 -25 -94t-9 -183v-1282q3 -226 34 -277v-15h-495v49h331q-19 227 -19 884t19 884h-331z" />
    <glyph glyph-name="asciicircum" unicode="^" horiz-adv-x="929" 
d="M469 1399h-10q-134 -350 -219 -601h-199v12q60 88 148.5 243.5t146.5 267.5l59 112h138q24 -48 63.5 -125t134 -244t156.5 -252v-14h-199q-37 117 -92 267t-91 242z" />
    <glyph glyph-name="underscore" unicode="_" horiz-adv-x="831" 
d="M61 -25q360 -19 748 0v-143q-150 12 -379 13t-369 -13v143z" />
    <glyph glyph-name="a" unicode="a" horiz-adv-x="1034" 
d="M892 264q0 -87 20 -139t76 -108v-17h-201q-24 22 -49.5 65t-25.5 72q-76 -72 -176 -114t-193 -42q-124 0 -199.5 66.5t-75.5 175.5q0 137 120.5 229.5t324.5 115.5q40 5 105 10.5t87 7.5v93q0 57 -4.5 103.5t-16.5 92.5t-32 77t-53.5 50t-78.5 19q-51 0 -91 -13
t-86.5 -50t-97 -108t-108.5 -182l-22 1l51 306q182 94 360 94q184 0 275 -91.5t91 -280.5v-433zM705 193v345q-107 -11 -184.5 -29.5t-140.5 -51t-95 -83t-32 -120.5q0 -98 52.5 -142.5t138.5 -44.5q66 0 135.5 32t125.5 94z" />
    <glyph glyph-name="a" unicode="&#xe5;" horiz-adv-x="1034" 
d="M892 264q0 -87 20 -139t76 -108v-17h-201q-24 22 -49.5 65t-25.5 72q-76 -72 -176 -114t-193 -42q-124 0 -199.5 66.5t-75.5 175.5q0 137 120.5 229.5t324.5 115.5q40 5 105 10.5t87 7.5v93q0 57 -4.5 103.5t-16.5 92.5t-32 77t-53.5 50t-78.5 19q-51 0 -91 -13
t-86.5 -50t-97 -108t-108.5 -182l-22 1l51 306q182 94 360 94q184 0 275 -91.5t91 -280.5v-433zM705 193v345q-107 -11 -184.5 -29.5t-140.5 -51t-95 -83t-32 -120.5q0 -98 52.5 -142.5t138.5 -44.5q66 0 135.5 32t125.5 94z" />
    <glyph glyph-name="a" unicode="&#xe4;" horiz-adv-x="1034" 
d="M892 264q0 -87 20 -139t76 -108v-17h-201q-24 22 -49.5 65t-25.5 72q-76 -72 -176 -114t-193 -42q-124 0 -199.5 66.5t-75.5 175.5q0 137 120.5 229.5t324.5 115.5q40 5 105 10.5t87 7.5v93q0 57 -4.5 103.5t-16.5 92.5t-32 77t-53.5 50t-78.5 19q-51 0 -91 -13
t-86.5 -50t-97 -108t-108.5 -182l-22 1l51 306q182 94 360 94q184 0 275 -91.5t91 -280.5v-433zM705 193v345q-107 -11 -184.5 -29.5t-140.5 -51t-95 -83t-32 -120.5q0 -98 52.5 -142.5t138.5 -44.5q66 0 135.5 32t125.5 94z" />
    <glyph glyph-name="a" unicode="&#xe3;" horiz-adv-x="1034" 
d="M892 264q0 -87 20 -139t76 -108v-17h-201q-24 22 -49.5 65t-25.5 72q-76 -72 -176 -114t-193 -42q-124 0 -199.5 66.5t-75.5 175.5q0 137 120.5 229.5t324.5 115.5q40 5 105 10.5t87 7.5v93q0 57 -4.5 103.5t-16.5 92.5t-32 77t-53.5 50t-78.5 19q-51 0 -91 -13
t-86.5 -50t-97 -108t-108.5 -182l-22 1l51 306q182 94 360 94q184 0 275 -91.5t91 -280.5v-433zM705 193v345q-107 -11 -184.5 -29.5t-140.5 -51t-95 -83t-32 -120.5q0 -98 52.5 -142.5t138.5 -44.5q66 0 135.5 32t125.5 94z" />
    <glyph glyph-name="a" unicode="&#xe2;" horiz-adv-x="1034" 
d="M892 264q0 -87 20 -139t76 -108v-17h-201q-24 22 -49.5 65t-25.5 72q-76 -72 -176 -114t-193 -42q-124 0 -199.5 66.5t-75.5 175.5q0 137 120.5 229.5t324.5 115.5q40 5 105 10.5t87 7.5v93q0 57 -4.5 103.5t-16.5 92.5t-32 77t-53.5 50t-78.5 19q-51 0 -91 -13
t-86.5 -50t-97 -108t-108.5 -182l-22 1l51 306q182 94 360 94q184 0 275 -91.5t91 -280.5v-433zM705 193v345q-107 -11 -184.5 -29.5t-140.5 -51t-95 -83t-32 -120.5q0 -98 52.5 -142.5t138.5 -44.5q66 0 135.5 32t125.5 94z" />
    <glyph glyph-name="a" unicode="&#xe1;" horiz-adv-x="1034" 
d="M892 264q0 -87 20 -139t76 -108v-17h-201q-24 22 -49.5 65t-25.5 72q-76 -72 -176 -114t-193 -42q-124 0 -199.5 66.5t-75.5 175.5q0 137 120.5 229.5t324.5 115.5q40 5 105 10.5t87 7.5v93q0 57 -4.5 103.5t-16.5 92.5t-32 77t-53.5 50t-78.5 19q-51 0 -91 -13
t-86.5 -50t-97 -108t-108.5 -182l-22 1l51 306q182 94 360 94q184 0 275 -91.5t91 -280.5v-433zM705 193v345q-107 -11 -184.5 -29.5t-140.5 -51t-95 -83t-32 -120.5q0 -98 52.5 -142.5t138.5 -44.5q66 0 135.5 32t125.5 94z" />
    <glyph glyph-name="a" unicode="&#xe0;" horiz-adv-x="1034" 
d="M892 264q0 -87 20 -139t76 -108v-17h-201q-24 22 -49.5 65t-25.5 72q-76 -72 -176 -114t-193 -42q-124 0 -199.5 66.5t-75.5 175.5q0 137 120.5 229.5t324.5 115.5q40 5 105 10.5t87 7.5v93q0 57 -4.5 103.5t-16.5 92.5t-32 77t-53.5 50t-78.5 19q-51 0 -91 -13
t-86.5 -50t-97 -108t-108.5 -182l-22 1l51 306q182 94 360 94q184 0 275 -91.5t91 -280.5v-433zM705 193v345q-107 -11 -184.5 -29.5t-140.5 -51t-95 -83t-32 -120.5q0 -98 52.5 -142.5t138.5 -44.5q66 0 135.5 32t125.5 94z" />
    <glyph glyph-name="b" unicode="b" horiz-adv-x="1165" 
d="M647 1069q193 0 321 -148.5t128 -380.5q0 -123 -40.5 -229.5t-109.5 -179t-162 -113.5t-196 -41q-218 0 -358 137l-12 -1l-89 -113h-14l-5 1362q0 51 -14.5 82t-56.5 66v21q16 1 43 3.5t91.5 19t105.5 41.5h18v-691q155 165 350 165zM571 24q146 0 235.5 132.5
t89.5 365.5q0 232 -84.5 349.5t-223.5 117.5q-74 0 -160 -54t-131 -131v-597q38 -89 109.5 -136t164.5 -47z" />
    <glyph glyph-name="c" unicode="c" horiz-adv-x="1075" 
d="M957 384l55 -216q-37 -37 -71 -64.5t-87 -59.5t-121.5 -49.5t-146.5 -17.5q-225 0 -371.5 147.5t-146.5 387.5q0 123 42.5 228t115 176.5t169 112t202.5 40.5q129 0 229.5 -36.5t152.5 -88.5l-1 -227h-11q-54 152 -150 228t-224 76q-145 0 -234 -124.5t-89 -341.5
q0 -124 28 -224t75.5 -160.5t105 -92.5t119.5 -32q112 0 196 78t149 260h14z" />
    <glyph glyph-name="c" unicode="&#xe7;" horiz-adv-x="1075" 
d="M957 384l55 -216q-37 -37 -71 -64.5t-87 -59.5t-121.5 -49.5t-146.5 -17.5q-225 0 -371.5 147.5t-146.5 387.5q0 123 42.5 228t115 176.5t169 112t202.5 40.5q129 0 229.5 -36.5t152.5 -88.5l-1 -227h-11q-54 152 -150 228t-224 76q-145 0 -234 -124.5t-89 -341.5
q0 -124 28 -224t75.5 -160.5t105 -92.5t119.5 -32q112 0 196 78t149 260h14z" />
    <glyph glyph-name="d" unicode="d" horiz-adv-x="1196" 
d="M1052 302q0 -83 17.5 -136t69.5 -149v-17h-201q-50 75 -63 149q-159 -172 -359 -172q-193 0 -320.5 148.5t-127.5 378.5q0 123 40.5 229.5t109.5 179.5t162 114.5t196 41.5q168 0 289 -108v401q0 51 -14.5 82t-56.5 66v21q16 1 43 3.5t91.5 19t105.5 41.5h18v-1293z
M574 46q130 0 292 170l-1 609q-20 84 -98 134t-173 50q-148 0 -237 -126.5t-89 -358.5q0 -233 83.5 -355.5t222.5 -122.5z" />
    <glyph glyph-name="e" unicode="e" horiz-adv-x="1085" 
d="M567 1069q102 0 189.5 -40.5t144 -106.5t88.5 -147.5t32 -165.5q0 -7 -6 -17t-14 -10l-725 1v-43q0 -126 26 -223.5t70.5 -155t99 -86.5t116.5 -29q106 0 191.5 84t138.5 254h15l49 -254q-208 -150 -410 -150q-222 0 -362 145.5t-140 382.5q0 255 135.5 408t361.5 153z
M845 630q9 174 -64 282.5t-199 108.5q-125 0 -207 -109t-97 -282h567z" />
    <glyph glyph-name="e" unicode="&#xeb;" horiz-adv-x="1085" 
d="M567 1069q102 0 189.5 -40.5t144 -106.5t88.5 -147.5t32 -165.5q0 -7 -6 -17t-14 -10l-725 1v-43q0 -126 26 -223.5t70.5 -155t99 -86.5t116.5 -29q106 0 191.5 84t138.5 254h15l49 -254q-208 -150 -410 -150q-222 0 -362 145.5t-140 382.5q0 255 135.5 408t361.5 153z
M845 630q9 174 -64 282.5t-199 108.5q-125 0 -207 -109t-97 -282h567z" />
    <glyph glyph-name="e" unicode="&#xea;" horiz-adv-x="1085" 
d="M567 1069q102 0 189.5 -40.5t144 -106.5t88.5 -147.5t32 -165.5q0 -7 -6 -17t-14 -10l-725 1v-43q0 -126 26 -223.5t70.5 -155t99 -86.5t116.5 -29q106 0 191.5 84t138.5 254h15l49 -254q-208 -150 -410 -150q-222 0 -362 145.5t-140 382.5q0 255 135.5 408t361.5 153z
M845 630q9 174 -64 282.5t-199 108.5q-125 0 -207 -109t-97 -282h567z" />
    <glyph glyph-name="e" unicode="&#xe9;" horiz-adv-x="1085" 
d="M567 1069q102 0 189.5 -40.5t144 -106.5t88.5 -147.5t32 -165.5q0 -7 -6 -17t-14 -10l-725 1v-43q0 -126 26 -223.5t70.5 -155t99 -86.5t116.5 -29q106 0 191.5 84t138.5 254h15l49 -254q-208 -150 -410 -150q-222 0 -362 145.5t-140 382.5q0 255 135.5 408t361.5 153z
M845 630q9 174 -64 282.5t-199 108.5q-125 0 -207 -109t-97 -282h567z" />
    <glyph glyph-name="e" unicode="&#xe8;" horiz-adv-x="1085" 
d="M567 1069q102 0 189.5 -40.5t144 -106.5t88.5 -147.5t32 -165.5q0 -7 -6 -17t-14 -10l-725 1v-43q0 -126 26 -223.5t70.5 -155t99 -86.5t116.5 -29q106 0 191.5 84t138.5 254h15l49 -254q-208 -150 -410 -150q-222 0 -362 145.5t-140 382.5q0 255 135.5 408t361.5 153z
M845 630q9 174 -64 282.5t-199 108.5q-125 0 -207 -109t-97 -282h567z" />
    <glyph glyph-name="f" unicode="f" horiz-adv-x="665" 
d="M519 1574q169 0 305 -70l-93 -187l-11 -1q-52 131 -96 175.5t-100 44.5q-85 0 -121 -70.5t-36 -225.5v-195h288v-49h-288v-789q1 -79 9.5 -121t30.5 -70v-16h-266v16q22 28 30.5 73t8.5 133v774h-151v49h151v185q0 177 89 260.5t250 83.5z" />
    <glyph glyph-name="g" unicode="g" horiz-adv-x="1050" 
d="M662 181q166 -14 254 -84.5t88 -192.5q0 -164 -146 -270t-375 -106q-126 0 -235.5 38t-176.5 107.5t-67 154.5l177 141l14 -10q-13 -58 10 -139q30 -104 116.5 -165t202.5 -61q143 0 231 67.5t88 166.5q0 80 -49 122t-154 49l-188 14q-160 19 -238.5 71.5t-78.5 131.5
q0 58 29 99t100 77q-88 48 -143.5 129.5t-55.5 183.5q0 160 119.5 262t301.5 102q87 0 150 -16.5t129 -65.5q25 71 78 114.5t161 69.5l11 -172q-159 27 -214 -46q101 -99 101 -246q0 -159 -120 -260.5t-301 -101.5q-75 0 -146 22q-7 -3 -16 -7q-55 -37 -55 -80
q0 -34 41.5 -58t101.5 -29zM256 707q0 -141 62 -227.5t166 -86.5q106 0 166.5 85t60.5 227q0 141 -62 228.5t-166 87.5q-105 0 -166 -86t-61 -228z" />
    <glyph glyph-name="h" unicode="h" horiz-adv-x="1140" 
d="M1026 222q0 -87 9 -132.5t31 -73.5v-16h-266v16q23 29 32 74.5t9 131.5v479q0 124 -59 201t-172 77q-76 0 -155 -46t-148 -125v-586q0 -87 9 -132.5t31 -73.5v-16h-266v16q22 28 30.5 73t8.5 133v1140q0 51 -14.5 82t-56.5 66v21q16 1 43 3.5t91.5 19t105.5 41.5h18v-696
l14 1q90 86 173.5 127.5t196.5 41.5q335 0 335 -372v-475z" />
    <glyph glyph-name="i" unicode="i" horiz-adv-x="444" 
d="M324 222q0 -88 8.5 -133t30.5 -73v-16h-266v16q22 28 31 73.5t9 132.5v613q0 51 -14.5 81.5t-56.5 65.5v22q16 1 43 3.5t91.5 18.5t105.5 41h18v-845zM214 1233q-49 0 -83.5 34.5t-34.5 83.5t34.5 83.5t83.5 34.5t84 -34.5t35 -83.5t-35 -83.5t-84 -34.5z" />
    <glyph glyph-name="i" unicode="&#xef;" horiz-adv-x="444" 
d="M324 222q0 -88 8.5 -133t30.5 -73v-16h-266v16q22 28 31 73.5t9 132.5v613q0 51 -14.5 81.5t-56.5 65.5v22q16 1 43 3.5t91.5 18.5t105.5 41h18v-845zM214 1233q-49 0 -83.5 34.5t-34.5 83.5t34.5 83.5t83.5 34.5t84 -34.5t35 -83.5t-35 -83.5t-84 -34.5z" />
    <glyph glyph-name="i" unicode="&#xee;" horiz-adv-x="444" 
d="M324 222q0 -88 8.5 -133t30.5 -73v-16h-266v16q22 28 31 73.5t9 132.5v613q0 51 -14.5 81.5t-56.5 65.5v22q16 1 43 3.5t91.5 18.5t105.5 41h18v-845zM214 1233q-49 0 -83.5 34.5t-34.5 83.5t34.5 83.5t83.5 34.5t84 -34.5t35 -83.5t-35 -83.5t-84 -34.5z" />
    <glyph glyph-name="i" unicode="&#xed;" horiz-adv-x="444" 
d="M324 222q0 -88 8.5 -133t30.5 -73v-16h-266v16q22 28 31 73.5t9 132.5v613q0 51 -14.5 81.5t-56.5 65.5v22q16 1 43 3.5t91.5 18.5t105.5 41h18v-845zM214 1233q-49 0 -83.5 34.5t-34.5 83.5t34.5 83.5t83.5 34.5t84 -34.5t35 -83.5t-35 -83.5t-84 -34.5z" />
    <glyph glyph-name="i" unicode="&#xec;" horiz-adv-x="444" 
d="M324 222q0 -88 8.5 -133t30.5 -73v-16h-266v16q22 28 31 73.5t9 132.5v613q0 51 -14.5 81.5t-56.5 65.5v22q16 1 43 3.5t91.5 18.5t105.5 41h18v-845zM214 1233q-49 0 -83.5 34.5t-34.5 83.5t34.5 83.5t83.5 34.5t84 -34.5t35 -83.5t-35 -83.5t-84 -34.5z" />
    <glyph glyph-name="j" unicode="j" horiz-adv-x="434" 
d="M62 1004q16 1 43 3.5t91.5 18.5t105.5 41h18v-1087q0 -93 -35.5 -170.5t-96.5 -129.5t-135.5 -84.5t-159.5 -44.5l-8 24q117 25 182.5 129t65.5 263v867q0 51 -14.5 82t-56.5 66v22zM211 1233q-49 0 -83.5 34.5t-34.5 83.5t34.5 83.5t83.5 34.5t84 -34.5t35 -83.5
t-35 -83.5t-84 -34.5z" />
    <glyph glyph-name="k" unicode="k" horiz-adv-x="1060" 
d="M467 581l573 -581h-260q-155 239 -422 565l-1 15q44 37 133 116q80 71 155 174.5t105 175.5h253v-13q-69 -45 -203.5 -156.5t-233.5 -200.5l-100 -88zM307 222q0 -87 9 -132.5t31 -73.5v-16h-266v16q22 28 30.5 73t8.5 131v1142q0 51 -14.5 82t-56.5 66v21q16 1 43 3.5
t91.5 19t105.5 41.5h18v-1373z" />
    <glyph glyph-name="l" unicode="l" horiz-adv-x="428" 
d="M307 222q0 -87 9 -132.5t31 -73.5v-16h-266v16q22 28 30.5 73t8.5 131v1142q0 51 -14.5 82t-56.5 66v21q16 1 43 3.5t91.5 19t105.5 41.5h18v-1373z" />
    <glyph glyph-name="m" unicode="m" horiz-adv-x="1839" 
d="M1723 222q0 -86 9 -131.5t32 -74.5v-16h-266v16q22 28 31 73.5t9 132.5v479q0 132 -59.5 205t-170.5 73q-162 0 -294 -181q8 -47 8 -125v-452q0 -87 8.5 -131.5t31.5 -73.5v-16h-266v16q36 46 39 163v522q0 140 -56 208.5t-154 68.5q-89 0 -156 -36.5t-147 -123.5v-596
q0 -88 8.5 -133t30.5 -73v-16h-266v16q22 28 31 73.5t9 132.5v619q0 51 -14.5 81.5t-56.5 65.5v22q16 1 43 3.5t91.5 19t105.5 41.5h18v-174h10q80 86 162 127.5t196 41.5q106 0 189.5 -49.5t117.5 -143.5q94 103 182 148t211 45q333 0 333 -372v-475z" />
    <glyph glyph-name="n" unicode="n" horiz-adv-x="1155" 
d="M1040 201q1 -135 40 -185v-16h-267v16q22 28 31 73.5t9 132.5v479q0 124 -57 201t-173 77q-76 0 -155 -45.5t-146 -125.5v-586q0 -88 8.5 -133t30.5 -73v-16h-266v16q21 26 29 65t10 113v653q-1 48 -16 78.5t-55 64.5v21q17 1 44 3.5t91.5 19t105.5 41.5h18v-177l7 1
q88 83 176.5 126.5t197.5 43.5q337 0 337 -372v-496z" />
    <glyph glyph-name="n" unicode="&#xf1;" horiz-adv-x="1155" 
d="M1040 201q1 -135 40 -185v-16h-267v16q22 28 31 73.5t9 132.5v479q0 124 -57 201t-173 77q-76 0 -155 -45.5t-146 -125.5v-586q0 -88 8.5 -133t30.5 -73v-16h-266v16q21 26 29 65t10 113v653q-1 48 -16 78.5t-55 64.5v21q17 1 44 3.5t91.5 19t105.5 41.5h18v-177l7 1
q88 83 176.5 126.5t197.5 43.5q337 0 337 -372v-496z" />
    <glyph glyph-name="o" unicode="o" horiz-adv-x="1193" 
d="M605 1069q228 0 374 -147t146 -394q0 -246 -152.5 -398.5t-385.5 -152.5q-229 0 -374 146t-145 393t152 400t385 153zM599 25q148 0 236.5 134t88.5 357q0 226 -92 365.5t-239 139.5q-148 0 -236.5 -134.5t-88.5 -358.5q0 -225 92 -364t239 -139z" />
    <glyph glyph-name="o" unicode="&#xf8;" horiz-adv-x="1193" 
d="M605 1069q228 0 374 -147t146 -394q0 -246 -152.5 -398.5t-385.5 -152.5q-229 0 -374 146t-145 393t152 400t385 153zM599 25q148 0 236.5 134t88.5 357q0 226 -92 365.5t-239 139.5q-148 0 -236.5 -134.5t-88.5 -358.5q0 -225 92 -364t239 -139z" />
    <glyph glyph-name="o" unicode="&#xf6;" horiz-adv-x="1193" 
d="M605 1069q228 0 374 -147t146 -394q0 -246 -152.5 -398.5t-385.5 -152.5q-229 0 -374 146t-145 393t152 400t385 153zM599 25q148 0 236.5 134t88.5 357q0 226 -92 365.5t-239 139.5q-148 0 -236.5 -134.5t-88.5 -358.5q0 -225 92 -364t239 -139z" />
    <glyph glyph-name="o" unicode="&#xf5;" horiz-adv-x="1193" 
d="M605 1069q228 0 374 -147t146 -394q0 -246 -152.5 -398.5t-385.5 -152.5q-229 0 -374 146t-145 393t152 400t385 153zM599 25q148 0 236.5 134t88.5 357q0 226 -92 365.5t-239 139.5q-148 0 -236.5 -134.5t-88.5 -358.5q0 -225 92 -364t239 -139z" />
    <glyph glyph-name="o" unicode="&#xf4;" horiz-adv-x="1193" 
d="M605 1069q228 0 374 -147t146 -394q0 -246 -152.5 -398.5t-385.5 -152.5q-229 0 -374 146t-145 393t152 400t385 153zM599 25q148 0 236.5 134t88.5 357q0 226 -92 365.5t-239 139.5q-148 0 -236.5 -134.5t-88.5 -358.5q0 -225 92 -364t239 -139z" />
    <glyph glyph-name="o" unicode="&#xf3;" horiz-adv-x="1193" 
d="M605 1069q228 0 374 -147t146 -394q0 -246 -152.5 -398.5t-385.5 -152.5q-229 0 -374 146t-145 393t152 400t385 153zM599 25q148 0 236.5 134t88.5 357q0 226 -92 365.5t-239 139.5q-148 0 -236.5 -134.5t-88.5 -358.5q0 -225 92 -364t239 -139z" />
    <glyph glyph-name="o" unicode="&#xf2;" horiz-adv-x="1193" 
d="M605 1069q228 0 374 -147t146 -394q0 -246 -152.5 -398.5t-385.5 -152.5q-229 0 -374 146t-145 393t152 400t385 153zM599 25q148 0 236.5 134t88.5 357q0 226 -92 365.5t-239 139.5q-148 0 -236.5 -134.5t-88.5 -358.5q0 -225 92 -364t239 -139z" />
    <glyph glyph-name="p" unicode="p" horiz-adv-x="1208" 
d="M668 1069q95 0 182 -39.5t151.5 -108t102.5 -168t38 -213.5q0 -123 -44.5 -229.5t-118.5 -179t-170.5 -113.5t-199.5 -41q-168 0 -289 108v-333q0 -30 8 -72t16 -70l8 -27v-13q-8 -2 -40.5 -7.5t-55 -10t-53.5 -13.5t-52 -20h-18v1323q0 50 -15 81.5t-57 66.5v21
q17 1 44 3.5t91.5 19t105.5 41.5h18v-84v-93l7 1q160 170 341 170zM591 42q151 0 250.5 128t99.5 351q0 113 -26.5 202t-72.5 144t-104.5 83.5t-126.5 28.5q-70 0 -145.5 -46.5t-145.5 -124.5v-572q37 -90 109 -142t162 -52z" />
    <glyph glyph-name="q" unicode="q" horiz-adv-x="1189" 
d="M1077 -248q0 -30 8.5 -72t16.5 -70l8 -27l-1 -13q-8 -2 -40.5 -7.5t-55 -10t-53.5 -13.5t-52 -20h-18v621q-156 -163 -348 -163q-95 0 -182 39.5t-152 108t-103.5 167.5t-38.5 212q0 123 45 230t119 179.5t171 114t200 41.5q204 0 346 -120l120 118h10v-1315zM890 251
v577q-37 88 -109.5 140.5t-162.5 52.5q-149 0 -250.5 -136.5t-101.5 -360.5q0 -113 27.5 -203.5t74 -147.5t107 -87t128.5 -30q78 0 160.5 52.5t126.5 142.5z" />
    <glyph glyph-name="r" unicode="r" horiz-adv-x="811" 
d="M726 1080l56 -293l-23 -7q-39 77 -91.5 109t-122.5 32q-109 0 -165 -83.5t-58 -225.5v-390q0 -88 8.5 -133t30.5 -73v-16h-266v16q20 26 28.5 64.5t10.5 109.5v659q-1 47 -16 77t-55 64v21q58 2 123 18l63 20q29 11 55 26h18l-9 -246l9 1q45 118 146.5 184t257.5 66z" />
    <glyph glyph-name="s" unicode="s" horiz-adv-x="989" 
d="M574 597q130 -50 172 -72q167 -90 168 -237q0 -140 -103.5 -225.5t-301.5 -85.5q-258 0 -427 127l35 254h16q48 -115 118 -192.5t141 -109t144 -31.5q104 0 165 60.5t59 138.5q-1 42 -15 72.5t-53 55.5t-62 35t-89 35q-18 7 -28 11l-88 34l-63 25.5t-62 28t-63.5 35
t-53 41t-46.5 51t-28 60.5t-12 74q0 126 108.5 206.5t288.5 80.5q111 0 197.5 -27t173.5 -87l20 -236h-21q-99 168 -187 235t-203 67q-94 0 -160 -44t-66 -114q0 -44 19.5 -81t57.5 -65t75 -47t89 -40z" />
    <glyph glyph-name="t" unicode="t" horiz-adv-x="798" 
d="M705 276l61 -212q-59 -41 -124 -64t-167 -23q-134 0 -215.5 79t-81.5 208v718h-151v47q126 4 155 25q33 24 73 106t63 152l24 69h23l-1 -335h355l2 -160h-9q-209 93 -347 93v-729q0 -105 41 -162.5t99 -57.5q54 0 100 56.5t88 190.5z" />
    <glyph glyph-name="u" unicode="u" horiz-adv-x="1169" 
d="M1030 264q0 -87 16 -135.5t65 -111.5v-17h-179q-48 76 -72 158h-11q-76 -82 -175.5 -131.5t-208.5 -49.5q-337 0 -337 370v512q-2 42 -17.5 70.5t-53.5 60.5v21q16 1 43 3.5t91.5 19t105.5 41.5h18v-583v-149q0 -6 1 -16t7 -39t15.5 -55t30 -58t47.5 -55t70 -39t96 -16
q68 0 143 54t118 135l-1 588q0 30 -8 72t-16 70l-8 27v13q8 2 40.5 7.5t55 10t53.5 13.5t52 20h19v-811z" />
    <glyph glyph-name="u" unicode="&#xfc;" horiz-adv-x="1169" 
d="M1030 264q0 -87 16 -135.5t65 -111.5v-17h-179q-48 76 -72 158h-11q-76 -82 -175.5 -131.5t-208.5 -49.5q-337 0 -337 370v512q-2 42 -17.5 70.5t-53.5 60.5v21q16 1 43 3.5t91.5 19t105.5 41.5h18v-583v-149q0 -6 1 -16t7 -39t15.5 -55t30 -58t47.5 -55t70 -39t96 -16
q68 0 143 54t118 135l-1 588q0 30 -8 72t-16 70l-8 27v13q8 2 40.5 7.5t55 10t53.5 13.5t52 20h19v-811z" />
    <glyph glyph-name="u" unicode="&#xfb;" horiz-adv-x="1169" 
d="M1030 264q0 -87 16 -135.5t65 -111.5v-17h-179q-48 76 -72 158h-11q-76 -82 -175.5 -131.5t-208.5 -49.5q-337 0 -337 370v512q-2 42 -17.5 70.5t-53.5 60.5v21q16 1 43 3.5t91.5 19t105.5 41.5h18v-583v-149q0 -6 1 -16t7 -39t15.5 -55t30 -58t47.5 -55t70 -39t96 -16
q68 0 143 54t118 135l-1 588q0 30 -8 72t-16 70l-8 27v13q8 2 40.5 7.5t55 10t53.5 13.5t52 20h19v-811z" />
    <glyph glyph-name="u" unicode="&#xfa;" horiz-adv-x="1169" 
d="M1030 264q0 -87 16 -135.5t65 -111.5v-17h-179q-48 76 -72 158h-11q-76 -82 -175.5 -131.5t-208.5 -49.5q-337 0 -337 370v512q-2 42 -17.5 70.5t-53.5 60.5v21q16 1 43 3.5t91.5 19t105.5 41.5h18v-583v-149q0 -6 1 -16t7 -39t15.5 -55t30 -58t47.5 -55t70 -39t96 -16
q68 0 143 54t118 135l-1 588q0 30 -8 72t-16 70l-8 27v13q8 2 40.5 7.5t55 10t53.5 13.5t52 20h19v-811z" />
    <glyph glyph-name="u" unicode="&#xf9;" horiz-adv-x="1169" 
d="M1030 264q0 -87 16 -135.5t65 -111.5v-17h-179q-48 76 -72 158h-11q-76 -82 -175.5 -131.5t-208.5 -49.5q-337 0 -337 370v512q-2 42 -17.5 70.5t-53.5 60.5v21q16 1 43 3.5t91.5 19t105.5 41.5h18v-583v-149q0 -6 1 -16t7 -39t15.5 -55t30 -58t47.5 -55t70 -39t96 -16
q68 0 143 54t118 135l-1 588q0 30 -8 72t-16 70l-8 27v13q8 2 40.5 7.5t55 10t53.5 13.5t52 20h19v-811z" />
    <glyph glyph-name="v" unicode="v" horiz-adv-x="985" 
d="M736 1046h229l-450 -1046h-14l-487 1046h201l330 -757h10q45 115 60 163q106 332 121 594z" />
    <glyph glyph-name="w" unicode="w" horiz-adv-x="1509" 
d="M1245 1046h244q-27 -60 -56 -130t-50.5 -125t-62 -160.5t-70.5 -182.5l-171 -448h-16l-322 733l-13 -1l-258 -732h-19l-433 1046h222l264 -718h9l255 718h12l322 -736h9q41 102 54 141q29 85 47.5 162t27 125.5t10 115.5t0.5 93.5t-5 98.5z" />
    <glyph glyph-name="x" unicode="x" horiz-adv-x="1052" 
d="M599 578l434 -577h-246l-287 467l-101 -133q-78 -111 -111.5 -186.5t-43.5 -148.5l-228 1l433 522l-406 523h218l295 -407q85 106 146 219.5t81 187.5h230z" />
    <glyph glyph-name="y" unicode="y" horiz-adv-x="968" 
d="M741 1046h210q-24 -49 -46 -98t-48.5 -110.5t-44.5 -105t-54.5 -131.5t-57.5 -139l-212 -511q-75 -180 -193.5 -293.5t-257.5 -113.5l-41 181l12 6q160 8 245 62t160 189l38 95l-440 969h200l300 -817l8 -1l102 238q124 301 120 580z" />
    <glyph glyph-name="y" unicode="&#xff;" horiz-adv-x="968" 
d="M741 1046h210q-24 -49 -46 -98t-48.5 -110.5t-44.5 -105t-54.5 -131.5t-57.5 -139l-212 -511q-75 -180 -193.5 -293.5t-257.5 -113.5l-41 181l12 6q160 8 245 62t160 189l38 95l-440 969h200l300 -817l8 -1l102 238q124 301 120 580z" />
    <glyph glyph-name="y" unicode="&#xfd;" horiz-adv-x="968" 
d="M741 1046h210q-24 -49 -46 -98t-48.5 -110.5t-44.5 -105t-54.5 -131.5t-57.5 -139l-212 -511q-75 -180 -193.5 -293.5t-257.5 -113.5l-41 181l12 6q160 8 245 62t160 189l38 95l-440 969h200l300 -817l8 -1l102 238q124 301 120 580z" />
    <glyph glyph-name="z" unicode="z" horiz-adv-x="960" 
d="M891 414h13l-78 -414h-777v19l616 974h-139q-158 0 -263 -77t-169 -268l-19 -1l81 399h735v-16l-582 -981h140q98 0 172.5 38.5t135.5 114.5t134 212z" />
    <glyph glyph-name="braceleft" unicode="{" horiz-adv-x="557" 
d="M362 -87q-3 -144 45 -176.5t197 6.5v-68q-206 -23 -299.5 48.5t-93.5 227.5q0 89 21.5 230.5t21.5 205.5q0 85 -52 145t-143 64v21q91 4 143 64t52 145q0 64 -21.5 205.5t-21.5 230.5q0 156 93.5 227.5t299.5 48.5v-68q-149 39 -197 6.5t-45 -176.5q1 -79 18.5 -219.5
t17.5 -209.5q0 -51 -2 -82.5t-9 -66t-20.5 -55t-38 -37t-60.5 -23.5q36 -7 60.5 -23.5t38 -37t20.5 -55.5t9 -66.5t2 -82.5q0 -69 -17.5 -209.5t-18.5 -219.5z" />
    <glyph glyph-name="verticalbar" unicode="|" horiz-adv-x="368" 
d="M254 1540q-16 -353 -16 -812t16 -853h-143q23 392 22.5 848t-22.5 817h143z" />
    <glyph glyph-name="braceright" unicode="}" horiz-adv-x="583" 
d="M-25 -257q149 -39 197 -6.5t45 176.5q-1 79 -18 219t-17 210q0 51 2 82.5t9 66.5t20.5 55.5t38 37t60.5 23.5q-36 7 -60.5 23.5t-38 37t-20.5 55t-9 66t-2 82.5q0 70 17 210t18 219q3 144 -45 176.5t-197 -6.5v68q206 23 300 -48.5t94 -227.5q0 -89 -22 -230.5
t-22 -205.5q0 -85 52 -145t143 -64v-21q-91 -4 -143 -64t-52 -145q0 -64 22 -205.5t22 -230.5q0 -156 -94 -227.5t-300 -48.5v68z" />
    <glyph glyph-name="asciitilde" unicode="~" horiz-adv-x="940" 
d="M864 881l24 -8q-17 -144 -77 -230t-149 -86q-53 0 -116 31t-111.5 67.5t-106 67.5t-100.5 31q-61 0 -97 -39.5t-56 -137.5l-24 8q18 144 78 230t149 86q53 0 116 -31t111.5 -67.5t106 -67.5t100.5 -31q61 0 97 39.5t55 137.5z" />
    <glyph glyph-name="nonbreakingspace" unicode="&#xa0;" horiz-adv-x="720" 
 />
    <glyph glyph-name="softhyphen" unicode="&#xad;" 
 />
    <glyph glyph-name="quoteleft" unicode="&#x2018;" horiz-adv-x="358" 
d="M239 1234q-51 -43 -52 -85q-2 -67 61 -174l-20 -12q-149 174 -167 320q-10 80 26 127t95 47q49 0 83.5 -34.5t34.5 -83.5q0 -33 -15.5 -56t-45.5 -49z" />
    <glyph glyph-name="quoteright" unicode="&#x2019;" horiz-adv-x="358" 
d="M176 1457q59 0 94.5 -47t25.5 -127q-18 -147 -166 -320l-21 12q64 109 62 174q-1 41 -53 85q-30 26 -45.5 49t-15.5 56q0 49 35 83.5t84 34.5z" />
    <glyph glyph-name="quotedblleft" unicode="&#x201c;" horiz-adv-x="688" 
d="M568 1234q-52 -44 -53 -85q-2 -65 62 -174l-21 -12q-148 173 -166 320q-10 80 25.5 127t94.5 47q49 0 84 -34.5t35 -83.5q0 -33 -15.5 -56t-45.5 -49zM182 1457q49 0 83.5 -34.5t34.5 -83.5q0 -33 -15.5 -56t-45.5 -49q-51 -43 -52 -85q-2 -67 61 -174l-20 -12
q-149 174 -167 320q-10 80 26 127t95 47z" />
    <glyph glyph-name="quotedblright" unicode="&#x201d;" horiz-adv-x="688" 
d="M176 1457q59 0 94.5 -47t25.5 -127q-18 -147 -166 -320l-21 12q64 109 62 174q-1 41 -53 85q-30 26 -45.5 49t-15.5 56q0 49 35 83.5t84 34.5zM504 1457q59 0 95 -47t26 -127q-18 -146 -167 -320l-20 12q64 109 62 174q-1 41 -53 85q-30 26 -45.5 49t-15.5 56
q0 49 34.5 83.5t83.5 34.5z" />
    <glyph glyph-name="O.alt1" unicode="&#xf004;" horiz-adv-x="1716" 
d="M845 1128q2 -2 16.5 -2t15.5 2q62 -202 62 -410t-62 -410h-32q-62 202 -62 410t62 410zM871 1457q153 0 287 -50.5t232.5 -142t155.5 -229.5t57 -304q0 -169 -58.5 -311.5t-160 -239t-241 -150t-298.5 -53.5q-154 0 -287.5 50.5t-232.5 142t-155.5 229.5t-56.5 304
q0 169 58.5 311.5t160 239t241 150t298.5 53.5zM867 32q147 0 268 83t193.5 239t72.5 355q0 152 -42.5 282t-115.5 219.5t-173.5 140t-214.5 50.5q-110 0 -208.5 -49t-172 -136t-117 -215t-43.5 -277q0 -152 43.5 -282t118 -219.5t176 -140t215.5 -50.5z" />
    </font>
</defs>
</svg>
