<svg width="85" height="28" viewBox="0 0 85 28" fill="none" xmlns="http://www.w3.org/2000/svg">
<rect x="0.639098" y="0.639098" width="83.7218" height="26.203" rx="13.1015" fill="#D6F4FB" stroke="#E9F4FF" stroke-width="1.2782"/>
<path d="M35.7626 15.2831H33.2753L32.8637 16.4731H31.5484L33.7942 10.2189H35.2526L37.4984 16.4731H36.1742L35.7626 15.2831ZM35.4226 14.281L34.519 11.6684L33.6153 14.281H35.4226ZM38.0158 13.9947C38.0158 13.4817 38.1202 13.0344 38.3289 12.6526C38.5377 12.2649 38.827 11.9667 39.1968 11.7579C39.5666 11.5431 39.9902 11.4358 40.4673 11.4358C41.0817 11.4358 41.5888 11.5909 41.9884 11.901C42.394 12.2052 42.6654 12.6347 42.8026 13.1895H41.4516C41.38 12.9747 41.2577 12.8077 41.0847 12.6884C40.9177 12.5631 40.7089 12.5005 40.4584 12.5005C40.1005 12.5005 39.8172 12.6317 39.6084 12.8942C39.3996 13.1507 39.2952 13.5175 39.2952 13.9947C39.2952 14.466 39.3996 14.8328 39.6084 15.0952C39.8172 15.3517 40.1005 15.48 40.4584 15.48C40.9654 15.48 41.2965 15.2533 41.4516 14.8H42.8026C42.6654 15.3368 42.394 15.7633 41.9884 16.0795C41.5828 16.3956 41.0758 16.5537 40.4673 16.5537C39.9902 16.5537 39.5666 16.4493 39.1968 16.2405C38.827 16.0258 38.5377 15.7275 38.3289 15.3458C38.1202 14.9581 38.0158 14.5077 38.0158 13.9947ZM45.1787 12.5452V14.9431C45.1787 15.1102 45.2175 15.2324 45.295 15.31C45.3785 15.3816 45.5157 15.4174 45.7066 15.4174H46.2882V16.4731H45.5008C44.445 16.4731 43.9171 15.9602 43.9171 14.9342V12.5452H43.3266V11.5163H43.9171V10.2905H45.1787V11.5163H46.2882V12.5452H45.1787ZM47.8244 10.9258C47.6037 10.9258 47.4188 10.8572 47.2697 10.72C47.1265 10.5768 47.0549 10.4009 47.0549 10.1921C47.0549 9.98332 47.1265 9.81034 47.2697 9.67314C47.4188 9.52999 47.6037 9.45841 47.8244 9.45841C48.0451 9.45841 48.227 9.52999 48.3702 9.67314C48.5193 9.81034 48.5939 9.98332 48.5939 10.1921C48.5939 10.4009 48.5193 10.5768 48.3702 10.72C48.227 10.8572 48.0451 10.9258 47.8244 10.9258ZM48.4418 11.5163V16.4731H47.1891V11.5163H48.4418ZM51.7462 15.3189L52.9988 11.5163H54.332L52.4978 16.4731H50.9767L49.1515 11.5163H50.4936L51.7462 15.3189ZM54.7134 13.9768C54.7134 13.4758 54.8119 13.0314 55.0087 12.6437C55.2115 12.256 55.4829 11.9577 55.8229 11.7489C56.1689 11.5402 56.5536 11.4358 56.9771 11.4358C57.347 11.4358 57.6691 11.5103 57.9434 11.6595C58.2238 11.8086 58.4475 11.9965 58.6145 12.2231V11.5163H59.8761V16.4731H58.6145V15.7484C58.4534 15.981 58.2298 16.1749 57.9434 16.33C57.6631 16.4791 57.338 16.5537 56.9682 16.5537C56.5506 16.5537 56.1689 16.4463 55.8229 16.2316C55.4829 16.0168 55.2115 15.7156 55.0087 15.3279C54.8119 14.9342 54.7134 14.4838 54.7134 13.9768ZM58.6145 13.9947C58.6145 13.6905 58.5548 13.431 58.4355 13.2163C58.3163 12.9956 58.1552 12.8286 57.9524 12.7152C57.7496 12.596 57.5319 12.5363 57.2992 12.5363C57.0666 12.5363 56.8519 12.593 56.655 12.7063C56.4582 12.8196 56.2971 12.9867 56.1719 13.2074C56.0526 13.4221 55.9929 13.6786 55.9929 13.9768C55.9929 14.2751 56.0526 14.5375 56.1719 14.7642C56.2971 14.9849 56.4582 15.1549 56.655 15.2742C56.8578 15.3935 57.0726 15.4531 57.2992 15.4531C57.5319 15.4531 57.7496 15.3965 57.9524 15.2831C58.1552 15.1638 58.3163 14.9968 58.4355 14.7821C58.5548 14.5614 58.6145 14.2989 58.6145 13.9947ZM62.5579 12.5452V14.9431C62.5579 15.1102 62.5967 15.2324 62.6742 15.31C62.7577 15.3816 62.8949 15.4174 63.0858 15.4174H63.6674V16.4731H62.88C61.8242 16.4731 61.2963 15.9602 61.2963 14.9342V12.5452H60.7058V11.5163H61.2963V10.2905H62.5579V11.5163H63.6674V12.5452H62.5579ZM69.1762 13.8874C69.1762 14.0663 69.1643 14.2274 69.1404 14.3705H65.5168C65.5466 14.7284 65.6719 15.0088 65.8926 15.2116C66.1133 15.4144 66.3847 15.5158 66.7068 15.5158C67.172 15.5158 67.5031 15.316 67.6999 14.9163H69.051C68.9078 15.3935 68.6334 15.7872 68.2278 16.0974C67.8222 16.4016 67.3241 16.5537 66.7336 16.5537C66.2564 16.5537 65.8269 16.4493 65.4452 16.2405C65.0694 16.0258 64.7741 15.7245 64.5594 15.3368C64.3506 14.9491 64.2462 14.5017 64.2462 13.9947C64.2462 13.4817 64.3506 13.0314 64.5594 12.6437C64.7682 12.256 65.0604 11.9577 65.4362 11.7489C65.812 11.5402 66.2445 11.4358 66.7336 11.4358C67.2048 11.4358 67.6254 11.5372 67.9952 11.74C68.371 11.9428 68.6603 12.2321 68.8631 12.6079C69.0719 12.9777 69.1762 13.4042 69.1762 13.8874ZM67.8789 13.5295C67.8729 13.2074 67.7566 12.9509 67.5299 12.76C67.3033 12.5631 67.0259 12.4647 66.6978 12.4647C66.3876 12.4647 66.1252 12.5602 65.9104 12.751C65.7017 12.936 65.5734 13.1954 65.5257 13.5295H67.8789Z" fill="#1B1B50"/>
<path fill-rule="evenodd" clip-rule="evenodd" d="M22.782 7.9173H12.5564C11.4699 7.9173 10.6391 8.74812 10.6391 9.83459V17.5038C10.6391 18.5902 11.4699 19.4211 12.5564 19.4211H22.782C23.8684 19.4211 24.6992 18.5902 24.6992 17.5038V9.83459C24.6992 8.74812 23.8684 7.9173 22.782 7.9173ZM12.5564 9.19549H22.782C23.0376 9.19549 23.2293 9.32331 23.3571 9.57895L17.6692 13.5414L11.9812 9.57895C12.109 9.32331 12.3008 9.19549 12.5564 9.19549ZM12.5564 18.1429H22.782C23.1654 18.1429 23.4211 17.8872 23.4211 17.5038V11.0489L18.0526 14.8195C17.9248 14.8835 17.797 14.9474 17.6692 14.9474C17.5414 14.9474 17.4135 14.8835 17.2857 14.8195L11.9173 11.0489V17.5038C11.9173 17.8872 12.1729 18.1429 12.5564 18.1429Z" fill="#1B1B50"/>
<mask id="mask0_5790_151" style="mask-type:alpha" maskUnits="userSpaceOnUse" x="10" y="7" width="15" height="13">
<path fill-rule="evenodd" clip-rule="evenodd" d="M22.782 7.9173H12.5564C11.4699 7.9173 10.6391 8.74812 10.6391 9.83459V17.5038C10.6391 18.5902 11.4699 19.4211 12.5564 19.4211H22.782C23.8684 19.4211 24.6992 18.5902 24.6992 17.5038V9.83459C24.6992 8.74812 23.8684 7.9173 22.782 7.9173ZM12.5564 9.19549H22.782C23.0376 9.19549 23.2293 9.32331 23.3571 9.57895L17.6692 13.5414L11.9812 9.57895C12.109 9.32331 12.3008 9.19549 12.5564 9.19549ZM12.5564 18.1429H22.782C23.1654 18.1429 23.4211 17.8872 23.4211 17.5038V11.0489L18.0526 14.8195C17.9248 14.8835 17.797 14.9474 17.6692 14.9474C17.5414 14.9474 17.4135 14.8835 17.2857 14.8195L11.9173 11.0489V17.5038C11.9173 17.8872 12.1729 18.1429 12.5564 18.1429Z" fill="white"/>
</mask>
<g mask="url(#mask0_5790_151)">
</g>
</svg>
