<svg width="327" height="78" viewBox="0 0 327 78" fill="none" xmlns="http://www.w3.org/2000/svg">
<g filter="url(#filter0_d_5790_120)">
<path d="M6 37C6 18.7746 20.7746 4 39 4H288C306.225 4 321 18.7746 321 37C321 55.2254 306.225 70 288 70H39C20.7746 70 6 55.2254 6 37Z" fill="url(#paint0_linear_5790_120)" shape-rendering="crispEdges"/>
<path d="M49.6023 30.1374V38.7171C49.6023 39.6572 49.8473 40.3788 50.3372 40.8819C50.827 41.3718 51.5155 41.6167 52.4026 41.6167C53.303 41.6167 53.9981 41.3718 54.488 40.8819C54.9779 40.3788 55.2228 39.6572 55.2228 38.7171V30.1374H58.0232V38.6973C58.0232 39.8756 57.765 40.8753 57.2486 41.6962C56.7455 42.5038 56.0636 43.1129 55.203 43.5233C54.3556 43.9338 53.4089 44.139 52.3629 44.139C51.3302 44.139 50.3901 43.9338 49.5427 43.5233C48.7086 43.1129 48.0466 42.5038 47.5567 41.6962C47.0668 40.8753 46.8219 39.8756 46.8219 38.6973V30.1374H49.6023ZM63.4901 34.5861C63.8475 34.083 64.3374 33.6659 64.9597 33.3349C65.5953 32.9907 66.3169 32.8186 67.1245 32.8186C68.0646 32.8186 68.912 33.0503 69.6667 33.5137C70.4346 33.9771 71.037 34.6391 71.474 35.4997C71.9241 36.3471 72.1492 37.3335 72.1492 38.4589C72.1492 39.5844 71.9241 40.584 71.474 41.4579C71.037 42.3185 70.4346 42.9871 69.6667 43.4638C68.912 43.9404 68.0646 44.1787 67.1245 44.1787C66.3169 44.1787 65.6019 44.0132 64.9796 43.6822C64.3705 43.3512 63.874 42.9342 63.4901 42.431V49.2432H60.7096V32.9973H63.4901V34.5861ZM69.3092 38.4589C69.3092 37.7969 69.1702 37.2276 68.8921 36.7509C68.6273 36.261 68.2698 35.8903 67.8196 35.6387C67.3827 35.3872 66.9061 35.2614 66.3897 35.2614C65.8866 35.2614 65.4099 35.3938 64.9597 35.6586C64.5228 35.9102 64.1653 36.2809 63.8873 36.7708C63.6225 37.2607 63.4901 37.8366 63.4901 38.4987C63.4901 39.1607 63.6225 39.7366 63.8873 40.2265C64.1653 40.7164 64.5228 41.0938 64.9597 41.3586C65.4099 41.6101 65.8866 41.7359 66.3897 41.7359C66.9061 41.7359 67.3827 41.6035 67.8196 41.3387C68.2698 41.0739 68.6273 40.6965 68.8921 40.2067C69.1702 39.7168 69.3092 39.1342 69.3092 38.4589ZM78.4794 32.8186C79.3003 32.8186 80.0219 32.9841 80.6442 33.3151C81.2665 33.6328 81.7564 34.0499 82.1139 34.5663V32.9973H84.9142V44.0794C84.9142 45.0989 84.709 46.0059 84.2986 46.8003C83.8881 47.608 83.2724 48.2435 82.4515 48.7069C81.6306 49.1836 80.6376 49.4219 79.4725 49.4219C77.9101 49.4219 76.6258 49.0578 75.6195 48.3296C74.6265 47.6014 74.0638 46.6083 73.9314 45.3505H76.692C76.8376 45.8536 77.1488 46.2509 77.6254 46.5421C78.1153 46.8467 78.7045 46.9989 79.393 46.9989C80.2007 46.9989 80.8561 46.754 81.3592 46.2641C81.8623 45.7874 82.1139 45.0592 82.1139 44.0794V42.3714C81.7564 42.8878 81.2599 43.3181 80.6244 43.6624C80.0021 44.0066 79.2871 44.1787 78.4794 44.1787C77.5526 44.1787 76.7052 43.9404 75.9373 43.4638C75.1694 42.9871 74.5603 42.3185 74.1101 41.4579C73.6732 40.584 73.4547 39.5844 73.4547 38.4589C73.4547 37.3467 73.6732 36.3603 74.1101 35.4997C74.5603 34.6391 75.1627 33.9771 75.9174 33.5137C76.6854 33.0503 77.5394 32.8186 78.4794 32.8186ZM82.1139 38.4987C82.1139 37.8234 81.9815 37.2474 81.7167 36.7708C81.4519 36.2809 81.0944 35.9102 80.6442 35.6586C80.1941 35.3938 79.7108 35.2614 79.1944 35.2614C78.678 35.2614 78.2014 35.3872 77.7645 35.6387C77.3275 35.8903 76.97 36.261 76.692 36.7509C76.4272 37.2276 76.2948 37.7969 76.2948 38.4589C76.2948 39.1209 76.4272 39.7035 76.692 40.2067C76.97 40.6965 77.3275 41.0739 77.7645 41.3387C78.2146 41.6035 78.6913 41.7359 79.1944 41.7359C79.7108 41.7359 80.1941 41.6101 80.6442 41.3586C81.0944 41.0938 81.4519 40.723 81.7167 40.2464C81.9815 39.7565 82.1139 39.1739 82.1139 38.4987ZM90.4103 34.7053C90.7678 34.1227 91.2312 33.6659 91.8005 33.3349C92.3831 33.0039 93.0451 32.8384 93.7866 32.8384V35.7579H93.0517C92.1779 35.7579 91.5159 35.9631 91.0657 36.3736C90.6288 36.784 90.4103 37.499 90.4103 38.5185V44H87.6298V32.9973H90.4103V34.7053ZM94.9444 38.4589C94.9444 37.3467 95.1629 36.3603 95.5998 35.4997C96.05 34.6391 96.6524 33.9771 97.4071 33.5137C98.175 33.0503 99.029 32.8186 99.9691 32.8186C100.79 32.8186 101.505 32.9841 102.114 33.3151C102.736 33.6461 103.233 34.0631 103.604 34.5663V32.9973H106.404V44H103.604V42.3913C103.246 42.9077 102.75 43.338 102.114 43.6822C101.492 44.0132 100.77 44.1787 99.9492 44.1787C99.0224 44.1787 98.175 43.9404 97.4071 43.4638C96.6524 42.9871 96.05 42.3185 95.5998 41.4579C95.1629 40.584 94.9444 39.5844 94.9444 38.4589ZM103.604 38.4987C103.604 37.8234 103.471 37.2474 103.206 36.7708C102.942 36.2809 102.584 35.9102 102.134 35.6586C101.684 35.3938 101.2 35.2614 100.684 35.2614C100.168 35.2614 99.691 35.3872 99.2541 35.6387C98.8172 35.8903 98.4597 36.261 98.1816 36.7509C97.9168 37.2276 97.7844 37.7969 97.7844 38.4589C97.7844 39.1209 97.9168 39.7035 98.1816 40.2067C98.4597 40.6965 98.8172 41.0739 99.2541 41.3387C99.7043 41.6035 100.181 41.7359 100.684 41.7359C101.2 41.7359 101.684 41.6101 102.134 41.3586C102.584 41.0938 102.942 40.723 103.206 40.2464C103.471 39.7565 103.604 39.1739 103.604 38.4987ZM108.405 38.4589C108.405 37.3467 108.623 36.3603 109.06 35.4997C109.51 34.6391 110.119 33.9771 110.887 33.5137C111.655 33.0503 112.509 32.8186 113.449 32.8186C114.164 32.8186 114.846 32.9774 115.495 33.2952C116.143 33.5997 116.66 34.0102 117.044 34.5266V29.3033H119.864V44H117.044V42.3714C116.7 42.9143 116.216 43.3512 115.594 43.6822C114.972 44.0132 114.25 44.1787 113.429 44.1787C112.502 44.1787 111.655 43.9404 110.887 43.4638C110.119 42.9871 109.51 42.3185 109.06 41.4579C108.623 40.584 108.405 39.5844 108.405 38.4589ZM117.064 38.4987C117.064 37.8234 116.931 37.2474 116.666 36.7708C116.402 36.2809 116.044 35.9102 115.594 35.6586C115.144 35.3938 114.661 35.2614 114.144 35.2614C113.628 35.2614 113.151 35.3872 112.714 35.6387C112.277 35.8903 111.92 36.261 111.642 36.7509C111.377 37.2276 111.245 37.7969 111.245 38.4589C111.245 39.1209 111.377 39.7035 111.642 40.2067C111.92 40.6965 112.277 41.0739 112.714 41.3387C113.164 41.6035 113.641 41.7359 114.144 41.7359C114.661 41.7359 115.144 41.6101 115.594 41.3586C116.044 41.0938 116.402 40.723 116.666 40.2464C116.931 39.7565 117.064 39.1739 117.064 38.4987ZM132.808 38.2603C132.808 38.6575 132.781 39.015 132.728 39.3328H124.685C124.751 40.1272 125.029 40.7495 125.519 41.1997C126.009 41.6498 126.611 41.8749 127.326 41.8749C128.359 41.8749 129.094 41.4314 129.531 40.5443H132.53C132.212 41.6035 131.603 42.4774 130.703 43.1659C129.802 43.8411 128.697 44.1787 127.386 44.1787C126.327 44.1787 125.373 43.947 124.526 43.4836C123.692 43.007 123.036 42.3383 122.56 41.4777C122.096 40.6171 121.865 39.6241 121.865 38.4987C121.865 37.36 122.096 36.3603 122.56 35.4997C123.023 34.6391 123.672 33.9771 124.506 33.5137C125.34 33.0503 126.3 32.8186 127.386 32.8186C128.432 32.8186 129.365 33.0436 130.186 33.4938C131.02 33.944 131.662 34.5861 132.113 35.4203C132.576 36.2412 132.808 37.1879 132.808 38.2603ZM129.928 37.4659C129.915 36.7509 129.657 36.1816 129.153 35.7579C128.65 35.321 128.035 35.1025 127.306 35.1025C126.618 35.1025 126.035 35.3144 125.559 35.738C125.095 36.1485 124.811 36.7244 124.705 37.4659H129.928ZM150.096 32.9973L143.284 49.2034H140.324L142.708 43.722L138.299 32.9973H141.417L144.257 40.6833L147.136 32.9973H150.096ZM156.48 44.1787C155.421 44.1787 154.468 43.947 153.62 43.4836C152.773 43.007 152.104 42.3383 151.614 41.4777C151.138 40.6171 150.899 39.6241 150.899 38.4987C150.899 37.3732 151.144 36.3802 151.634 35.5196C152.137 34.659 152.819 33.9969 153.68 33.5335C154.54 33.0569 155.5 32.8186 156.56 32.8186C157.619 32.8186 158.579 33.0569 159.439 33.5335C160.3 33.9969 160.975 34.659 161.465 35.5196C161.968 36.3802 162.22 37.3732 162.22 38.4987C162.22 39.6241 161.962 40.6171 161.445 41.4777C160.942 42.3383 160.254 43.007 159.38 43.4836C158.519 43.947 157.553 44.1787 156.48 44.1787ZM156.48 41.7558C156.983 41.7558 157.453 41.6366 157.89 41.3983C158.34 41.1467 158.698 40.776 158.963 40.2861C159.228 39.7962 159.36 39.2004 159.36 38.4987C159.36 37.4527 159.082 36.6516 158.526 36.0955C157.983 35.5262 157.314 35.2415 156.52 35.2415C155.725 35.2415 155.057 35.5262 154.514 36.0955C153.984 36.6516 153.72 37.4527 153.72 38.4987C153.72 39.5446 153.978 40.3523 154.494 40.9216C155.024 41.4777 155.686 41.7558 156.48 41.7558ZM174.646 32.9973V44H171.846V42.6098C171.489 43.0864 171.019 43.4638 170.436 43.7418C169.867 44.0066 169.244 44.139 168.569 44.139C167.709 44.139 166.947 43.9603 166.285 43.6028C165.623 43.2321 165.1 42.6958 164.716 41.9941C164.345 41.2791 164.16 40.4317 164.16 39.452V32.9973H166.941V39.0547C166.941 39.9286 167.159 40.6039 167.596 41.0805C168.033 41.5439 168.629 41.7756 169.383 41.7756C170.151 41.7756 170.754 41.5439 171.191 41.0805C171.628 40.6039 171.846 39.9286 171.846 39.0547V32.9973H174.646ZM180.17 34.7053C180.528 34.1227 180.991 33.6659 181.561 33.3349C182.143 33.0039 182.805 32.8384 183.547 32.8384V35.7579H182.812C181.938 35.7579 181.276 35.9631 180.826 36.3736C180.389 36.784 180.17 37.499 180.17 38.5185V44H177.39V32.9973H180.17V34.7053ZM194.362 44.1787C193.462 44.1787 192.654 44.0199 191.939 43.7021C191.224 43.3711 190.655 42.9275 190.231 42.3714C189.821 41.8153 189.596 41.1997 189.556 40.5244H192.356C192.409 40.9481 192.614 41.299 192.972 41.577C193.343 41.8551 193.799 41.9941 194.342 41.9941C194.872 41.9941 195.282 41.8882 195.574 41.6763C195.878 41.4645 196.03 41.1931 196.03 40.862C196.03 40.5046 195.845 40.2398 195.474 40.0676C195.117 39.8823 194.541 39.6837 193.746 39.4718C192.926 39.2732 192.25 39.068 191.721 38.8561C191.204 38.6443 190.754 38.3199 190.37 37.883C189.999 37.446 189.814 36.8569 189.814 36.1154C189.814 35.5063 189.986 34.9502 190.33 34.4471C190.688 33.944 191.191 33.5468 191.84 33.2555C192.502 32.9642 193.276 32.8186 194.164 32.8186C195.474 32.8186 196.52 33.1496 197.302 33.8116C198.083 34.4604 198.513 35.3408 198.592 36.453H195.931C195.891 36.0161 195.706 35.6718 195.375 35.4203C195.057 35.1555 194.627 35.0231 194.084 35.0231C193.581 35.0231 193.19 35.1158 192.912 35.3011C192.648 35.4865 192.515 35.7447 192.515 36.0757C192.515 36.4464 192.701 36.7311 193.071 36.9297C193.442 37.115 194.018 37.307 194.799 37.5056C195.594 37.7042 196.249 37.9095 196.765 38.1213C197.282 38.3331 197.725 38.6642 198.096 39.1143C198.48 39.5513 198.679 40.1338 198.692 40.862C198.692 41.4976 198.513 42.0669 198.156 42.57C197.811 43.0732 197.308 43.4704 196.646 43.7617C195.997 44.0397 195.236 44.1787 194.362 44.1787ZM211.202 38.2603C211.202 38.6575 211.176 39.015 211.123 39.3328H203.079C203.146 40.1272 203.424 40.7495 203.913 41.1997C204.403 41.6498 205.006 41.8749 205.721 41.8749C206.754 41.8749 207.488 41.4314 207.925 40.5443H210.924C210.606 41.6035 209.997 42.4774 209.097 43.1659C208.197 43.8411 207.091 44.1787 205.78 44.1787C204.721 44.1787 203.768 43.947 202.92 43.4836C202.086 43.007 201.431 42.3383 200.954 41.4777C200.491 40.6171 200.259 39.6241 200.259 38.4987C200.259 37.36 200.491 36.3603 200.954 35.4997C201.418 34.6391 202.066 33.9771 202.901 33.5137C203.735 33.0503 204.695 32.8186 205.78 32.8186C206.826 32.8186 207.76 33.0436 208.581 33.4938C209.415 33.944 210.057 34.5861 210.507 35.4203C210.971 36.2412 211.202 37.1879 211.202 38.2603ZM208.323 37.4659C208.309 36.7509 208.051 36.1816 207.548 35.7579C207.045 35.321 206.429 35.1025 205.701 35.1025C205.012 35.1025 204.43 35.3144 203.953 35.738C203.49 36.1485 203.205 36.7244 203.099 37.4659H208.323ZM216.012 29.3033V44H213.232V29.3033H216.012ZM223.804 35.2813H221.877V44H219.057V35.2813H217.806V32.9973H219.057V32.4412C219.057 31.0907 219.441 30.0977 220.209 29.4621C220.977 28.8266 222.136 28.5287 223.685 28.5684V30.912C223.009 30.8987 222.539 31.0113 222.275 31.2496C222.01 31.4879 221.877 31.9182 221.877 32.5405V32.9973H223.804V35.2813ZM234.066 35.738V38.0816H225.646V35.738H234.066ZM236.47 38.4987C236.47 37.36 236.701 36.367 237.165 35.5196C237.628 34.659 238.27 33.9969 239.091 33.5335C239.912 33.0569 240.852 32.8186 241.911 32.8186C243.275 32.8186 244.401 33.1628 245.288 33.8513C246.188 34.5266 246.79 35.4799 247.095 36.7112H244.096C243.937 36.2346 243.666 35.8638 243.282 35.599C242.911 35.321 242.448 35.182 241.892 35.182C241.097 35.182 240.468 35.4732 240.005 36.0558C239.541 36.6251 239.31 37.4394 239.31 38.4987C239.31 39.5446 239.541 40.3589 240.005 40.9415C240.468 41.5108 241.097 41.7955 241.892 41.7955C243.017 41.7955 243.752 41.2924 244.096 40.2861H247.095C246.79 41.4777 246.188 42.4244 245.288 43.1261C244.387 43.8279 243.262 44.1787 241.911 44.1787C240.852 44.1787 239.912 43.947 239.091 43.4836C238.27 43.007 237.628 42.345 237.165 41.4976C236.701 40.637 236.47 39.6373 236.47 38.4987ZM248.417 38.4589C248.417 37.3467 248.635 36.3603 249.072 35.4997C249.522 34.6391 250.125 33.9771 250.88 33.5137C251.648 33.0503 252.502 32.8186 253.442 32.8186C254.262 32.8186 254.977 32.9841 255.587 33.3151C256.209 33.6461 256.705 34.0631 257.076 34.5663V32.9973H259.876V44H257.076V42.3913C256.719 42.9077 256.222 43.338 255.587 43.6822C254.964 44.0132 254.243 44.1787 253.422 44.1787C252.495 44.1787 251.648 43.9404 250.88 43.4638C250.125 42.9871 249.522 42.3185 249.072 41.4579C248.635 40.584 248.417 39.5844 248.417 38.4589ZM257.076 38.4987C257.076 37.8234 256.944 37.2474 256.679 36.7708C256.414 36.2809 256.057 35.9102 255.606 35.6586C255.156 35.3938 254.673 35.2614 254.157 35.2614C253.64 35.2614 253.164 35.3872 252.727 35.6387C252.29 35.8903 251.932 36.261 251.654 36.7509C251.389 37.2276 251.257 37.7969 251.257 38.4589C251.257 39.1209 251.389 39.7035 251.654 40.2067C251.932 40.6965 252.29 41.0739 252.727 41.3387C253.177 41.6035 253.653 41.7359 254.157 41.7359C254.673 41.7359 255.156 41.6101 255.606 41.3586C256.057 41.0938 256.414 40.723 256.679 40.2464C256.944 39.7565 257.076 39.1739 257.076 38.4987ZM265.372 34.7053C265.73 34.1227 266.193 33.6659 266.763 33.3349C267.345 33.0039 268.007 32.8384 268.749 32.8384V35.7579H268.014C267.14 35.7579 266.478 35.9631 266.028 36.3736C265.591 36.784 265.372 37.499 265.372 38.5185V44H262.592V32.9973H265.372V34.7053ZM280.85 38.2603C280.85 38.6575 280.823 39.015 280.77 39.3328H272.727C272.793 40.1272 273.071 40.7495 273.561 41.1997C274.051 41.6498 274.653 41.8749 275.368 41.8749C276.401 41.8749 277.136 41.4314 277.573 40.5443H280.572C280.254 41.6035 279.645 42.4774 278.744 43.1659C277.844 43.8411 276.739 44.1787 275.428 44.1787C274.369 44.1787 273.415 43.947 272.568 43.4836C271.734 43.007 271.078 42.3383 270.602 41.4777C270.138 40.6171 269.907 39.6241 269.907 38.4987C269.907 37.36 270.138 36.3603 270.602 35.4997C271.065 34.6391 271.714 33.9771 272.548 33.5137C273.382 33.0503 274.342 32.8186 275.428 32.8186C276.474 32.8186 277.407 33.0436 278.228 33.4938C279.062 33.944 279.704 34.5861 280.155 35.4203C280.618 36.2412 280.85 37.1879 280.85 38.2603ZM277.97 37.4659C277.957 36.7509 277.698 36.1816 277.195 35.7579C276.692 35.321 276.077 35.1025 275.348 35.1025C274.66 35.1025 274.077 35.3144 273.601 35.738C273.137 36.1485 272.853 36.7244 272.747 37.4659H277.97Z" fill="white"/>
</g>
<defs>
<filter id="filter0_d_5790_120" x="0" y="0" width="327" height="78" filterUnits="userSpaceOnUse" color-interpolation-filters="sRGB">
<feFlood flood-opacity="0" result="BackgroundImageFix"/>
<feColorMatrix in="SourceAlpha" type="matrix" values="0 0 0 0 0 0 0 0 0 0 0 0 0 0 0 0 0 0 127 0" result="hardAlpha"/>
<feOffset dy="2"/>
<feGaussianBlur stdDeviation="3"/>
<feComposite in2="hardAlpha" operator="out"/>
<feColorMatrix type="matrix" values="0 0 0 0 1 0 0 0 0 0.0862745 0 0 0 0 0.25098 0 0 0 0.33 0"/>
<feBlend mode="normal" in2="BackgroundImageFix" result="effect1_dropShadow_5790_120"/>
<feBlend mode="normal" in="SourceGraphic" in2="effect1_dropShadow_5790_120" result="shape"/>
</filter>
<linearGradient id="paint0_linear_5790_120" x1="163.5" y1="4" x2="125.136" y2="-90.4109" gradientUnits="userSpaceOnUse">
<stop stop-color="#F66E6E"/>
<stop offset="1" stop-color="#F66E6E" stop-opacity="0"/>
</linearGradient>
</defs>
</svg>
