<svg width="287" height="43" viewBox="0 0 287 43" fill="none" xmlns="http://www.w3.org/2000/svg">
<rect width="287" height="43" rx="21.5" fill="black"/>
<path d="M27.3963 21.1C27.3963 20.1387 27.6109 19.28 28.0403 18.524C28.4789 17.7587 29.0716 17.166 29.8183 16.746C30.5743 16.3167 31.4189 16.102 32.3523 16.102C33.4443 16.102 34.4009 16.382 35.2223 16.942C36.0436 17.502 36.6176 18.2767 36.9443 19.266H34.6903C34.4663 18.7993 34.1489 18.4493 33.7383 18.216C33.3369 17.9827 32.8703 17.866 32.3383 17.866C31.7689 17.866 31.2603 18.0013 30.8123 18.272C30.3736 18.5333 30.0283 18.9067 29.7763 19.392C29.5336 19.8773 29.4123 20.4467 29.4123 21.1C29.4123 21.744 29.5336 22.3133 29.7763 22.808C30.0283 23.2933 30.3736 23.6713 30.8123 23.942C31.2603 24.2033 31.7689 24.334 32.3383 24.334C32.8703 24.334 33.3369 24.2173 33.7383 23.984C34.1489 23.7413 34.4663 23.3867 34.6903 22.92H36.9443C36.6176 23.9187 36.0436 24.698 35.2223 25.258C34.4103 25.8087 33.4536 26.084 32.3523 26.084C31.4189 26.084 30.5743 25.874 29.8183 25.454C29.0716 25.0247 28.4789 24.432 28.0403 23.676C27.6109 22.92 27.3963 22.0613 27.3963 21.1ZM40.5783 19.448C40.8303 19.0373 41.157 18.7153 41.5583 18.482C41.969 18.2487 42.4357 18.132 42.9583 18.132V20.19H42.4403C41.8243 20.19 41.3577 20.3347 41.0403 20.624C40.7323 20.9133 40.5783 21.4173 40.5783 22.136V26H38.6183V18.244H40.5783V19.448ZM51.4885 21.954C51.4885 22.234 51.4698 22.486 51.4325 22.71H45.7625C45.8092 23.27 46.0052 23.7087 46.3505 24.026C46.6958 24.3433 47.1205 24.502 47.6245 24.502C48.3525 24.502 48.8705 24.1893 49.1785 23.564H51.2925C51.0685 24.3107 50.6392 24.9267 50.0045 25.412C49.3698 25.888 48.5905 26.126 47.6665 26.126C46.9198 26.126 46.2478 25.9627 45.6505 25.636C45.0625 25.3 44.6005 24.8287 44.2645 24.222C43.9378 23.6153 43.7745 22.9153 43.7745 22.122C43.7745 21.3193 43.9378 20.6147 44.2645 20.008C44.5912 19.4013 45.0485 18.9347 45.6365 18.608C46.2245 18.2813 46.9012 18.118 47.6665 18.118C48.4038 18.118 49.0618 18.2767 49.6405 18.594C50.2285 18.9113 50.6812 19.364 50.9985 19.952C51.3252 20.5307 51.4885 21.198 51.4885 21.954ZM49.4585 21.394C49.4492 20.89 49.2672 20.4887 48.9125 20.19C48.5578 19.882 48.1238 19.728 47.6105 19.728C47.1252 19.728 46.7145 19.8773 46.3785 20.176C46.0518 20.4653 45.8512 20.8713 45.7765 21.394H49.4585ZM52.4151 22.094C52.4151 21.31 52.5691 20.6147 52.8771 20.008C53.1945 19.4013 53.6191 18.9347 54.1511 18.608C54.6925 18.2813 55.2945 18.118 55.9571 18.118C56.5358 18.118 57.0398 18.2347 57.4691 18.468C57.9078 18.7013 58.2578 18.9953 58.5191 19.35V18.244H60.4931V26H58.5191V24.866C58.2671 25.23 57.9171 25.5333 57.4691 25.776C57.0305 26.0093 56.5218 26.126 55.9431 26.126C55.2898 26.126 54.6925 25.958 54.1511 25.622C53.6191 25.286 53.1945 24.8147 52.8771 24.208C52.5691 23.592 52.4151 22.8873 52.4151 22.094ZM58.5191 22.122C58.5191 21.646 58.4258 21.24 58.2391 20.904C58.0525 20.5587 57.8005 20.2973 57.4831 20.12C57.1658 19.9333 56.8251 19.84 56.4611 19.84C56.0971 19.84 55.7611 19.9287 55.4531 20.106C55.1451 20.2833 54.8931 20.5447 54.6971 20.89C54.5105 21.226 54.4171 21.6273 54.4171 22.094C54.4171 22.5607 54.5105 22.9713 54.6971 23.326C54.8931 23.6713 55.1451 23.9373 55.4531 24.124C55.7705 24.3107 56.1065 24.404 56.4611 24.404C56.8251 24.404 57.1658 24.3153 57.4831 24.138C57.8005 23.9513 58.0525 23.69 58.2391 23.354C58.4258 23.0087 58.5191 22.598 58.5191 22.122ZM64.6894 19.854V23.606C64.6894 23.8673 64.7501 24.0587 64.8714 24.18C65.0021 24.292 65.2167 24.348 65.5154 24.348H66.4254V26H65.1934C63.5414 26 62.7154 25.1973 62.7154 23.592V19.854H61.7914V18.244H62.7154V16.326H64.6894V18.244H66.4254V19.854H64.6894ZM75.0451 21.954C75.0451 22.234 75.0265 22.486 74.9891 22.71H69.3191C69.3658 23.27 69.5618 23.7087 69.9071 24.026C70.2525 24.3433 70.6771 24.502 71.1811 24.502C71.9091 24.502 72.4271 24.1893 72.7351 23.564H74.8491C74.6251 24.3107 74.1958 24.9267 73.5611 25.412C72.9265 25.888 72.1471 26.126 71.2231 26.126C70.4765 26.126 69.8045 25.9627 69.2071 25.636C68.6191 25.3 68.1571 24.8287 67.8211 24.222C67.4945 23.6153 67.3311 22.9153 67.3311 22.122C67.3311 21.3193 67.4945 20.6147 67.8211 20.008C68.1478 19.4013 68.6051 18.9347 69.1931 18.608C69.7811 18.2813 70.4578 18.118 71.2231 18.118C71.9605 18.118 72.6185 18.2767 73.1971 18.594C73.7851 18.9113 74.2378 19.364 74.5551 19.952C74.8818 20.5307 75.0451 21.198 75.0451 21.954ZM73.0151 21.394C73.0058 20.89 72.8238 20.4887 72.4691 20.19C72.1145 19.882 71.6805 19.728 71.1671 19.728C70.6818 19.728 70.2711 19.8773 69.9351 20.176C69.6085 20.4653 69.4078 20.8713 69.3331 21.394H73.0151ZM87.2317 18.244L82.4297 29.668H80.3437L82.0237 25.804L78.9157 18.244H81.1137L83.1157 23.662L85.1457 18.244H87.2317ZM91.7323 26.126C90.9856 26.126 90.3136 25.9627 89.7163 25.636C89.1189 25.3 88.6476 24.8287 88.3023 24.222C87.9663 23.6153 87.7983 22.9153 87.7983 22.122C87.7983 21.3287 87.9709 20.6287 88.3163 20.022C88.6709 19.4153 89.1516 18.9487 89.7583 18.622C90.3649 18.286 91.0416 18.118 91.7883 18.118C92.5349 18.118 93.2116 18.286 93.8183 18.622C94.4249 18.9487 94.9009 19.4153 95.2463 20.022C95.6009 20.6287 95.7783 21.3287 95.7783 22.122C95.7783 22.9153 95.5963 23.6153 95.2323 24.222C94.8776 24.8287 94.3923 25.3 93.7763 25.636C93.1696 25.9627 92.4883 26.126 91.7323 26.126ZM91.7323 24.418C92.0869 24.418 92.4183 24.334 92.7263 24.166C93.0436 23.9887 93.2956 23.7273 93.4823 23.382C93.6689 23.0367 93.7623 22.6167 93.7623 22.122C93.7623 21.3847 93.5663 20.82 93.1743 20.428C92.7916 20.0267 92.3203 19.826 91.7603 19.826C91.2003 19.826 90.7289 20.0267 90.3463 20.428C89.9729 20.82 89.7863 21.3847 89.7863 22.122C89.7863 22.8593 89.9683 23.4287 90.3323 23.83C90.7056 24.222 91.1723 24.418 91.7323 24.418ZM104.538 18.244V26H102.564V25.02C102.312 25.356 101.981 25.622 101.57 25.818C101.169 26.0047 100.73 26.098 100.254 26.098C99.6473 26.098 99.1107 25.972 98.644 25.72C98.1773 25.4587 97.8087 25.0807 97.538 24.586C97.2767 24.082 97.146 23.4847 97.146 22.794V18.244H99.106V22.514C99.106 23.13 99.26 23.606 99.568 23.942C99.876 24.2687 100.296 24.432 100.828 24.432C101.369 24.432 101.794 24.2687 102.102 23.942C102.41 23.606 102.564 23.13 102.564 22.514V18.244H104.538ZM108.432 19.448C108.684 19.0373 109.011 18.7153 109.412 18.482C109.823 18.2487 110.289 18.132 110.812 18.132V20.19H110.294C109.678 20.19 109.211 20.3347 108.894 20.624C108.586 20.9133 108.432 21.4173 108.432 22.136V26H106.472V18.244H108.432V19.448ZM117.428 19.378C117.68 19.0047 118.025 18.7013 118.464 18.468C118.912 18.2347 119.421 18.118 119.99 18.118C120.653 18.118 121.25 18.2813 121.782 18.608C122.323 18.9347 122.748 19.4013 123.056 20.008C123.373 20.6053 123.532 21.3007 123.532 22.094C123.532 22.8873 123.373 23.592 123.056 24.208C122.748 24.8147 122.323 25.286 121.782 25.622C121.25 25.958 120.653 26.126 119.99 26.126C119.411 26.126 118.903 26.014 118.464 25.79C118.035 25.5567 117.689 25.258 117.428 24.894V26H115.468V15.64H117.428V19.378ZM121.53 22.094C121.53 21.6273 121.432 21.226 121.236 20.89C121.049 20.5447 120.797 20.2833 120.48 20.106C120.172 19.9287 119.836 19.84 119.472 19.84C119.117 19.84 118.781 19.9333 118.464 20.12C118.156 20.2973 117.904 20.5587 117.708 20.904C117.521 21.2493 117.428 21.6553 117.428 22.122C117.428 22.5887 117.521 22.9947 117.708 23.34C117.904 23.6853 118.156 23.9513 118.464 24.138C118.781 24.3153 119.117 24.404 119.472 24.404C119.836 24.404 120.172 24.3107 120.48 24.124C120.797 23.9373 121.049 23.6713 121.236 23.326C121.432 22.9807 121.53 22.57 121.53 22.094ZM128.4 26.126C127.654 26.126 126.982 25.9627 126.384 25.636C125.787 25.3 125.316 24.8287 124.97 24.222C124.634 23.6153 124.466 22.9153 124.466 22.122C124.466 21.3287 124.639 20.6287 124.984 20.022C125.339 19.4153 125.82 18.9487 126.426 18.622C127.033 18.286 127.71 18.118 128.456 18.118C129.203 18.118 129.88 18.286 130.486 18.622C131.093 18.9487 131.569 19.4153 131.914 20.022C132.269 20.6287 132.446 21.3287 132.446 22.122C132.446 22.9153 132.264 23.6153 131.9 24.222C131.546 24.8287 131.06 25.3 130.444 25.636C129.838 25.9627 129.156 26.126 128.4 26.126ZM128.4 24.418C128.755 24.418 129.086 24.334 129.394 24.166C129.712 23.9887 129.964 23.7273 130.15 23.382C130.337 23.0367 130.43 22.6167 130.43 22.122C130.43 21.3847 130.234 20.82 129.842 20.428C129.46 20.0267 128.988 19.826 128.428 19.826C127.868 19.826 127.397 20.0267 127.014 20.428C126.641 20.82 126.454 21.3847 126.454 22.122C126.454 22.8593 126.636 23.4287 127 23.83C127.374 24.222 127.84 24.418 128.4 24.418ZM138.168 26L136.572 23.592L135.158 26H133.058L135.592 22.108L133.03 18.244H135.242L136.824 20.638L138.252 18.244H140.352L137.804 22.108L140.38 26H138.168ZM148.224 26.126C147.478 26.126 146.806 25.9627 146.208 25.636C145.611 25.3 145.14 24.8287 144.794 24.222C144.458 23.6153 144.29 22.9153 144.29 22.122C144.29 21.3287 144.463 20.6287 144.808 20.022C145.163 19.4153 145.644 18.9487 146.25 18.622C146.857 18.286 147.534 18.118 148.28 18.118C149.027 18.118 149.704 18.286 150.31 18.622C150.917 18.9487 151.393 19.4153 151.738 20.022C152.093 20.6287 152.27 21.3287 152.27 22.122C152.27 22.9153 152.088 23.6153 151.724 24.222C151.37 24.8287 150.884 25.3 150.268 25.636C149.662 25.9627 148.98 26.126 148.224 26.126ZM148.224 24.418C148.579 24.418 148.91 24.334 149.218 24.166C149.536 23.9887 149.788 23.7273 149.974 23.382C150.161 23.0367 150.254 22.6167 150.254 22.122C150.254 21.3847 150.058 20.82 149.666 20.428C149.284 20.0267 148.812 19.826 148.252 19.826C147.692 19.826 147.221 20.0267 146.838 20.428C146.465 20.82 146.278 21.3847 146.278 22.122C146.278 22.8593 146.46 23.4287 146.824 23.83C147.198 24.222 147.664 24.418 148.224 24.418ZM158.006 18.132C158.93 18.132 159.677 18.426 160.246 19.014C160.816 19.5927 161.1 20.4047 161.1 21.45V26H159.14V21.716C159.14 21.1 158.986 20.6287 158.678 20.302C158.37 19.966 157.95 19.798 157.418 19.798C156.877 19.798 156.448 19.966 156.13 20.302C155.822 20.6287 155.668 21.1 155.668 21.716V26H153.708V18.244H155.668V19.21C155.93 18.874 156.261 18.6127 156.662 18.426C157.073 18.23 157.521 18.132 158.006 18.132ZM168.582 19.854V23.606C168.582 23.8673 168.643 24.0587 168.764 24.18C168.895 24.292 169.109 24.348 169.408 24.348H170.318V26H169.086C167.434 26 166.608 25.1973 166.608 23.592V19.854H165.684V18.244H166.608V16.326H168.582V18.244H170.318V19.854H168.582ZM176.096 18.132C176.684 18.132 177.206 18.2627 177.664 18.524C178.121 18.776 178.476 19.154 178.728 19.658C178.989 20.1527 179.12 20.75 179.12 21.45V26H177.16V21.716C177.16 21.1 177.006 20.6287 176.698 20.302C176.39 19.966 175.97 19.798 175.438 19.798C174.896 19.798 174.467 19.966 174.15 20.302C173.842 20.6287 173.688 21.1 173.688 21.716V26H171.728V15.64H173.688V19.21C173.94 18.874 174.276 18.6127 174.696 18.426C175.116 18.23 175.582 18.132 176.096 18.132ZM188.194 21.954C188.194 22.234 188.175 22.486 188.138 22.71H182.468C182.514 23.27 182.71 23.7087 183.056 24.026C183.401 24.3433 183.826 24.502 184.33 24.502C185.058 24.502 185.576 24.1893 185.884 23.564H187.998C187.774 24.3107 187.344 24.9267 186.71 25.412C186.075 25.888 185.296 26.126 184.372 26.126C183.625 26.126 182.953 25.9627 182.356 25.636C181.768 25.3 181.306 24.8287 180.97 24.222C180.643 23.6153 180.48 22.9153 180.48 22.122C180.48 21.3193 180.643 20.6147 180.97 20.008C181.296 19.4013 181.754 18.9347 182.342 18.608C182.93 18.2813 183.606 18.118 184.372 18.118C185.109 18.118 185.767 18.2767 186.346 18.594C186.934 18.9113 187.386 19.364 187.704 19.952C188.03 20.5307 188.194 21.198 188.194 21.954ZM186.164 21.394C186.154 20.89 185.972 20.4887 185.618 20.19C185.263 19.882 184.829 19.728 184.316 19.728C183.83 19.728 183.42 19.8773 183.084 20.176C182.757 20.4653 182.556 20.8713 182.482 21.394H186.164ZM192.456 22.094C192.456 21.31 192.61 20.6147 192.918 20.008C193.235 19.4013 193.66 18.9347 194.192 18.608C194.733 18.2813 195.335 18.118 195.998 18.118C196.577 18.118 197.081 18.2347 197.51 18.468C197.949 18.7013 198.299 18.9953 198.56 19.35V18.244H200.534V26H198.56V24.866C198.308 25.23 197.958 25.5333 197.51 25.776C197.071 26.0093 196.563 26.126 195.984 26.126C195.331 26.126 194.733 25.958 194.192 25.622C193.66 25.286 193.235 24.8147 192.918 24.208C192.61 23.592 192.456 22.8873 192.456 22.094ZM198.56 22.122C198.56 21.646 198.467 21.24 198.28 20.904C198.093 20.5587 197.841 20.2973 197.524 20.12C197.207 19.9333 196.866 19.84 196.502 19.84C196.138 19.84 195.802 19.9287 195.494 20.106C195.186 20.2833 194.934 20.5447 194.738 20.89C194.551 21.226 194.458 21.6273 194.458 22.094C194.458 22.5607 194.551 22.9713 194.738 23.326C194.934 23.6713 195.186 23.9373 195.494 24.124C195.811 24.3107 196.147 24.404 196.502 24.404C196.866 24.404 197.207 24.3153 197.524 24.138C197.841 23.9513 198.093 23.69 198.28 23.354C198.467 23.0087 198.56 22.598 198.56 22.122ZM204.408 19.364C204.66 19.0093 205.006 18.7153 205.444 18.482C205.892 18.2393 206.401 18.118 206.97 18.118C207.633 18.118 208.23 18.2813 208.762 18.608C209.304 18.9347 209.728 19.4013 210.036 20.008C210.354 20.6053 210.512 21.3007 210.512 22.094C210.512 22.8873 210.354 23.592 210.036 24.208C209.728 24.8147 209.304 25.286 208.762 25.622C208.23 25.958 207.633 26.126 206.97 26.126C206.401 26.126 205.897 26.0093 205.458 25.776C205.029 25.5427 204.679 25.2487 204.408 24.894V29.696H202.448V18.244H204.408V19.364ZM208.51 22.094C208.51 21.6273 208.412 21.226 208.216 20.89C208.03 20.5447 207.778 20.2833 207.46 20.106C207.152 19.9287 206.816 19.84 206.452 19.84C206.098 19.84 205.762 19.9333 205.444 20.12C205.136 20.2973 204.884 20.5587 204.688 20.904C204.502 21.2493 204.408 21.6553 204.408 22.122C204.408 22.5887 204.502 22.9947 204.688 23.34C204.884 23.6853 205.136 23.9513 205.444 24.138C205.762 24.3153 206.098 24.404 206.452 24.404C206.816 24.404 207.152 24.3107 207.46 24.124C207.778 23.9373 208.03 23.6713 208.216 23.326C208.412 22.9807 208.51 22.57 208.51 22.094ZM213.897 19.364C214.149 19.0093 214.494 18.7153 214.933 18.482C215.381 18.2393 215.889 18.118 216.459 18.118C217.121 18.118 217.719 18.2813 218.251 18.608C218.792 18.9347 219.217 19.4013 219.525 20.008C219.842 20.6053 220.001 21.3007 220.001 22.094C220.001 22.8873 219.842 23.592 219.525 24.208C219.217 24.8147 218.792 25.286 218.251 25.622C217.719 25.958 217.121 26.126 216.459 26.126C215.889 26.126 215.385 26.0093 214.947 25.776C214.517 25.5427 214.167 25.2487 213.897 24.894V29.696H211.937V18.244H213.897V19.364ZM217.999 22.094C217.999 21.6273 217.901 21.226 217.705 20.89C217.518 20.5447 217.266 20.2833 216.949 20.106C216.641 19.9287 216.305 19.84 215.941 19.84C215.586 19.84 215.25 19.9333 214.933 20.12C214.625 20.2973 214.373 20.5587 214.177 20.904C213.99 21.2493 213.897 21.6553 213.897 22.122C213.897 22.5887 213.99 22.9947 214.177 23.34C214.373 23.6853 214.625 23.9513 214.933 24.138C215.25 24.3153 215.586 24.404 215.941 24.404C216.305 24.404 216.641 24.3107 216.949 24.124C217.266 23.9373 217.518 23.6713 217.705 23.326C217.901 22.9807 217.999 22.57 217.999 22.094Z" fill="white"/>
<path d="M269.847 22.7L263.121 28.7C262.896 28.9 262.672 29 262.336 29C262 29 261.775 28.9 261.551 28.7C261.103 28.3 261.103 27.7 261.551 27.3L267.493 22L261.551 16.7C261.103 16.3 261.103 15.7 261.551 15.3C262 14.9 262.672 14.9 263.121 15.3L269.847 21.3C270.296 21.7 270.296 22.3 269.847 22.7Z" fill="white"/>
<mask id="mask0_5790_125" style="mask-type:alpha" maskUnits="userSpaceOnUse" x="261" y="15" width="10" height="14">
<path d="M269.847 22.7L263.121 28.7C262.896 28.9 262.672 29 262.336 29C262 29 261.775 28.9 261.551 28.7C261.103 28.3 261.103 27.7 261.551 27.3L267.493 22L261.551 16.7C261.103 16.3 261.103 15.7 261.551 15.3C262 14.9 262.672 14.9 263.121 15.3L269.847 21.3C270.296 21.7 270.296 22.3 269.847 22.7Z" fill="white"/>
</mask>
<g mask="url(#mask0_5790_125)">
<path fill-rule="evenodd" clip-rule="evenodd" d="M252.246 10H279.152V34H252.246V10Z" fill="white"/>
</g>
</svg>
