<svg width="347" height="98" viewBox="0 0 347 98" fill="none" xmlns="http://www.w3.org/2000/svg">
<g filter="url(#filter0_d_5790_121)">
<path d="M16 47C16 28.7746 30.7746 14 49 14H298C316.225 14 331 28.7746 331 47C331 65.2254 316.225 80 298 80H49C30.7746 80 16 65.2254 16 47Z" fill="url(#paint0_linear_5790_121)" shape-rendering="crispEdges"/>
<path d="M45.8821 40.1374V42.3816H42.188V54H39.4076V42.3816H35.7135V40.1374H45.8821ZM50.6913 44.7053C51.0488 44.1227 51.5122 43.6659 52.0815 43.3349C52.6641 43.0039 53.3261 42.8384 54.0675 42.8384V45.7579H53.3327C52.4588 45.7579 51.7968 45.9631 51.3467 46.3736C50.9097 46.784 50.6913 47.499 50.6913 48.5185V54H47.9108V42.9973H50.6913V44.7053ZM55.2253 48.4589C55.2253 47.3467 55.4438 46.3603 55.8807 45.4997C56.3309 44.6391 56.9333 43.9771 57.688 43.5137C58.456 43.0503 59.31 42.8186 60.25 42.8186C61.0709 42.8186 61.7859 42.9841 62.395 43.3151C63.0173 43.6461 63.5138 44.0631 63.8845 44.5663V42.9973H66.6848V54H63.8845V52.3913C63.527 52.9077 63.0305 53.338 62.395 53.6822C61.7727 54.0132 61.0511 54.1787 60.2302 54.1787C59.3034 54.1787 58.456 53.9404 57.688 53.4638C56.9333 52.9871 56.3309 52.3185 55.8807 51.4579C55.4438 50.584 55.2253 49.5844 55.2253 48.4589ZM63.8845 48.4987C63.8845 47.8234 63.7521 47.2474 63.4873 46.7708C63.2225 46.2809 62.865 45.9102 62.4148 45.6586C61.9647 45.3938 61.4814 45.2614 60.965 45.2614C60.4486 45.2614 59.972 45.3872 59.5351 45.6387C59.0981 45.8903 58.7406 46.261 58.4626 46.7509C58.1978 47.2276 58.0654 47.7969 58.0654 48.4589C58.0654 49.1209 58.1978 49.7035 58.4626 50.2067C58.7406 50.6965 59.0981 51.0739 59.5351 51.3387C59.9852 51.6035 60.4619 51.7359 60.965 51.7359C61.4814 51.7359 61.9647 51.6101 62.4148 51.3586C62.865 51.0938 63.2225 50.723 63.4873 50.2464C63.7521 49.7565 63.8845 49.1739 63.8845 48.4987ZM68.6855 48.4987C68.6855 47.36 68.9172 46.367 69.3806 45.5196C69.844 44.659 70.4861 43.9969 71.307 43.5335C72.1279 43.0569 73.068 42.8186 74.1272 42.8186C75.491 42.8186 76.6164 43.1628 77.5035 43.8513C78.4039 44.5266 79.0063 45.4799 79.3108 46.7112H76.3119C76.153 46.2346 75.8816 45.8638 75.4976 45.599C75.1269 45.321 74.6635 45.182 74.1074 45.182C73.313 45.182 72.684 45.4732 72.2206 46.0558C71.7572 46.6251 71.5255 47.4394 71.5255 48.4987C71.5255 49.5446 71.7572 50.3589 72.2206 50.9415C72.684 51.5108 73.313 51.7955 74.1074 51.7955C75.2328 51.7955 75.9676 51.2924 76.3119 50.2861H79.3108C79.0063 51.4777 78.4039 52.4244 77.5035 53.1261C76.6032 53.8279 75.4777 54.1787 74.1272 54.1787C73.068 54.1787 72.1279 53.947 71.307 53.4836C70.4861 53.007 69.844 52.345 69.3806 51.4976C68.9172 50.637 68.6855 49.6373 68.6855 48.4987ZM87.862 54L84.1282 49.3129V54H81.3478V39.3033H84.1282V47.6645L87.8223 42.9973H91.4369L86.5909 48.5185L91.4766 54H87.862ZM108.204 42.9973L101.392 59.2034H98.433L100.816 53.722L96.4073 42.9973H99.5254L102.365 50.6833L105.245 42.9973H108.204ZM114.589 54.1787C113.53 54.1787 112.576 53.947 111.729 53.4836C110.882 53.007 110.213 52.3383 109.723 51.4777C109.246 50.6171 109.008 49.6241 109.008 48.4987C109.008 47.3732 109.253 46.3802 109.743 45.5196C110.246 44.659 110.928 43.9969 111.789 43.5335C112.649 43.0569 113.609 42.8186 114.668 42.8186C115.728 42.8186 116.687 43.0569 117.548 43.5335C118.409 43.9969 119.084 44.659 119.574 45.5196C120.077 46.3802 120.329 47.3732 120.329 48.4987C120.329 49.6241 120.07 50.6171 119.554 51.4777C119.051 52.3383 118.362 53.007 117.489 53.4836C116.628 53.947 115.661 54.1787 114.589 54.1787ZM114.589 51.7558C115.092 51.7558 115.562 51.6366 115.999 51.3983C116.449 51.1467 116.807 50.776 117.071 50.2861C117.336 49.7962 117.469 49.2004 117.469 48.4987C117.469 47.4527 117.191 46.6516 116.635 46.0955C116.092 45.5262 115.423 45.2415 114.629 45.2415C113.834 45.2415 113.166 45.5262 112.623 46.0955C112.093 46.6516 111.828 47.4527 111.828 48.4987C111.828 49.5446 112.086 50.3523 112.603 50.9216C113.132 51.4777 113.794 51.7558 114.589 51.7558ZM132.755 42.9973V54H129.955V52.6098C129.597 53.0864 129.127 53.4638 128.545 53.7418C127.975 54.0066 127.353 54.139 126.678 54.139C125.817 54.139 125.056 53.9603 124.394 53.6028C123.732 53.2321 123.209 52.6958 122.825 51.9941C122.454 51.2791 122.269 50.4317 122.269 49.452V42.9973H125.049V49.0547C125.049 49.9286 125.268 50.6039 125.705 51.0805C126.142 51.5439 126.737 51.7756 127.492 51.7756C128.26 51.7756 128.863 51.5439 129.299 51.0805C129.736 50.6039 129.955 49.9286 129.955 49.0547V42.9973H132.755ZM153.895 42.8384C155.245 42.8384 156.331 43.2555 157.152 44.0896C157.986 44.9105 158.403 46.0624 158.403 47.5453V54H155.623V47.9227C155.623 47.0621 155.404 46.4067 154.967 45.9565C154.53 45.4931 153.935 45.2614 153.18 45.2614C152.425 45.2614 151.823 45.4931 151.373 45.9565C150.936 46.4067 150.717 47.0621 150.717 47.9227V54H147.937V47.9227C147.937 47.0621 147.718 46.4067 147.281 45.9565C146.844 45.4931 146.249 45.2614 145.494 45.2614C144.726 45.2614 144.117 45.4931 143.667 45.9565C143.23 46.4067 143.011 47.0621 143.011 47.9227V54H140.231V42.9973H143.011V44.328C143.369 43.8645 143.826 43.5004 144.382 43.2356C144.951 42.9708 145.573 42.8384 146.249 42.8384C147.109 42.8384 147.877 43.0238 148.552 43.3945C149.228 43.752 149.751 44.2684 150.121 44.9436C150.479 44.3081 150.995 43.7983 151.671 43.4144C152.359 43.0304 153.101 42.8384 153.895 42.8384ZM165.927 54.1787C164.868 54.1787 163.915 53.947 163.068 53.4836C162.22 53.007 161.552 52.3383 161.062 51.4777C160.585 50.6171 160.347 49.6241 160.347 48.4987C160.347 47.3732 160.592 46.3802 161.081 45.5196C161.585 44.659 162.266 43.9969 163.127 43.5335C163.988 43.0569 164.948 42.8186 166.007 42.8186C167.066 42.8186 168.026 43.0569 168.887 43.5335C169.747 43.9969 170.423 44.659 170.912 45.5196C171.416 46.3802 171.667 47.3732 171.667 48.4987C171.667 49.6241 171.409 50.6171 170.893 51.4777C170.389 52.3383 169.701 53.007 168.827 53.4836C167.966 53.947 167 54.1787 165.927 54.1787ZM165.927 51.7558C166.431 51.7558 166.901 51.6366 167.338 51.3983C167.788 51.1467 168.145 50.776 168.41 50.2861C168.675 49.7962 168.807 49.2004 168.807 48.4987C168.807 47.4527 168.529 46.6516 167.973 46.0955C167.43 45.5262 166.762 45.2415 165.967 45.2415C165.173 45.2415 164.504 45.5262 163.961 46.0955C163.432 46.6516 163.167 47.4527 163.167 48.4987C163.167 49.5446 163.425 50.3523 163.941 50.9216C164.471 51.4777 165.133 51.7558 165.927 51.7558ZM178.592 54.1787C177.533 54.1787 176.58 53.947 175.732 53.4836C174.885 53.007 174.216 52.3383 173.727 51.4777C173.25 50.6171 173.012 49.6241 173.012 48.4987C173.012 47.3732 173.257 46.3802 173.746 45.5196C174.25 44.659 174.931 43.9969 175.792 43.5335C176.653 43.0569 177.613 42.8186 178.672 42.8186C179.731 42.8186 180.691 43.0569 181.552 43.5335C182.412 43.9969 183.087 44.659 183.577 45.5196C184.08 46.3802 184.332 47.3732 184.332 48.4987C184.332 49.6241 184.074 50.6171 183.557 51.4777C183.054 52.3383 182.366 53.007 181.492 53.4836C180.631 53.947 179.665 54.1787 178.592 54.1787ZM178.592 51.7558C179.095 51.7558 179.566 51.6366 180.002 51.3983C180.453 51.1467 180.81 50.776 181.075 50.2861C181.34 49.7962 181.472 49.2004 181.472 48.4987C181.472 47.4527 181.194 46.6516 180.638 46.0955C180.095 45.5262 179.426 45.2415 178.632 45.2415C177.838 45.2415 177.169 45.5262 176.626 46.0955C176.097 46.6516 175.832 47.4527 175.832 48.4987C175.832 49.5446 176.09 50.3523 176.606 50.9216C177.136 51.4777 177.798 51.7558 178.592 51.7558ZM185.657 48.4589C185.657 47.3467 185.875 46.3603 186.312 45.4997C186.762 44.6391 187.371 43.9771 188.139 43.5137C188.907 43.0503 189.761 42.8186 190.701 42.8186C191.416 42.8186 192.098 42.9774 192.747 43.2952C193.396 43.5997 193.912 44.0102 194.296 44.5266V39.3033H197.116V54H194.296V52.3714C193.952 52.9143 193.468 53.3512 192.846 53.6822C192.224 54.0132 191.502 54.1787 190.681 54.1787C189.755 54.1787 188.907 53.9404 188.139 53.4638C187.371 52.9871 186.762 52.3185 186.312 51.4579C185.875 50.584 185.657 49.5844 185.657 48.4589ZM194.316 48.4987C194.316 47.8234 194.183 47.2474 193.919 46.7708C193.654 46.2809 193.296 45.9102 192.846 45.6586C192.396 45.3938 191.913 45.2614 191.396 45.2614C190.88 45.2614 190.403 45.3872 189.966 45.6387C189.529 45.8903 189.172 46.261 188.894 46.7509C188.629 47.2276 188.497 47.7969 188.497 48.4589C188.497 49.1209 188.629 49.7035 188.894 50.2067C189.172 50.6965 189.529 51.0739 189.966 51.3387C190.417 51.6035 190.893 51.7359 191.396 51.7359C191.913 51.7359 192.396 51.6101 192.846 51.3586C193.296 51.0938 193.654 50.723 193.919 50.2464C194.183 49.7565 194.316 49.1739 194.316 48.4987ZM209.45 54.1787C208.391 54.1787 207.437 53.947 206.59 53.4836C205.742 53.007 205.074 52.3383 204.584 51.4777C204.107 50.6171 203.869 49.6241 203.869 48.4987C203.869 47.3732 204.114 46.3802 204.604 45.5196C205.107 44.659 205.789 43.9969 206.649 43.5335C207.51 43.0569 208.47 42.8186 209.529 42.8186C210.588 42.8186 211.548 43.0569 212.409 43.5335C213.27 43.9969 213.945 44.659 214.435 45.5196C214.938 46.3802 215.189 47.3732 215.189 48.4987C215.189 49.6241 214.931 50.6171 214.415 51.4777C213.912 52.3383 213.223 53.007 212.349 53.4836C211.489 53.947 210.522 54.1787 209.45 54.1787ZM209.45 51.7558C209.953 51.7558 210.423 51.6366 210.86 51.3983C211.31 51.1467 211.668 50.776 211.932 50.2861C212.197 49.7962 212.33 49.2004 212.33 48.4987C212.33 47.4527 212.051 46.6516 211.495 46.0955C210.953 45.5262 210.284 45.2415 209.489 45.2415C208.695 45.2415 208.026 45.5262 207.484 46.0955C206.954 46.6516 206.689 47.4527 206.689 48.4987C206.689 49.5446 206.947 50.3523 207.464 50.9216C207.993 51.4777 208.655 51.7558 209.45 51.7558ZM223.326 42.8384C224.637 42.8384 225.696 43.2555 226.504 44.0896C227.312 44.9105 227.715 46.0624 227.715 47.5453V54H224.935V47.9227C224.935 47.0488 224.716 46.3802 224.279 45.9168C223.843 45.4401 223.247 45.2018 222.492 45.2018C221.724 45.2018 221.115 45.4401 220.665 45.9168C220.228 46.3802 220.009 47.0488 220.009 47.9227V54H217.229V42.9973H220.009V44.3677C220.38 43.891 220.85 43.5203 221.42 43.2555C222.002 42.9774 222.638 42.8384 223.326 42.8384ZM238.329 45.2813V50.6039C238.329 50.9746 238.415 51.246 238.587 51.4181C238.773 51.577 239.077 51.6565 239.501 51.6565H240.792V54H239.044C236.701 54 235.529 52.8613 235.529 50.584V45.2813H234.218V42.9973H235.529V40.2764H238.329V42.9973H240.792V45.2813H238.329ZM248.988 42.8384C249.822 42.8384 250.564 43.0238 251.212 43.3945C251.861 43.752 252.364 44.2882 252.722 45.0032C253.093 45.7049 253.278 46.5523 253.278 47.5453V54H250.497V47.9227C250.497 47.0488 250.279 46.3802 249.842 45.9168C249.405 45.4401 248.809 45.2018 248.055 45.2018C247.287 45.2018 246.678 45.4401 246.227 45.9168C245.791 46.3802 245.572 47.0488 245.572 47.9227V54H242.792V39.3033H245.572V44.3677C245.93 43.891 246.406 43.5203 247.002 43.2555C247.598 42.9774 248.26 42.8384 248.988 42.8384ZM266.15 48.2603C266.15 48.6575 266.124 49.015 266.071 49.3328H258.027C258.093 50.1272 258.371 50.7495 258.861 51.1997C259.351 51.6498 259.954 51.8749 260.669 51.8749C261.701 51.8749 262.436 51.4314 262.873 50.5443H265.872C265.554 51.6035 264.945 52.4774 264.045 53.1659C263.145 53.8411 262.039 54.1787 260.728 54.1787C259.669 54.1787 258.716 53.947 257.868 53.4836C257.034 53.007 256.379 52.3383 255.902 51.4777C255.439 50.6171 255.207 49.6241 255.207 48.4987C255.207 47.36 255.439 46.3603 255.902 45.4997C256.366 44.6391 257.014 43.9771 257.848 43.5137C258.683 43.0503 259.643 42.8186 260.728 42.8186C261.774 42.8186 262.708 43.0436 263.529 43.4938C264.363 43.944 265.005 44.5861 265.455 45.4203C265.918 46.2412 266.15 47.1879 266.15 48.2603ZM263.27 47.4659C263.257 46.7509 262.999 46.1816 262.496 45.7579C261.993 45.321 261.377 45.1025 260.649 45.1025C259.96 45.1025 259.378 45.3144 258.901 45.738C258.438 46.1485 258.153 46.7244 258.047 47.4659H263.27ZM272.197 48.4589C272.197 47.3467 272.416 46.3603 272.852 45.4997C273.303 44.6391 273.905 43.9771 274.66 43.5137C275.428 43.0503 276.282 42.8186 277.222 42.8186C278.043 42.8186 278.758 42.9841 279.367 43.3151C279.989 43.6461 280.485 44.0631 280.856 44.5663V42.9973H283.657V54H280.856V52.3913C280.499 52.9077 280.002 53.338 279.367 53.6822C278.744 54.0132 278.023 54.1787 277.202 54.1787C276.275 54.1787 275.428 53.9404 274.66 53.4638C273.905 52.9871 273.303 52.3185 272.852 51.4579C272.416 50.584 272.197 49.5844 272.197 48.4589ZM280.856 48.4987C280.856 47.8234 280.724 47.2474 280.459 46.7708C280.194 46.2809 279.837 45.9102 279.387 45.6586C278.936 45.3938 278.453 45.2614 277.937 45.2614C277.42 45.2614 276.944 45.3872 276.507 45.6387C276.07 45.8903 275.712 46.261 275.434 46.7509C275.17 47.2276 275.037 47.7969 275.037 48.4589C275.037 49.1209 275.17 49.7035 275.434 50.2067C275.712 50.6965 276.07 51.0739 276.507 51.3387C276.957 51.6035 277.434 51.7359 277.937 51.7359C278.453 51.7359 278.936 51.6101 279.387 51.3586C279.837 51.0938 280.194 50.723 280.459 50.2464C280.724 49.7565 280.856 49.1739 280.856 48.4987ZM289.153 44.5861C289.51 44.083 290 43.6659 290.622 43.3349C291.258 42.9907 291.979 42.8186 292.787 42.8186C293.727 42.8186 294.575 43.0503 295.329 43.5137C296.097 43.9771 296.7 44.6391 297.137 45.4997C297.587 46.3471 297.812 47.3335 297.812 48.4589C297.812 49.5844 297.587 50.584 297.137 51.4579C296.7 52.3185 296.097 52.9871 295.329 53.4638C294.575 53.9404 293.727 54.1787 292.787 54.1787C291.979 54.1787 291.264 54.0132 290.642 53.6822C290.033 53.3512 289.537 52.9342 289.153 52.431V59.2432H286.372V42.9973H289.153V44.5861ZM294.972 48.4589C294.972 47.7969 294.833 47.2276 294.555 46.7509C294.29 46.261 293.932 45.8903 293.482 45.6387C293.045 45.3872 292.569 45.2614 292.052 45.2614C291.549 45.2614 291.072 45.3938 290.622 45.6586C290.185 45.9102 289.828 46.2809 289.55 46.7708C289.285 47.2607 289.153 47.8366 289.153 48.4987C289.153 49.1607 289.285 49.7366 289.55 50.2265C289.828 50.7164 290.185 51.0938 290.622 51.3586C291.072 51.6101 291.549 51.7359 292.052 51.7359C292.569 51.7359 293.045 51.6035 293.482 51.3387C293.932 51.0739 294.29 50.6965 294.555 50.2067C294.833 49.7168 294.972 49.1342 294.972 48.4589ZM302.613 44.5861C302.97 44.083 303.46 43.6659 304.082 43.3349C304.718 42.9907 305.44 42.8186 306.247 42.8186C307.187 42.8186 308.035 43.0503 308.789 43.5137C309.557 43.9771 310.16 44.6391 310.597 45.4997C311.047 46.3471 311.272 47.3335 311.272 48.4589C311.272 49.5844 311.047 50.584 310.597 51.4579C310.16 52.3185 309.557 52.9871 308.789 53.4638C308.035 53.9404 307.187 54.1787 306.247 54.1787C305.44 54.1787 304.725 54.0132 304.102 53.6822C303.493 53.3512 302.997 52.9342 302.613 52.431V59.2432H299.832V42.9973H302.613V44.5861ZM308.432 48.4589C308.432 47.7969 308.293 47.2276 308.015 46.7509C307.75 46.261 307.393 45.8903 306.942 45.6387C306.505 45.3872 306.029 45.2614 305.512 45.2614C305.009 45.2614 304.533 45.3938 304.082 45.6586C303.645 45.9102 303.288 46.2809 303.01 46.7708C302.745 47.2607 302.613 47.8366 302.613 48.4987C302.613 49.1607 302.745 49.7366 303.01 50.2265C303.288 50.7164 303.645 51.0938 304.082 51.3586C304.533 51.6101 305.009 51.7359 305.512 51.7359C306.029 51.7359 306.505 51.6035 306.942 51.3387C307.393 51.0739 307.75 50.6965 308.015 50.2067C308.293 49.7168 308.432 49.1342 308.432 48.4589Z" fill="white"/>
</g>
<defs>
<filter id="filter0_d_5790_121" x="0" y="0" width="347" height="98" filterUnits="userSpaceOnUse" color-interpolation-filters="sRGB">
<feFlood flood-opacity="0" result="BackgroundImageFix"/>
<feColorMatrix in="SourceAlpha" type="matrix" values="0 0 0 0 0 0 0 0 0 0 0 0 0 0 0 0 0 0 127 0" result="hardAlpha"/>
<feOffset dy="2"/>
<feGaussianBlur stdDeviation="8"/>
<feComposite in2="hardAlpha" operator="out"/>
<feColorMatrix type="matrix" values="0 0 0 0 0.279167 0 0 0 0 0.87025 0 0 0 0 1 0 0 0 0.33 0"/>
<feBlend mode="normal" in2="BackgroundImageFix" result="effect1_dropShadow_5790_121"/>
<feBlend mode="normal" in="SourceGraphic" in2="effect1_dropShadow_5790_121" result="shape"/>
</filter>
<linearGradient id="paint0_linear_5790_121" x1="254.711" y1="16.5" x2="168.528" y2="-122.082" gradientUnits="userSpaceOnUse">
<stop stop-color="#6E8CF6"/>
<stop offset="1" stop-color="#6ED5F6" stop-opacity="0.93"/>
</linearGradient>
</defs>
</svg>
