<svg width="327" height="78" viewBox="0 0 327 78" fill="none" xmlns="http://www.w3.org/2000/svg">
<g filter="url(#filter0_d_5790_144)">
<path d="M6 37C6 18.7746 20.7746 4 39 4H288C306.225 4 321 18.7746 321 37C321 55.2254 306.225 70 288 70H39C20.7746 70 6 55.2254 6 37Z" fill="url(#paint0_linear_5790_144)" shape-rendering="crispEdges"/>
<path d="M32.9825 30.1374V32.3816H29.2885V44H26.508V32.3816H22.814V30.1374H32.9825ZM37.7917 34.7053C38.1492 34.1227 38.6126 33.6659 39.1819 33.3349C39.7645 33.0039 40.4265 32.8384 41.168 32.8384V35.7579H40.4332C39.5593 35.7579 38.8973 35.9631 38.4471 36.3736C38.0102 36.784 37.7917 37.499 37.7917 38.5185V44H35.0112V32.9973H37.7917V34.7053ZM42.3258 38.4589C42.3258 37.3467 42.5443 36.3603 42.9812 35.4997C43.4314 34.6391 44.0338 33.9771 44.7885 33.5137C45.5564 33.0503 46.4104 32.8186 47.3505 32.8186C48.1714 32.8186 48.8864 32.9841 49.4954 33.3151C50.1177 33.6461 50.6142 34.0631 50.985 34.5663V32.9973H53.7853V44H50.985V42.3913C50.6275 42.9077 50.131 43.338 49.4954 43.6822C48.8731 44.0132 48.1515 44.1787 47.3306 44.1787C46.4038 44.1787 45.5564 43.9404 44.7885 43.4638C44.0338 42.9871 43.4314 42.3185 42.9812 41.4579C42.5443 40.584 42.3258 39.5844 42.3258 38.4589ZM50.985 38.4987C50.985 37.8234 50.8526 37.2474 50.5877 36.7708C50.3229 36.2809 49.9655 35.9102 49.5153 35.6586C49.0651 35.3938 48.5818 35.2614 48.0655 35.2614C47.5491 35.2614 47.0724 35.3872 46.6355 35.6387C46.1986 35.8903 45.8411 36.261 45.5631 36.7509C45.2982 37.2276 45.1658 37.7969 45.1658 38.4589C45.1658 39.1209 45.2982 39.7035 45.5631 40.2067C45.8411 40.6965 46.1986 41.0739 46.6355 41.3387C47.0857 41.6035 47.5623 41.7359 48.0655 41.7359C48.5818 41.7359 49.0651 41.6101 49.5153 41.3586C49.9655 41.0938 50.3229 40.723 50.5877 40.2464C50.8526 39.7565 50.985 39.1739 50.985 38.4987ZM55.7859 38.4987C55.7859 37.36 56.0176 36.367 56.481 35.5196C56.9444 34.659 57.5866 33.9969 58.4075 33.5335C59.2284 33.0569 60.1685 32.8186 61.2277 32.8186C62.5914 32.8186 63.7169 33.1628 64.604 33.8513C65.5043 34.5266 66.1067 35.4799 66.4113 36.7112H63.4123C63.2534 36.2346 62.982 35.8638 62.5981 35.599C62.2273 35.321 61.7639 35.182 61.2078 35.182C60.4134 35.182 59.7845 35.4732 59.3211 36.0558C58.8577 36.6251 58.626 37.4394 58.626 38.4987C58.626 39.5446 58.8577 40.3589 59.3211 40.9415C59.7845 41.5108 60.4134 41.7955 61.2078 41.7955C62.3332 41.7955 63.0681 41.2924 63.4123 40.2861H66.4113C66.1067 41.4777 65.5043 42.4244 64.604 43.1261C63.7036 43.8279 62.5782 44.1787 61.2277 44.1787C60.1685 44.1787 59.2284 43.947 58.4075 43.4836C57.5866 43.007 56.9444 42.345 56.481 41.4976C56.0176 40.637 55.7859 39.6373 55.7859 38.4987ZM74.9624 44L71.2287 39.3129V44H68.4482V29.3033H71.2287V37.6645L74.9227 32.9973H78.5373L73.6914 38.5185L78.577 44H74.9624ZM95.3048 32.9973L88.4927 49.2034H85.5335L87.9167 43.722L83.5077 32.9973H86.6258L89.4659 40.6833L92.3456 32.9973H95.3048ZM101.689 44.1787C100.63 44.1787 99.6768 43.947 98.8294 43.4836C97.9821 43.007 97.3134 42.3383 96.8235 41.4777C96.3469 40.6171 96.1086 39.6241 96.1086 38.4987C96.1086 37.3732 96.3535 36.3802 96.8434 35.5196C97.3465 34.659 98.0284 33.9969 98.889 33.5335C99.7496 33.0569 100.71 32.8186 101.769 32.8186C102.828 32.8186 103.788 33.0569 104.649 33.5335C105.509 33.9969 106.184 34.659 106.674 35.5196C107.177 36.3802 107.429 37.3732 107.429 38.4987C107.429 39.6241 107.171 40.6171 106.654 41.4777C106.151 42.3383 105.463 43.007 104.589 43.4836C103.728 43.947 102.762 44.1787 101.689 44.1787ZM101.689 41.7558C102.192 41.7558 102.663 41.6366 103.099 41.3983C103.55 41.1467 103.907 40.776 104.172 40.2861C104.437 39.7962 104.569 39.2004 104.569 38.4987C104.569 37.4527 104.291 36.6516 103.735 36.0955C103.192 35.5262 102.523 35.2415 101.729 35.2415C100.935 35.2415 100.266 35.5262 99.7232 36.0955C99.1935 36.6516 98.9287 37.4527 98.9287 38.4987C98.9287 39.5446 99.1869 40.3523 99.7033 40.9216C100.233 41.4777 100.895 41.7558 101.689 41.7558ZM119.856 32.9973V44H117.055V42.6098C116.698 43.0864 116.228 43.4638 115.645 43.7418C115.076 44.0066 114.454 44.139 113.778 44.139C112.918 44.139 112.156 43.9603 111.494 43.6028C110.832 43.2321 110.309 42.6958 109.925 41.9941C109.555 41.2791 109.369 40.4317 109.369 39.452V32.9973H112.15V39.0547C112.15 39.9286 112.368 40.6039 112.805 41.0805C113.242 41.5439 113.838 41.7756 114.593 41.7756C115.361 41.7756 115.963 41.5439 116.4 41.0805C116.837 40.6039 117.055 39.9286 117.055 39.0547V32.9973H119.856ZM130.112 34.5861C130.469 34.083 130.959 33.6659 131.582 33.3349C132.217 32.9907 132.939 32.8186 133.746 32.8186C134.686 32.8186 135.534 33.0503 136.288 33.5137C137.056 33.9771 137.659 34.6391 138.096 35.4997C138.546 36.3471 138.771 37.3335 138.771 38.4589C138.771 39.5844 138.546 40.584 138.096 41.4579C137.659 42.3185 137.056 42.9871 136.288 43.4638C135.534 43.9404 134.686 44.1787 133.746 44.1787C132.939 44.1787 132.224 44.0132 131.601 43.6822C130.992 43.3512 130.496 42.9342 130.112 42.431V49.2432H127.331V32.9973H130.112V34.5861ZM135.931 38.4589C135.931 37.7969 135.792 37.2276 135.514 36.7509C135.249 36.261 134.892 35.8903 134.441 35.6387C134.004 35.3872 133.528 35.2614 133.011 35.2614C132.508 35.2614 132.032 35.3938 131.582 35.6586C131.145 35.9102 130.787 36.2809 130.509 36.7708C130.244 37.2607 130.112 37.8366 130.112 38.4987C130.112 39.1607 130.244 39.7366 130.509 40.2265C130.787 40.7164 131.145 41.0938 131.582 41.3586C132.032 41.6101 132.508 41.7359 133.011 41.7359C133.528 41.7359 134.004 41.6035 134.441 41.3387C134.892 41.0739 135.249 40.6965 135.514 40.2067C135.792 39.7168 135.931 39.1342 135.931 38.4589ZM151.02 38.2603C151.02 38.6575 150.993 39.015 150.94 39.3328H142.897C142.963 40.1272 143.241 40.7495 143.731 41.1997C144.221 41.6498 144.823 41.8749 145.538 41.8749C146.571 41.8749 147.306 41.4314 147.743 40.5443H150.742C150.424 41.6035 149.815 42.4774 148.914 43.1659C148.014 43.8411 146.909 44.1787 145.598 44.1787C144.539 44.1787 143.585 43.947 142.738 43.4836C141.904 43.007 141.248 42.3383 140.772 41.4777C140.308 40.6171 140.077 39.6241 140.077 38.4987C140.077 37.36 140.308 36.3603 140.772 35.4997C141.235 34.6391 141.884 33.9771 142.718 33.5137C143.552 33.0503 144.512 32.8186 145.598 32.8186C146.644 32.8186 147.577 33.0436 148.398 33.4938C149.232 33.944 149.874 34.5861 150.325 35.4203C150.788 36.2412 151.02 37.1879 151.02 38.2603ZM148.14 37.4659C148.127 36.7509 147.868 36.1816 147.365 35.7579C146.862 35.321 146.247 35.1025 145.518 35.1025C144.83 35.1025 144.247 35.3144 143.771 35.738C143.307 36.1485 143.022 36.7244 142.917 37.4659H148.14ZM155.83 34.7053C156.187 34.1227 156.65 33.6659 157.22 33.3349C157.802 33.0039 158.464 32.8384 159.206 32.8384V35.7579H158.471C157.597 35.7579 156.935 35.9631 156.485 36.3736C156.048 36.784 155.83 37.499 155.83 38.5185V44H153.049V32.9973H155.83V34.7053ZM162.489 31.6865C161.999 31.6865 161.588 31.5342 161.257 31.2297C160.94 30.912 160.781 30.5214 160.781 30.058C160.781 29.5945 160.94 29.2106 161.257 28.906C161.588 28.5883 161.999 28.4294 162.489 28.4294C162.979 28.4294 163.382 28.5883 163.7 28.906C164.031 29.2106 164.197 29.5945 164.197 30.058C164.197 30.5214 164.031 30.912 163.7 31.2297C163.382 31.5342 162.979 31.6865 162.489 31.6865ZM163.859 32.9973V44H161.079V32.9973H163.859ZM171.492 44.1787C170.433 44.1787 169.479 43.947 168.632 43.4836C167.785 43.007 167.116 42.3383 166.626 41.4777C166.149 40.6171 165.911 39.6241 165.911 38.4987C165.911 37.3732 166.156 36.3802 166.646 35.5196C167.149 34.659 167.831 33.9969 168.692 33.5335C169.552 33.0569 170.512 32.8186 171.571 32.8186C172.631 32.8186 173.59 33.0569 174.451 33.5335C175.312 33.9969 175.987 34.659 176.477 35.5196C176.98 36.3802 177.232 37.3732 177.232 38.4987C177.232 39.6241 176.973 40.6171 176.457 41.4777C175.954 42.3383 175.265 43.007 174.392 43.4836C173.531 43.947 172.564 44.1787 171.492 44.1787ZM171.492 41.7558C171.995 41.7558 172.465 41.6366 172.902 41.3983C173.352 41.1467 173.71 40.776 173.974 40.2861C174.239 39.7962 174.372 39.2004 174.372 38.4987C174.372 37.4527 174.094 36.6516 173.538 36.0955C172.995 35.5262 172.326 35.2415 171.532 35.2415C170.737 35.2415 170.069 35.5262 169.526 36.0955C168.996 36.6516 168.731 37.4527 168.731 38.4987C168.731 39.5446 168.989 40.3523 169.506 40.9216C170.035 41.4777 170.697 41.7558 171.492 41.7558ZM178.556 38.4589C178.556 37.3467 178.775 36.3603 179.212 35.4997C179.662 34.6391 180.271 33.9771 181.039 33.5137C181.807 33.0503 182.661 32.8186 183.601 32.8186C184.316 32.8186 184.998 32.9774 185.646 33.2952C186.295 33.5997 186.812 34.0102 187.195 34.5266V29.3033H190.016V44H187.195V42.3714C186.851 42.9143 186.368 43.3512 185.746 43.6822C185.123 44.0132 184.402 44.1787 183.581 44.1787C182.654 44.1787 181.807 43.9404 181.039 43.4638C180.271 42.9871 179.662 42.3185 179.212 41.4579C178.775 40.584 178.556 39.5844 178.556 38.4589ZM187.215 38.4987C187.215 37.8234 187.083 37.2474 186.818 36.7708C186.553 36.2809 186.196 35.9102 185.746 35.6586C185.296 35.3938 184.812 35.2614 184.296 35.2614C183.779 35.2614 183.303 35.3872 182.866 35.6387C182.429 35.8903 182.071 36.261 181.793 36.7509C181.529 37.2276 181.396 37.7969 181.396 38.4589C181.396 39.1209 181.529 39.7035 181.793 40.2067C182.071 40.6965 182.429 41.0739 182.866 41.3387C183.316 41.6035 183.793 41.7359 184.296 41.7359C184.812 41.7359 185.296 41.6101 185.746 41.3586C186.196 41.0938 186.553 40.723 186.818 40.2464C187.083 39.7565 187.215 39.1739 187.215 38.4987ZM202.349 44.1787C201.29 44.1787 200.337 43.947 199.489 43.4836C198.642 43.007 197.973 42.3383 197.484 41.4777C197.007 40.6171 196.769 39.6241 196.769 38.4987C196.769 37.3732 197.013 36.3802 197.503 35.5196C198.007 34.659 198.688 33.9969 199.549 33.5335C200.41 33.0569 201.37 32.8186 202.429 32.8186C203.488 32.8186 204.448 33.0569 205.309 33.5335C206.169 33.9969 206.844 34.659 207.334 35.5196C207.837 36.3802 208.089 37.3732 208.089 38.4987C208.089 39.6241 207.831 40.6171 207.314 41.4777C206.811 42.3383 206.123 43.007 205.249 43.4836C204.388 43.947 203.422 44.1787 202.349 44.1787ZM202.349 41.7558C202.852 41.7558 203.322 41.6366 203.759 41.3983C204.21 41.1467 204.567 40.776 204.832 40.2861C205.097 39.7962 205.229 39.2004 205.229 38.4987C205.229 37.4527 204.951 36.6516 204.395 36.0955C203.852 35.5262 203.183 35.2415 202.389 35.2415C201.595 35.2415 200.926 35.5262 200.383 36.0955C199.854 36.6516 199.589 37.4527 199.589 38.4987C199.589 39.5446 199.847 40.3523 200.363 40.9216C200.893 41.4777 201.555 41.7558 202.349 41.7558ZM216.226 32.8384C217.537 32.8384 218.596 33.2555 219.403 34.0896C220.211 34.9105 220.615 36.0624 220.615 37.5453V44H217.834V37.9227C217.834 37.0488 217.616 36.3802 217.179 35.9168C216.742 35.4401 216.146 35.2018 215.392 35.2018C214.624 35.2018 214.015 35.4401 213.564 35.9168C213.128 36.3802 212.909 37.0488 212.909 37.9227V44H210.129V32.9973H212.909V34.3677C213.28 33.891 213.75 33.5203 214.319 33.2555C214.902 32.9774 215.537 32.8384 216.226 32.8384ZM231.229 35.2813V40.6039C231.229 40.9746 231.315 41.246 231.487 41.4181C231.672 41.577 231.977 41.6565 232.4 41.6565H233.691V44H231.944C229.6 44 228.428 42.8613 228.428 40.584V35.2813H227.117V32.9973H228.428V30.2764H231.229V32.9973H233.691V35.2813H231.229ZM241.888 32.8384C242.722 32.8384 243.463 33.0238 244.112 33.3945C244.761 33.752 245.264 34.2882 245.621 35.0032C245.992 35.7049 246.177 36.5523 246.177 37.5453V44H243.397V37.9227C243.397 37.0488 243.179 36.3802 242.742 35.9168C242.305 35.4401 241.709 35.2018 240.954 35.2018C240.186 35.2018 239.577 35.4401 239.127 35.9168C238.69 36.3802 238.472 37.0488 238.472 37.9227V44H235.691V29.3033H238.472V34.3677C238.829 33.891 239.306 33.5203 239.902 33.2555C240.497 32.9774 241.159 32.8384 241.888 32.8384ZM259.05 38.2603C259.05 38.6575 259.023 39.015 258.97 39.3328H250.927C250.993 40.1272 251.271 40.7495 251.761 41.1997C252.251 41.6498 252.853 41.8749 253.568 41.8749C254.601 41.8749 255.336 41.4314 255.773 40.5443H258.772C258.454 41.6035 257.845 42.4774 256.945 43.1659C256.044 43.8411 254.939 44.1787 253.628 44.1787C252.569 44.1787 251.615 43.947 250.768 43.4836C249.934 43.007 249.278 42.3383 248.802 41.4777C248.338 40.6171 248.107 39.6241 248.107 38.4987C248.107 37.36 248.338 36.3603 248.802 35.4997C249.265 34.6391 249.914 33.9771 250.748 33.5137C251.582 33.0503 252.542 32.8186 253.628 32.8186C254.674 32.8186 255.607 33.0436 256.428 33.4938C257.262 33.944 257.904 34.5861 258.355 35.4203C258.818 36.2412 259.05 37.1879 259.05 38.2603ZM256.17 37.4659C256.157 36.7509 255.899 36.1816 255.395 35.7579C254.892 35.321 254.277 35.1025 253.548 35.1025C252.86 35.1025 252.277 35.3144 251.801 35.738C251.337 36.1485 251.053 36.7244 250.947 37.4659H256.17ZM265.097 38.4589C265.097 37.3467 265.315 36.3603 265.752 35.4997C266.202 34.6391 266.805 33.9771 267.559 33.5137C268.327 33.0503 269.181 32.8186 270.121 32.8186C270.942 32.8186 271.657 32.9841 272.266 33.3151C272.889 33.6461 273.385 34.0631 273.756 34.5663V32.9973H276.556V44H273.756V42.3913C273.398 42.9077 272.902 43.338 272.266 43.6822C271.644 44.0132 270.922 44.1787 270.101 44.1787C269.175 44.1787 268.327 43.9404 267.559 43.4638C266.805 42.9871 266.202 42.3185 265.752 41.4579C265.315 40.584 265.097 39.5844 265.097 38.4589ZM273.756 38.4987C273.756 37.8234 273.623 37.2474 273.359 36.7708C273.094 36.2809 272.736 35.9102 272.286 35.6586C271.836 35.3938 271.353 35.2614 270.836 35.2614C270.32 35.2614 269.843 35.3872 269.406 35.6387C268.969 35.8903 268.612 36.261 268.334 36.7509C268.069 37.2276 267.937 37.7969 267.937 38.4589C267.937 39.1209 268.069 39.7035 268.334 40.2067C268.612 40.6965 268.969 41.0739 269.406 41.3387C269.856 41.6035 270.333 41.7359 270.836 41.7359C271.353 41.7359 271.836 41.6101 272.286 41.3586C272.736 41.0938 273.094 40.723 273.359 40.2464C273.623 39.7565 273.756 39.1739 273.756 38.4987ZM282.052 34.5861C282.41 34.083 282.9 33.6659 283.522 33.3349C284.157 32.9907 284.879 32.8186 285.687 32.8186C286.627 32.8186 287.474 33.0503 288.229 33.5137C288.997 33.9771 289.599 34.6391 290.036 35.4997C290.486 36.3471 290.711 37.3335 290.711 38.4589C290.711 39.5844 290.486 40.584 290.036 41.4579C289.599 42.3185 288.997 42.9871 288.229 43.4638C287.474 43.9404 286.627 44.1787 285.687 44.1787C284.879 44.1787 284.164 44.0132 283.542 43.6822C282.933 43.3512 282.436 42.9342 282.052 42.431V49.2432H279.272V32.9973H282.052V34.5861ZM287.871 38.4589C287.871 37.7969 287.732 37.2276 287.454 36.7509C287.189 36.261 286.832 35.8903 286.382 35.6387C285.945 35.3872 285.468 35.2614 284.952 35.2614C284.449 35.2614 283.972 35.3938 283.522 35.6586C283.085 35.9102 282.727 36.2809 282.449 36.7708C282.185 37.2607 282.052 37.8366 282.052 38.4987C282.052 39.1607 282.185 39.7366 282.449 40.2265C282.727 40.7164 283.085 41.0938 283.522 41.3586C283.972 41.6101 284.449 41.7359 284.952 41.7359C285.468 41.7359 285.945 41.6035 286.382 41.3387C286.832 41.0739 287.189 40.6965 287.454 40.2067C287.732 39.7168 287.871 39.1342 287.871 38.4589ZM295.512 34.5861C295.87 34.083 296.36 33.6659 296.982 33.3349C297.617 32.9907 298.339 32.8186 299.147 32.8186C300.087 32.8186 300.934 33.0503 301.689 33.5137C302.457 33.9771 303.059 34.6391 303.496 35.4997C303.946 36.3471 304.171 37.3335 304.171 38.4589C304.171 39.5844 303.946 40.584 303.496 41.4579C303.059 42.3185 302.457 42.9871 301.689 43.4638C300.934 43.9404 300.087 44.1787 299.147 44.1787C298.339 44.1787 297.624 44.0132 297.002 43.6822C296.393 43.3512 295.896 42.9342 295.512 42.431V49.2432H292.732V32.9973H295.512V34.5861ZM301.331 38.4589C301.331 37.7969 301.192 37.2276 300.914 36.7509C300.65 36.261 300.292 35.8903 299.842 35.6387C299.405 35.3872 298.928 35.2614 298.412 35.2614C297.909 35.2614 297.432 35.3938 296.982 35.6586C296.545 35.9102 296.188 36.2809 295.909 36.7708C295.645 37.2607 295.512 37.8366 295.512 38.4987C295.512 39.1607 295.645 39.7366 295.909 40.2265C296.188 40.7164 296.545 41.0938 296.982 41.3586C297.432 41.6101 297.909 41.7359 298.412 41.7359C298.928 41.7359 299.405 41.6035 299.842 41.3387C300.292 41.0739 300.65 40.6965 300.914 40.2067C301.192 39.7168 301.331 39.1342 301.331 38.4589Z" fill="white"/>
</g>
<defs>
<filter id="filter0_d_5790_144" x="0" y="0" width="327" height="78" filterUnits="userSpaceOnUse" color-interpolation-filters="sRGB">
<feFlood flood-opacity="0" result="BackgroundImageFix"/>
<feColorMatrix in="SourceAlpha" type="matrix" values="0 0 0 0 0 0 0 0 0 0 0 0 0 0 0 0 0 0 127 0" result="hardAlpha"/>
<feOffset dy="2"/>
<feGaussianBlur stdDeviation="3"/>
<feComposite in2="hardAlpha" operator="out"/>
<feColorMatrix type="matrix" values="0 0 0 0 1 0 0 0 0 0.0862745 0 0 0 0 0.25098 0 0 0 0.33 0"/>
<feBlend mode="normal" in2="BackgroundImageFix" result="effect1_dropShadow_5790_144"/>
<feBlend mode="normal" in="SourceGraphic" in2="effect1_dropShadow_5790_144" result="shape"/>
</filter>
<linearGradient id="paint0_linear_5790_144" x1="163.5" y1="4" x2="125.136" y2="-90.4109" gradientUnits="userSpaceOnUse">
<stop stop-color="#F66E6E"/>
<stop offset="1" stop-color="#F66E6E" stop-opacity="0"/>
</linearGradient>
</defs>
</svg>
