<svg width="347" height="98" viewBox="0 0 347 98" fill="none" xmlns="http://www.w3.org/2000/svg">
<g filter="url(#filter0_d_5790_179)">
<path d="M16 47C16 28.7746 30.7746 14 49 14H298C316.225 14 331 28.7746 331 47C331 65.2254 316.225 80 298 80H49C30.7746 80 16 65.2254 16 47Z" fill="url(#paint0_linear_5790_179)" shape-rendering="crispEdges"/>
<path d="M91.7563 44.3081C91.4386 43.7255 91.0016 43.282 90.4455 42.9774C89.8895 42.6729 89.2407 42.5207 88.4992 42.5207C87.6783 42.5207 86.9501 42.706 86.3146 43.0767C85.679 43.4475 85.1825 43.9771 84.825 44.6656C84.4675 45.3541 84.2888 46.1485 84.2888 47.0488C84.2888 47.9757 84.4675 48.7833 84.825 49.4718C85.1958 50.1603 85.7055 50.6899 86.3543 51.0607C87.0031 51.4314 87.7578 51.6167 88.6184 51.6167C89.6776 51.6167 90.5449 51.3387 91.2201 50.7826C91.8954 50.2133 92.3389 49.4255 92.5508 48.4192H87.7842V46.2941H95.2915V48.7171C95.1061 49.6837 94.7089 50.5774 94.0999 51.3983C93.4908 52.2192 92.703 52.8812 91.7365 53.3843C90.7832 53.8742 89.7107 54.1192 88.5191 54.1192C87.1818 54.1192 85.9703 53.8213 84.8846 53.2254C83.8122 52.6164 82.9648 51.7756 82.3425 50.7032C81.7334 49.6307 81.4289 48.4126 81.4289 47.0488C81.4289 45.6851 81.7334 44.467 82.3425 43.3945C82.9648 42.3088 83.8122 41.468 84.8846 40.8722C85.9703 40.2632 87.1752 39.9587 88.4992 39.9587C90.0616 39.9587 91.4187 40.3426 92.5706 41.1106C93.7225 41.8653 94.5169 42.9311 94.9539 44.3081H91.7563ZM107.577 48.2603C107.577 48.6575 107.55 49.015 107.497 49.3328H99.4538C99.52 50.1272 99.7981 50.7495 100.288 51.1997C100.778 51.6498 101.38 51.8749 102.095 51.8749C103.128 51.8749 103.863 51.4314 104.3 50.5443H107.299C106.981 51.6035 106.372 52.4774 105.472 53.1659C104.571 53.8411 103.466 54.1787 102.155 54.1787C101.096 54.1787 100.142 53.947 99.2949 53.4836C98.4608 53.007 97.8054 52.3383 97.3288 51.4777C96.8653 50.6171 96.6336 49.6241 96.6336 48.4987C96.6336 47.36 96.8653 46.3603 97.3288 45.4997C97.7922 44.6391 98.4409 43.9771 99.2751 43.5137C100.109 43.0503 101.069 42.8186 102.155 42.8186C103.201 42.8186 104.134 43.0436 104.955 43.4938C105.789 43.944 106.431 44.5861 106.882 45.4203C107.345 46.2412 107.577 47.1879 107.577 48.2603ZM104.697 47.4659C104.684 46.7509 104.426 46.1816 103.922 45.7579C103.419 45.321 102.804 45.1025 102.075 45.1025C101.387 45.1025 100.804 45.3144 100.328 45.738C99.8643 46.1485 99.5796 46.7244 99.4737 47.4659H104.697ZM112.843 45.2813V50.6039C112.843 50.9746 112.93 51.246 113.102 51.4181C113.287 51.577 113.592 51.6565 114.015 51.6565H115.306V54H113.558C111.215 54 110.043 52.8613 110.043 50.584V45.2813H108.732V42.9973H110.043V40.2764H112.843V42.9973H115.306V45.2813H112.843ZM121.323 48.4589C121.323 47.3467 121.542 46.3603 121.979 45.4997C122.429 44.6391 123.031 43.9771 123.786 43.5137C124.554 43.0503 125.408 42.8186 126.348 42.8186C127.169 42.8186 127.884 42.9841 128.493 43.3151C129.115 43.6461 129.612 44.0631 129.983 44.5663V42.9973H132.783V54H129.983V52.3913C129.625 52.9077 129.129 53.338 128.493 53.6822C127.871 54.0132 127.149 54.1787 126.328 54.1787C125.401 54.1787 124.554 53.9404 123.786 53.4638C123.031 52.9871 122.429 52.3185 121.979 51.4579C121.542 50.584 121.323 49.5844 121.323 48.4589ZM129.983 48.4987C129.983 47.8234 129.85 47.2474 129.585 46.7708C129.321 46.2809 128.963 45.9102 128.513 45.6586C128.063 45.3938 127.579 45.2614 127.063 45.2614C126.547 45.2614 126.07 45.3872 125.633 45.6387C125.196 45.8903 124.839 46.261 124.561 46.7509C124.296 47.2276 124.163 47.7969 124.163 48.4589C124.163 49.1209 124.296 49.7035 124.561 50.2067C124.839 50.6965 125.196 51.0739 125.633 51.3387C126.083 51.6035 126.56 51.7359 127.063 51.7359C127.579 51.7359 128.063 51.6101 128.513 51.3586C128.963 51.0938 129.321 50.723 129.585 50.2464C129.85 49.7565 129.983 49.1739 129.983 48.4987ZM139.516 48.4987C139.516 47.36 139.748 46.367 140.211 45.5196C140.674 44.659 141.317 43.9969 142.138 43.5335C142.958 43.0569 143.898 42.8186 144.958 42.8186C146.321 42.8186 147.447 43.1628 148.334 43.8513C149.234 44.5266 149.837 45.4799 150.141 46.7112H147.142C146.983 46.2346 146.712 45.8638 146.328 45.599C145.957 45.321 145.494 45.182 144.938 45.182C144.143 45.182 143.515 45.4732 143.051 46.0558C142.588 46.6251 142.356 47.4394 142.356 48.4987C142.356 49.5446 142.588 50.3589 143.051 50.9415C143.515 51.5108 144.143 51.7955 144.938 51.7955C146.063 51.7955 146.798 51.2924 147.142 50.2861H150.141C149.837 51.4777 149.234 52.4244 148.334 53.1261C147.434 53.8279 146.308 54.1787 144.958 54.1787C143.898 54.1787 142.958 53.947 142.138 53.4836C141.317 53.007 140.674 52.345 140.211 51.4976C139.748 50.637 139.516 49.6373 139.516 48.4987ZM157.064 54.1787C156.005 54.1787 155.051 53.947 154.204 53.4836C153.357 53.007 152.688 52.3383 152.198 51.4777C151.721 50.6171 151.483 49.6241 151.483 48.4987C151.483 47.3732 151.728 46.3802 152.218 45.5196C152.721 44.659 153.403 43.9969 154.264 43.5335C155.124 43.0569 156.084 42.8186 157.143 42.8186C158.203 42.8186 159.162 43.0569 160.023 43.5335C160.884 43.9969 161.559 44.659 162.049 45.5196C162.552 46.3802 162.804 47.3732 162.804 48.4987C162.804 49.6241 162.545 50.6171 162.029 51.4777C161.526 52.3383 160.837 53.007 159.964 53.4836C159.103 53.947 158.136 54.1787 157.064 54.1787ZM157.064 51.7558C157.567 51.7558 158.037 51.6366 158.474 51.3983C158.924 51.1467 159.282 50.776 159.546 50.2861C159.811 49.7962 159.944 49.2004 159.944 48.4987C159.944 47.4527 159.666 46.6516 159.11 46.0955C158.567 45.5262 157.898 45.2415 157.104 45.2415C156.309 45.2415 155.641 45.5262 155.098 46.0955C154.568 46.6516 154.303 47.4527 154.303 48.4987C154.303 49.5446 154.561 50.3523 155.078 50.9216C155.607 51.4777 156.269 51.7558 157.064 51.7558ZM170.94 42.8384C172.251 42.8384 173.31 43.2555 174.118 44.0896C174.926 44.9105 175.329 46.0624 175.329 47.5453V54H172.549V47.9227C172.549 47.0488 172.331 46.3802 171.894 45.9168C171.457 45.4401 170.861 45.2018 170.106 45.2018C169.338 45.2018 168.729 45.4401 168.279 45.9168C167.842 46.3802 167.624 47.0488 167.624 47.9227V54H164.843V42.9973H167.624V44.3677C167.994 43.891 168.464 43.5203 169.034 43.2555C169.616 42.9774 170.252 42.8384 170.94 42.8384ZM182.184 54.1787C181.284 54.1787 180.476 54.0199 179.761 53.7021C179.046 53.3711 178.477 52.9275 178.053 52.3714C177.643 51.8153 177.417 51.1997 177.378 50.5244H180.178C180.231 50.9481 180.436 51.299 180.794 51.577C181.164 51.8551 181.621 51.9941 182.164 51.9941C182.694 51.9941 183.104 51.8882 183.395 51.6763C183.7 51.4645 183.852 51.1931 183.852 50.862C183.852 50.5046 183.667 50.2398 183.296 50.0676C182.939 49.8823 182.363 49.6837 181.568 49.4718C180.747 49.2732 180.072 49.068 179.543 48.8561C179.026 48.6443 178.576 48.3199 178.192 47.883C177.821 47.446 177.636 46.8569 177.636 46.1154C177.636 45.5063 177.808 44.9502 178.152 44.4471C178.51 43.944 179.013 43.5468 179.662 43.2555C180.324 42.9642 181.098 42.8186 181.985 42.8186C183.296 42.8186 184.342 43.1496 185.123 43.8116C185.905 44.4604 186.335 45.3408 186.414 46.453H183.753C183.713 46.0161 183.528 45.6718 183.197 45.4203C182.879 45.1555 182.449 45.0231 181.906 45.0231C181.403 45.0231 181.012 45.1158 180.734 45.3011C180.469 45.4865 180.337 45.7447 180.337 46.0757C180.337 46.4464 180.522 46.7311 180.893 46.9297C181.264 47.115 181.84 47.307 182.621 47.5056C183.415 47.7042 184.071 47.9095 184.587 48.1213C185.103 48.3331 185.547 48.6642 185.918 49.1143C186.302 49.5513 186.5 50.1338 186.514 50.862C186.514 51.4976 186.335 52.0669 185.977 52.57C185.633 53.0732 185.13 53.4704 184.468 53.7617C183.819 54.0397 183.058 54.1787 182.184 54.1787ZM199.183 42.9973V54H196.383V52.6098C196.025 53.0864 195.555 53.4638 194.973 53.7418C194.403 54.0066 193.781 54.139 193.106 54.139C192.245 54.139 191.484 53.9603 190.822 53.6028C190.16 53.2321 189.637 52.6958 189.253 51.9941C188.882 51.2791 188.697 50.4317 188.697 49.452V42.9973H191.477V49.0547C191.477 49.9286 191.696 50.6039 192.133 51.0805C192.569 51.5439 193.165 51.7756 193.92 51.7756C194.688 51.7756 195.29 51.5439 195.727 51.0805C196.164 50.6039 196.383 49.9286 196.383 49.0547V42.9973H199.183ZM204.707 39.3033V54H201.926V39.3033H204.707ZM210.691 45.2813V50.6039C210.691 50.9746 210.777 51.246 210.949 51.4181C211.135 51.577 211.439 51.6565 211.863 51.6565H213.154V54H211.406C209.063 54 207.891 52.8613 207.891 50.584V45.2813H206.58V42.9973H207.891V40.2764H210.691V42.9973H213.154V45.2813H210.691ZM214.439 48.4589C214.439 47.3467 214.657 46.3603 215.094 45.4997C215.544 44.6391 216.147 43.9771 216.901 43.5137C217.669 43.0503 218.523 42.8186 219.463 42.8186C220.284 42.8186 220.999 42.9841 221.608 43.3151C222.231 43.6461 222.727 44.0631 223.098 44.5663V42.9973H225.898V54H223.098V52.3913C222.74 52.9077 222.244 53.338 221.608 53.6822C220.986 54.0132 220.265 54.1787 219.444 54.1787C218.517 54.1787 217.669 53.9404 216.901 53.4638C216.147 52.9871 215.544 52.3185 215.094 51.4579C214.657 50.584 214.439 49.5844 214.439 48.4589ZM223.098 48.4987C223.098 47.8234 222.966 47.2474 222.701 46.7708C222.436 46.2809 222.078 45.9102 221.628 45.6586C221.178 45.3938 220.695 45.2614 220.178 45.2614C219.662 45.2614 219.185 45.3872 218.749 45.6387C218.312 45.8903 217.954 46.261 217.676 46.7509C217.411 47.2276 217.279 47.7969 217.279 48.4589C217.279 49.1209 217.411 49.7035 217.676 50.2067C217.954 50.6965 218.312 51.0739 218.749 51.3387C219.199 51.6035 219.675 51.7359 220.178 51.7359C220.695 51.7359 221.178 51.6101 221.628 51.3586C222.078 51.0938 222.436 50.723 222.701 50.2464C222.966 49.7565 223.098 49.1739 223.098 48.4987ZM231.851 45.2813V50.6039C231.851 50.9746 231.937 51.246 232.109 51.4181C232.295 51.577 232.599 51.6565 233.023 51.6565H234.314V54H232.566C230.223 54 229.051 52.8613 229.051 50.584V45.2813H227.74V42.9973H229.051V40.2764H231.851V42.9973H234.314V45.2813H231.851ZM237.724 41.6865C237.234 41.6865 236.823 41.5342 236.492 41.2297C236.175 40.912 236.016 40.5214 236.016 40.058C236.016 39.5945 236.175 39.2106 236.492 38.906C236.823 38.5883 237.234 38.4294 237.724 38.4294C238.214 38.4294 238.617 38.5883 238.935 38.906C239.266 39.2106 239.432 39.5945 239.432 40.058C239.432 40.5214 239.266 40.912 238.935 41.2297C238.617 41.5342 238.214 41.6865 237.724 41.6865ZM239.094 42.9973V54H236.314V42.9973H239.094ZM246.727 54.1787C245.668 54.1787 244.714 53.947 243.867 53.4836C243.02 53.007 242.351 52.3383 241.861 51.4777C241.384 50.6171 241.146 49.6241 241.146 48.4987C241.146 47.3732 241.391 46.3802 241.881 45.5196C242.384 44.659 243.066 43.9969 243.927 43.5335C244.787 43.0569 245.747 42.8186 246.806 42.8186C247.866 42.8186 248.826 43.0569 249.686 43.5335C250.547 43.9969 251.222 44.659 251.712 45.5196C252.215 46.3802 252.467 47.3732 252.467 48.4987C252.467 49.6241 252.208 50.6171 251.692 51.4777C251.189 52.3383 250.5 53.007 249.627 53.4836C248.766 53.947 247.799 54.1787 246.727 54.1787ZM246.727 51.7558C247.23 51.7558 247.7 51.6366 248.137 51.3983C248.587 51.1467 248.945 50.776 249.209 50.2861C249.474 49.7962 249.607 49.2004 249.607 48.4987C249.607 47.4527 249.329 46.6516 248.773 46.0955C248.23 45.5262 247.561 45.2415 246.767 45.2415C245.972 45.2415 245.304 45.5262 244.761 46.0955C244.231 46.6516 243.966 47.4527 243.966 48.4987C243.966 49.5446 244.225 50.3523 244.741 50.9216C245.27 51.4777 245.933 51.7558 246.727 51.7558ZM260.603 42.8384C261.914 42.8384 262.973 43.2555 263.781 44.0896C264.589 44.9105 264.993 46.0624 264.993 47.5453V54H262.212V47.9227C262.212 47.0488 261.994 46.3802 261.557 45.9168C261.12 45.4401 260.524 45.2018 259.769 45.2018C259.001 45.2018 258.392 45.4401 257.942 45.9168C257.505 46.3802 257.287 47.0488 257.287 47.9227V54H254.506V42.9973H257.287V44.3677C257.657 43.891 258.127 43.5203 258.697 43.2555C259.279 42.9774 259.915 42.8384 260.603 42.8384Z" fill="white"/>
</g>
<defs>
<filter id="filter0_d_5790_179" x="0" y="0" width="347" height="98" filterUnits="userSpaceOnUse" color-interpolation-filters="sRGB">
<feFlood flood-opacity="0" result="BackgroundImageFix"/>
<feColorMatrix in="SourceAlpha" type="matrix" values="0 0 0 0 0 0 0 0 0 0 0 0 0 0 0 0 0 0 127 0" result="hardAlpha"/>
<feOffset dy="2"/>
<feGaussianBlur stdDeviation="8"/>
<feComposite in2="hardAlpha" operator="out"/>
<feColorMatrix type="matrix" values="0 0 0 0 0.279167 0 0 0 0 0.87025 0 0 0 0 1 0 0 0 0.33 0"/>
<feBlend mode="normal" in2="BackgroundImageFix" result="effect1_dropShadow_5790_179"/>
<feBlend mode="normal" in="SourceGraphic" in2="effect1_dropShadow_5790_179" result="shape"/>
</filter>
<linearGradient id="paint0_linear_5790_179" x1="254.711" y1="16.5" x2="168.528" y2="-122.082" gradientUnits="userSpaceOnUse">
<stop stop-color="#6E8CF6"/>
<stop offset="1" stop-color="#6ED5F6" stop-opacity="0.93"/>
</linearGradient>
</defs>
</svg>
