<svg width="22" height="22" viewBox="0 0 22 22" fill="none" xmlns="http://www.w3.org/2000/svg">
<path fill-rule="evenodd" clip-rule="evenodd" d="M2.74998 6.41665H19.25C19.8 6.41665 20.1666 6.04998 20.1666 5.49998C20.1666 4.94998 19.8 4.58331 19.25 4.58331H2.74998C2.19998 4.58331 1.83331 4.94998 1.83331 5.49998C1.83331 6.04998 2.19998 6.41665 2.74998 6.41665ZM20.1666 11C20.1666 11.55 19.8 11.9166 19.25 11.9166H2.74998C2.19998 11.9166 1.83331 11.55 1.83331 11C1.83331 10.45 2.19998 10.0833 2.74998 10.0833H19.25C19.8 10.0833 20.1666 10.45 20.1666 11ZM2.74998 15.5833H19.25C19.8 15.5833 20.1666 15.95 20.1666 16.5C20.1666 17.05 19.8 17.4166 19.25 17.4166H2.74998C2.19998 17.4166 1.83331 17.05 1.83331 16.5C1.83331 15.95 2.19998 15.5833 2.74998 15.5833Z" fill="black"/>
<mask id="mask0_314_1349" style="mask-type:alpha" maskUnits="userSpaceOnUse" x="1" y="4" width="20" height="14">
<path fill-rule="evenodd" clip-rule="evenodd" d="M2.74998 6.41665H19.25C19.8 6.41665 20.1666 6.04998 20.1666 5.49998C20.1666 4.94998 19.8 4.58331 19.25 4.58331H2.74998C2.19998 4.58331 1.83331 4.94998 1.83331 5.49998C1.83331 6.04998 2.19998 6.41665 2.74998 6.41665ZM20.1666 11C20.1666 11.55 19.8 11.9166 19.25 11.9166H2.74998C2.19998 11.9166 1.83331 11.55 1.83331 11C1.83331 10.45 2.19998 10.0833 2.74998 10.0833H19.25C19.8 10.0833 20.1666 10.45 20.1666 11ZM2.74998 15.5833H19.25C19.8 15.5833 20.1666 15.95 20.1666 16.5C20.1666 17.05 19.8 17.4166 19.25 17.4166H2.74998C2.19998 17.4166 1.83331 17.05 1.83331 16.5C1.83331 15.95 2.19998 15.5833 2.74998 15.5833Z" fill="white"/>
</mask>
<g mask="url(#mask0_314_1349)">
<path fill-rule="evenodd" clip-rule="evenodd" d="M0 0H22V22H0V0Z" fill="black"/>
</g>
</svg>
